<ttFont>
    <TTGlyph name=".notdef" xMin="220" yMin="0" xMax="1625" yMax="1416">
      <contour>
        <pt x="220" y="1416" on="1"/>
        <pt x="1625" y="1416" on="1"/>
        <pt x="1625" y="0" on="1"/>
        <pt x="220" y="0" on="1"/>
      </contour>
      <contour>
        <pt x="583" y="232" on="1"/>
        <pt x="920" y="595" on="1"/>
        <pt x="1271" y="231" on="1"/>
        <pt x="1386" y="347" on="1"/>
        <pt x="1031" y="709" on="1"/>
        <pt x="1386" y="1060" on="1"/>
        <pt x="1265" y="1179" on="1"/>
        <pt x="923" y="817" on="1"/>
        <pt x="577" y="1180" on="1"/>
        <pt x="461" y="1061" on="1"/>
        <pt x="812" y="705" on="1"/>
        <pt x="462" y="370" on="1"/>
      </contour>
    </TTGlyph>
    <TTGlyph name="A" xMin="-50" yMin="0" xMax="1152" yMax="1530">
      <contour>
        <pt x="695" y="1530" on="1"/>
        <pt x="863" y="1530" on="1"/>
        <pt x="1152" y="0" on="1"/>
        <pt x="1002" y="0" on="1"/>
        <pt x="926" y="431" on="1"/>
        <pt x="312" y="431" on="1"/>
        <pt x="111" y="0" on="1"/>
        <pt x="-50" y="0" on="1"/>
      </contour>
      <contour>
        <pt x="906" y="546" on="1"/>
        <pt x="777" y="1280" on="1"/>
        <pt x="762" y="1395" on="1"/>
        <pt x="707" y="1276" on="1"/>
        <pt x="366" y="546" on="1"/>
      </contour>
    </TTGlyph>
    <TTGlyph name="AE" xMin="-107" yMin="0" xMax="1717" yMax="1530">
      <contour>
        <pt x="-107" y="0" on="1"/>
        <pt x="699" y="1436" on="1"/>
        <pt x="401" y="1453" on="1"/>
        <pt x="412" y="1530" on="1"/>
        <pt x="1717" y="1530" on="1"/>
        <pt x="1711" y="1410" on="1"/>
        <pt x="1097" y="1417" on="1"/>
        <pt x="1023" y="838" on="1"/>
        <pt x="1498" y="844" on="1"/>
        <pt x="1489" y="717" on="1"/>
        <pt x="1010" y="728" on="1"/>
        <pt x="932" y="114" on="1"/>
        <pt x="1669" y="127" on="1"/>
        <pt x="1658" y="0" on="1"/>
        <pt x="768" y="0" on="1"/>
        <pt x="826" y="459" on="1"/>
        <pt x="306" y="459" on="1"/>
        <pt x="55" y="0" on="1"/>
      </contour>
      <contour>
        <pt x="840" y="575" on="1"/>
        <pt x="947" y="1420" on="1"/>
        <pt x="836" y="1425" on="1"/>
        <pt x="370" y="575" on="1"/>
      </contour>
    </TTGlyph>
    <TTGlyph name="AEacute" xMin="-107" yMin="0" xMax="1717" yMax="2000">
      <component glyphName="acute.cap" x="929" y="0" flags="0x4"/>
      <component glyphName="AE" x="0" y="0" flags="0x4"/>
    </TTGlyph>
    <TTGlyph name="Aacute" xMin="-50" yMin="0" xMax="1152" yMax="2000">
      <component glyphName="A" x="0" y="0" flags="0x204"/>
      <component glyphName="acute.cap" x="659" y="0" flags="0x4"/>
    </TTGlyph>
    <TTGlyph name="Abreve" xMin="-50" yMin="0" xMax="1152" yMax="1980">
      <component glyphName="A" x="0" y="0" flags="0x204"/>
      <component glyphName="breve.cap" x="454" y="0" flags="0x4"/>
    </TTGlyph>
    <TTGlyph name="Acircumflex" xMin="-50" yMin="0" xMax="1152" yMax="2000">
      <component glyphName="A" x="0" y="0" flags="0x204"/>
      <component glyphName="circumflex.cap" x="411" y="0" flags="0x4"/>
    </TTGlyph>
    <TTGlyph name="Adieresis" xMin="-50" yMin="0" xMax="1152" yMax="1935">
      <component glyphName="A" x="0" y="0" flags="0x204"/>
      <component glyphName="dieresis.cap" x="416" y="0" flags="0x4"/>
    </TTGlyph>
    <TTGlyph name="Agrave" xMin="-50" yMin="0" xMax="1152" yMax="2000">
      <component glyphName="A" x="0" y="0" flags="0x204"/>
      <component glyphName="grave.cap" x="458" y="0" flags="0x4"/>
    </TTGlyph>
    <TTGlyph name="Amacron" xMin="-50" yMin="0" xMax="1152" yMax="1862">
      <component glyphName="A" x="0" y="0" flags="0x204"/>
      <component glyphName="macron.cap" x="482" y="0" flags="0x4"/>
    </TTGlyph>
    <TTGlyph name="Aogonek" xMin="-50" yMin="-436" xMax="1176" yMax="1530">
      <contour>
        <pt x="695" y="1530" on="1"/>
        <pt x="863" y="1530" on="1"/>
        <pt x="1152" y="0" on="1"/>
        <pt x="1124" y="0" on="1"/>
        <pt x="1094" y="-20" on="0"/>
        <pt x="1013" y="-74" on="0"/>
        <pt x="941" y="-137" on="0"/>
        <pt x="890" y="-207" on="0"/>
        <pt x="890" y="-242" on="1"/>
        <pt x="890" y="-281" on="0"/>
        <pt x="940" y="-322" on="0"/>
        <pt x="978" y="-322" on="1"/>
        <pt x="1061" y="-322" on="0"/>
        <pt x="1136" y="-264" on="1"/>
        <pt x="1176" y="-342" on="1"/>
        <pt x="1159" y="-356" on="0"/>
        <pt x="1111" y="-389" on="0"/>
        <pt x="1049" y="-417" on="0"/>
        <pt x="973" y="-436" on="0"/>
        <pt x="930" y="-436" on="1"/>
        <pt x="879" y="-436" on="0"/>
        <pt x="807" y="-406" on="0"/>
        <pt x="762" y="-361" on="0"/>
        <pt x="742" y="-309" on="0"/>
        <pt x="742" y="-287" on="1"/>
        <pt x="742" y="-235" on="0"/>
        <pt x="798" y="-145" on="0"/>
        <pt x="879" y="-73" on="0"/>
        <pt x="969" y="-17" on="0"/>
        <pt x="1002" y="1" on="1"/>
        <pt x="926" y="431" on="1"/>
        <pt x="312" y="431" on="1"/>
        <pt x="111" y="0" on="1"/>
        <pt x="-50" y="0" on="1"/>
      </contour>
      <contour>
        <pt x="906" y="546" on="1"/>
        <pt x="777" y="1280" on="1"/>
        <pt x="762" y="1395" on="1"/>
        <pt x="707" y="1276" on="1"/>
        <pt x="366" y="546" on="1"/>
      </contour>
    </TTGlyph>
    <TTGlyph name="Aring" xMin="-50" yMin="0" xMax="1152" yMax="2000">
      <component glyphName="A" x="0" y="0" flags="0x204"/>
      <component glyphName="ring.cap" x="444" y="0" flags="0x4"/>
    </TTGlyph>
    <TTGlyph name="Atilde" xMin="-50" yMin="0" xMax="1199" yMax="1964">
      <component glyphName="A" x="0" y="0" flags="0x204"/>
      <component glyphName="tilde.cap" x="405" y="0" flags="0x4"/>
    </TTGlyph>
    <TTGlyph name="B" xMin="121" yMin="-14" xMax="1140" yMax="1546">
      <contour>
        <pt x="314" y="1530" on="1"/>
        <pt x="396" y="1530" on="1"/>
        <pt x="467" y="1531" on="0"/>
        <pt x="614" y="1546" on="0"/>
        <pt x="691" y="1546" on="1"/>
        <pt x="821" y="1546" on="0"/>
        <pt x="992" y="1491" on="0"/>
        <pt x="1095" y="1400" on="0"/>
        <pt x="1138" y="1281" on="0"/>
        <pt x="1139" y="1218" on="1"/>
        <pt x="1140" y="1136" on="0"/>
        <pt x="1096" y="1001" on="0"/>
        <pt x="1012" y="895" on="0"/>
        <pt x="892" y="821" on="0"/>
        <pt x="819" y="800" on="1"/>
        <pt x="882" y="793" on="0"/>
        <pt x="994" y="743" on="0"/>
        <pt x="1079" y="663" on="0"/>
        <pt x="1130" y="555" on="0"/>
        <pt x="1131" y="490" on="1"/>
        <pt x="1133" y="354" on="0"/>
        <pt x="1032" y="162" on="0"/>
        <pt x="851" y="41" on="0"/>
        <pt x="603" y="-14" on="0"/>
        <pt x="458" y="-14" on="1"/>
        <pt x="429" y="-14" on="0"/>
        <pt x="358" y="-10" on="0"/>
        <pt x="286" y="-4" on="0"/>
        <pt x="218" y="0" on="0"/>
        <pt x="191" y="0" on="1"/>
        <pt x="121" y="0" on="1"/>
      </contour>
      <contour>
        <pt x="378" y="847" on="1"/>
        <pt x="431" y="845" on="0"/>
        <pt x="558" y="847" on="0"/>
        <pt x="612" y="847" on="1"/>
        <pt x="691" y="847" on="0"/>
        <pt x="829" y="893" on="0"/>
        <pt x="931" y="983" on="0"/>
        <pt x="989" y="1115" on="0"/>
        <pt x="988" y="1201" on="1"/>
        <pt x="987" y="1258" on="0"/>
        <pt x="951" y="1347" on="0"/>
        <pt x="872" y="1409" on="0"/>
        <pt x="746" y="1441" on="0"/>
        <pt x="656" y="1441" on="1"/>
        <pt x="645" y="1441" on="0"/>
        <pt x="595" y="1439" on="0"/>
        <pt x="536" y="1435" on="0"/>
        <pt x="474" y="1431" on="0"/>
        <pt x="451" y="1428" on="1"/>
      </contour>
      <contour>
        <pt x="286" y="113" on="1"/>
        <pt x="302" y="108" on="0"/>
        <pt x="358" y="101" on="0"/>
        <pt x="420" y="97" on="0"/>
        <pt x="476" y="94" on="0"/>
        <pt x="491" y="94" on="1"/>
        <pt x="592" y="94" on="0"/>
        <pt x="768" y="133" on="0"/>
        <pt x="898" y="221" on="0"/>
        <pt x="972" y="366" on="0"/>
        <pt x="971" y="472" on="1"/>
        <pt x="970" y="539" on="0"/>
        <pt x="919" y="639" on="0"/>
        <pt x="829" y="706" on="0"/>
        <pt x="703" y="739" on="0"/>
        <pt x="626" y="739" on="1"/>
        <pt x="522" y="739" on="0"/>
        <pt x="402" y="735" on="0"/>
        <pt x="364" y="733" on="1"/>
      </contour>
    </TTGlyph>
    <TTGlyph name="C" xMin="107" yMin="-15" xMax="1147" yMax="1546">
      <contour>
        <pt x="622" y="-15" on="1"/>
        <pt x="527" y="-15" on="0"/>
        <pt x="378" y="37" on="0"/>
        <pt x="265" y="128" on="0"/>
        <pt x="185" y="251" on="0"/>
        <pt x="135" y="394" on="0"/>
        <pt x="111" y="549" on="0"/>
        <pt x="110" y="627" on="1"/>
        <pt x="107" y="764" on="0"/>
        <pt x="155" y="1007" on="0"/>
        <pt x="245" y="1211" on="0"/>
        <pt x="375" y="1373" on="0"/>
        <pt x="536" y="1486" on="0"/>
        <pt x="722" y="1546" on="0"/>
        <pt x="824" y="1546" on="1"/>
        <pt x="872" y="1546" on="0"/>
        <pt x="951" y="1538" on="0"/>
        <pt x="1016" y="1525" on="0"/>
        <pt x="1071" y="1508" on="0"/>
        <pt x="1096" y="1500" on="1"/>
        <pt x="1147" y="1484" on="1"/>
        <pt x="1094" y="1358" on="1"/>
        <pt x="1078" y="1365" on="0"/>
        <pt x="1033" y="1386" on="0"/>
        <pt x="968" y="1406" on="0"/>
        <pt x="878" y="1420" on="0"/>
        <pt x="818" y="1420" on="1"/>
        <pt x="720" y="1420" on="0"/>
        <pt x="561" y="1353" on="0"/>
        <pt x="436" y="1238" on="0"/>
        <pt x="346" y="1085" on="0"/>
        <pt x="289" y="912" on="0"/>
        <pt x="262" y="729" on="0"/>
        <pt x="264" y="642" on="1"/>
        <pt x="266" y="534" on="0"/>
        <pt x="311" y="339" on="0"/>
        <pt x="404" y="192" on="0"/>
        <pt x="548" y="105" on="0"/>
        <pt x="649" y="105" on="1"/>
        <pt x="711" y="105" on="0"/>
        <pt x="825" y="127" on="0"/>
        <pt x="921" y="160" on="0"/>
        <pt x="994" y="196" on="0"/>
        <pt x="1015" y="211" on="1"/>
        <pt x="1038" y="83" on="1"/>
        <pt x="1017" y="70" on="0"/>
        <pt x="948" y="36" on="0"/>
        <pt x="846" y="6" on="0"/>
        <pt x="710" y="-15" on="0"/>
      </contour>
    </TTGlyph>
    <TTGlyph name="Cacute" xMin="107" yMin="-15" xMax="1147" yMax="2000">
      <component glyphName="C" x="0" y="0" flags="0x204"/>
      <component glyphName="acute.cap" x="677" y="0" flags="0x4"/>
    </TTGlyph>
    <TTGlyph name="Ccaron" xMin="107" yMin="-15" xMax="1189" yMax="2000">
      <component glyphName="C" x="0" y="0" flags="0x204"/>
      <component glyphName="caron.cap" x="444" y="0" flags="0x4"/>
    </TTGlyph>
    <TTGlyph name="Ccedilla" xMin="107" yMin="-463" xMax="1147" yMax="1546">
      <contour>
        <pt x="334" y="-319" on="1"/>
        <pt x="347" y="-326" on="0"/>
        <pt x="390" y="-337" on="0"/>
        <pt x="422" y="-337" on="1"/>
        <pt x="459" y="-337" on="0"/>
        <pt x="522" y="-317" on="0"/>
        <pt x="567" y="-271" on="0"/>
        <pt x="592" y="-198" on="0"/>
        <pt x="592" y="-144" on="1"/>
        <pt x="592" y="-112" on="0"/>
        <pt x="589" y="-43" on="0"/>
        <pt x="584" y="-14" on="1"/>
        <pt x="496" y="-9" on="0"/>
        <pt x="358" y="49" on="0"/>
        <pt x="254" y="141" on="0"/>
        <pt x="180" y="263" on="0"/>
        <pt x="134" y="402" on="0"/>
        <pt x="111" y="552" on="0"/>
        <pt x="110" y="627" on="1"/>
        <pt x="107" y="764" on="0"/>
        <pt x="155" y="1007" on="0"/>
        <pt x="245" y="1211" on="0"/>
        <pt x="375" y="1373" on="0"/>
        <pt x="536" y="1486" on="0"/>
        <pt x="722" y="1546" on="0"/>
        <pt x="824" y="1546" on="1"/>
        <pt x="872" y="1546" on="0"/>
        <pt x="951" y="1538" on="0"/>
        <pt x="1016" y="1525" on="0"/>
        <pt x="1071" y="1508" on="0"/>
        <pt x="1096" y="1500" on="1"/>
        <pt x="1147" y="1484" on="1"/>
        <pt x="1094" y="1358" on="1"/>
        <pt x="1078" y="1365" on="0"/>
        <pt x="1033" y="1386" on="0"/>
        <pt x="968" y="1406" on="0"/>
        <pt x="878" y="1420" on="0"/>
        <pt x="818" y="1420" on="1"/>
        <pt x="720" y="1420" on="0"/>
        <pt x="561" y="1353" on="0"/>
        <pt x="436" y="1238" on="0"/>
        <pt x="346" y="1085" on="0"/>
        <pt x="289" y="912" on="0"/>
        <pt x="262" y="729" on="0"/>
        <pt x="264" y="642" on="1"/>
        <pt x="266" y="534" on="0"/>
        <pt x="311" y="339" on="0"/>
        <pt x="404" y="192" on="0"/>
        <pt x="548" y="105" on="0"/>
        <pt x="649" y="105" on="1"/>
        <pt x="711" y="105" on="0"/>
        <pt x="825" y="127" on="0"/>
        <pt x="921" y="160" on="0"/>
        <pt x="994" y="196" on="0"/>
        <pt x="1015" y="211" on="1"/>
        <pt x="1038" y="83" on="1"/>
        <pt x="1019" y="71" on="0"/>
        <pt x="960" y="42" on="0"/>
        <pt x="876" y="14" on="0"/>
        <pt x="765" y="-8" on="0"/>
        <pt x="695" y="-12" on="1"/>
        <pt x="708" y="-44" on="0"/>
        <pt x="723" y="-126" on="0"/>
        <pt x="723" y="-179" on="1"/>
        <pt x="723" y="-260" on="0"/>
        <pt x="681" y="-369" on="0"/>
        <pt x="609" y="-435" on="0"/>
        <pt x="514" y="-463" on="0"/>
        <pt x="460" y="-463" on="1"/>
        <pt x="440" y="-463" on="0"/>
        <pt x="396" y="-458" on="0"/>
        <pt x="355" y="-451" on="0"/>
        <pt x="322" y="-440" on="0"/>
        <pt x="314" y="-434" on="1"/>
        <pt x="334" y="-319" on="1"/>
      </contour>
    </TTGlyph>
    <TTGlyph name="Ccircumflex" xMin="107" yMin="-15" xMax="1161" yMax="2000">
      <component glyphName="C" x="0" y="0" flags="0x204"/>
      <component glyphName="circumflex.cap" x="429" y="0" flags="0x4"/>
    </TTGlyph>
    <TTGlyph name="Cdotaccent" xMin="107" yMin="-15" xMax="1147" yMax="1920">
      <component glyphName="dotaccent.cap" x="672" y="0" flags="0x4"/>
      <component glyphName="C" x="0" y="0" flags="0x4"/>
    </TTGlyph>
    <TTGlyph name="D" xMin="121" yMin="-19" xMax="1300" yMax="1546">
      <contour>
        <pt x="314" y="1530" on="1"/>
        <pt x="401" y="1530" on="1"/>
        <pt x="437" y="1530" on="0"/>
        <pt x="518" y="1535" on="0"/>
        <pt x="602" y="1541" on="0"/>
        <pt x="684" y="1546" on="0"/>
        <pt x="722" y="1546" on="1"/>
        <pt x="875" y="1546" on="0"/>
        <pt x="1091" y="1455" on="0"/>
        <pt x="1230" y="1291" on="0"/>
        <pt x="1296" y="1061" on="0"/>
        <pt x="1298" y="922" on="1"/>
        <pt x="1300" y="790" on="0"/>
        <pt x="1251" y="546" on="0"/>
        <pt x="1157" y="336" on="0"/>
        <pt x="1020" y="164" on="0"/>
        <pt x="847" y="44" on="0"/>
        <pt x="639" y="-19" on="0"/>
        <pt x="522" y="-16" on="1"/>
        <pt x="511" y="-16" on="0"/>
        <pt x="482" y="-14" on="0"/>
        <pt x="451" y="-12" on="0"/>
        <pt x="421" y="-10" on="0"/>
        <pt x="409" y="-9" on="1"/>
        <pt x="392" y="-8" on="0"/>
        <pt x="338" y="-4" on="0"/>
        <pt x="278" y="-2" on="0"/>
        <pt x="219" y="0" on="0"/>
        <pt x="198" y="0" on="1"/>
        <pt x="121" y="0" on="1"/>
      </contour>
      <contour>
        <pt x="287" y="125" on="1"/>
        <pt x="317" y="120" on="0"/>
        <pt x="386" y="110" on="0"/>
        <pt x="457" y="102" on="0"/>
        <pt x="527" y="98" on="0"/>
        <pt x="558" y="99" on="1"/>
        <pt x="656" y="101" on="0"/>
        <pt x="819" y="168" on="0"/>
        <pt x="950" y="281" on="0"/>
        <pt x="1047" y="435" on="0"/>
        <pt x="1112" y="613" on="0"/>
        <pt x="1143" y="810" on="0"/>
        <pt x="1142" y="910" on="1"/>
        <pt x="1140" y="1046" on="0"/>
        <pt x="1088" y="1244" on="0"/>
        <pt x="977" y="1373" on="0"/>
        <pt x="803" y="1434" on="0"/>
        <pt x="679" y="1434" on="1"/>
        <pt x="653" y="1434" on="0"/>
        <pt x="593" y="1431" on="0"/>
        <pt x="531" y="1425" on="0"/>
        <pt x="473" y="1418" on="0"/>
        <pt x="449" y="1415" on="1"/>
      </contour>
    </TTGlyph>
    <TTGlyph name="Dcaron" xMin="121" yMin="-19" xMax="1300" yMax="2000">
      <component glyphName="caron.cap" x="405" y="0" flags="0x4"/>
      <component glyphName="D" x="0" y="0" flags="0x4"/>
    </TTGlyph>
    <TTGlyph name="Dcroat" xMin="53" yMin="-18" xMax="1300" yMax="1547">
      <contour>
        <pt x="65" y="833" on="1"/>
        <pt x="804" y="833" on="1"/>
        <pt x="792" y="733" on="1"/>
        <pt x="53" y="733" on="1"/>
      </contour>
      <contour>
        <pt x="314" y="1531" on="1"/>
        <pt x="401" y="1531" on="1"/>
        <pt x="437" y="1531" on="0"/>
        <pt x="518" y="1536" on="0"/>
        <pt x="602" y="1542" on="0"/>
        <pt x="684" y="1547" on="0"/>
        <pt x="722" y="1547" on="1"/>
        <pt x="875" y="1547" on="0"/>
        <pt x="1091" y="1456" on="0"/>
        <pt x="1230" y="1292" on="0"/>
        <pt x="1296" y="1062" on="0"/>
        <pt x="1298" y="923" on="1"/>
        <pt x="1300" y="791" on="0"/>
        <pt x="1251" y="547" on="0"/>
        <pt x="1157" y="337" on="0"/>
        <pt x="1020" y="165" on="0"/>
        <pt x="847" y="45" on="0"/>
        <pt x="639" y="-18" on="0"/>
        <pt x="522" y="-15" on="1"/>
        <pt x="511" y="-15" on="0"/>
        <pt x="482" y="-13" on="0"/>
        <pt x="451" y="-11" on="0"/>
        <pt x="421" y="-9" on="0"/>
        <pt x="409" y="-8" on="1"/>
        <pt x="392" y="-7" on="0"/>
        <pt x="338" y="-3" on="0"/>
        <pt x="278" y="-1" on="0"/>
        <pt x="219" y="1" on="0"/>
        <pt x="198" y="1" on="1"/>
        <pt x="121" y="1" on="1"/>
      </contour>
      <contour>
        <pt x="287" y="126" on="1"/>
        <pt x="317" y="121" on="0"/>
        <pt x="386" y="111" on="0"/>
        <pt x="457" y="103" on="0"/>
        <pt x="527" y="99" on="0"/>
        <pt x="558" y="100" on="1"/>
        <pt x="656" y="102" on="0"/>
        <pt x="819" y="169" on="0"/>
        <pt x="950" y="282" on="0"/>
        <pt x="1047" y="436" on="0"/>
        <pt x="1112" y="614" on="0"/>
        <pt x="1143" y="811" on="0"/>
        <pt x="1142" y="911" on="1"/>
        <pt x="1140" y="1047" on="0"/>
        <pt x="1088" y="1245" on="0"/>
        <pt x="977" y="1374" on="0"/>
        <pt x="803" y="1435" on="0"/>
        <pt x="679" y="1435" on="1"/>
        <pt x="653" y="1435" on="0"/>
        <pt x="593" y="1432" on="0"/>
        <pt x="531" y="1426" on="0"/>
        <pt x="473" y="1419" on="0"/>
        <pt x="449" y="1416" on="1"/>
      </contour>
    </TTGlyph>
    <TTGlyph name="Delta" xMin="-20" yMin="0" xMax="1319" yMax="1508">
      <contour>
        <pt x="-20" y="22" on="1"/>
        <pt x="733" y="1508" on="1"/>
        <pt x="763" y="1508" on="1"/>
        <pt x="1319" y="26" on="1"/>
        <pt x="1302" y="0" on="1"/>
        <pt x="-8" y="0" on="1"/>
      </contour>
      <contour>
        <pt x="1108" y="130" on="1"/>
        <pt x="731" y="1184" on="1"/>
        <pt x="218" y="130" on="1"/>
      </contour>
    </TTGlyph>
    <TTGlyph name="E" xMin="121" yMin="0" xMax="1070" yMax="1530">
      <contour>
        <pt x="314" y="1530" on="1"/>
        <pt x="1070" y="1530" on="1"/>
        <pt x="1064" y="1410" on="1"/>
        <pt x="450" y="1417" on="1"/>
        <pt x="377" y="838" on="1"/>
        <pt x="851" y="844" on="1"/>
        <pt x="842" y="717" on="1"/>
        <pt x="363" y="728" on="1"/>
        <pt x="285" y="114" on="1"/>
        <pt x="1022" y="127" on="1"/>
        <pt x="1011" y="0" on="1"/>
        <pt x="121" y="0" on="1"/>
      </contour>
    </TTGlyph>
    <TTGlyph name="Eacute" xMin="121" yMin="0" xMax="1070" yMax="2000">
      <component glyphName="acute.cap" x="577" y="0" flags="0x4"/>
      <component glyphName="E" x="0" y="0" flags="0x4"/>
    </TTGlyph>
    <TTGlyph name="Ebreve" xMin="121" yMin="0" xMax="1070" yMax="1980">
      <component glyphName="breve.cap" x="372" y="0" flags="0x4"/>
      <component glyphName="E" x="0" y="0" flags="0x4"/>
    </TTGlyph>
    <TTGlyph name="Ecaron" xMin="121" yMin="0" xMax="1088" yMax="2000">
      <component glyphName="caron.cap" x="343" y="0" flags="0x4"/>
      <component glyphName="E" x="0" y="0" flags="0x4"/>
    </TTGlyph>
    <TTGlyph name="Ecircumflex" xMin="121" yMin="0" xMax="1070" yMax="2000">
      <component glyphName="E" x="0" y="0" flags="0x204"/>
      <component glyphName="circumflex.cap" x="329" y="0" flags="0x4"/>
    </TTGlyph>
    <TTGlyph name="Edieresis" xMin="121" yMin="0" xMax="1070" yMax="1935">
      <component glyphName="dieresis.cap" x="333" y="0" flags="0x4"/>
      <component glyphName="E" x="0" y="0" flags="0x4"/>
    </TTGlyph>
    <TTGlyph name="Edotaccent" xMin="121" yMin="0" xMax="1070" yMax="1920">
      <component glyphName="dotaccent.cap" x="571" y="0" flags="0x4"/>
      <component glyphName="E" x="0" y="0" flags="0x4"/>
    </TTGlyph>
    <TTGlyph name="Egrave" xMin="121" yMin="0" xMax="1070" yMax="2000">
      <component glyphName="grave.cap" x="376" y="0" flags="0x4"/>
      <component glyphName="E" x="0" y="0" flags="0x4"/>
    </TTGlyph>
    <TTGlyph name="Emacron" xMin="121" yMin="0" xMax="1070" yMax="1862">
      <component glyphName="macron.cap" x="399" y="0" flags="0x4"/>
      <component glyphName="E" x="0" y="0" flags="0x4"/>
    </TTGlyph>
    <TTGlyph name="Eng" xMin="121" yMin="-315" xMax="1333" yMax="1530">
      <contour>
        <pt x="314" y="1530" on="1"/>
        <pt x="472" y="1530" on="1"/>
        <pt x="963" y="403" on="1"/>
        <pt x="1035" y="196" on="1"/>
        <pt x="1056" y="434" on="1"/>
        <pt x="1190" y="1530" on="1"/>
        <pt x="1333" y="1530" on="1"/>
        <pt x="1140" y="0" on="1"/>
        <pt x="1137" y="0" on="1"/>
        <pt x="1111" y="-72" on="0"/>
        <pt x="1024" y="-179" on="0"/>
        <pt x="910" y="-254" on="0"/>
        <pt x="775" y="-302" on="0"/>
        <pt x="701" y="-315" on="1"/>
        <pt x="673" y="-247" on="1"/>
        <pt x="731" y="-231" on="0"/>
        <pt x="830" y="-178" on="0"/>
        <pt x="910" y="-111" on="0"/>
        <pt x="969" y="-32" on="0"/>
        <pt x="986" y="11" on="1"/>
        <pt x="497" y="1122" on="1"/>
        <pt x="425" y="1361" on="1"/>
        <pt x="396" y="1073" on="1"/>
        <pt x="262" y="0" on="1"/>
        <pt x="121" y="0" on="1"/>
      </contour>
    </TTGlyph>
    <TTGlyph name="Eogonek" xMin="121" yMin="-436" xMax="1070" yMax="1530">
      <contour>
        <pt x="314" y="1530" on="1"/>
        <pt x="1070" y="1530" on="1"/>
        <pt x="1064" y="1410" on="1"/>
        <pt x="450" y="1417" on="1"/>
        <pt x="377" y="838" on="1"/>
        <pt x="851" y="844" on="1"/>
        <pt x="842" y="717" on="1"/>
        <pt x="363" y="728" on="1"/>
        <pt x="285" y="114" on="1"/>
        <pt x="1022" y="127" on="1"/>
        <pt x="1011" y="0" on="1"/>
        <pt x="947" y="0" on="1"/>
        <pt x="917" y="-20" on="0"/>
        <pt x="835" y="-74" on="0"/>
        <pt x="760" y="-137" on="0"/>
        <pt x="708" y="-207" on="0"/>
        <pt x="708" y="-242" on="1"/>
        <pt x="708" y="-281" on="0"/>
        <pt x="758" y="-322" on="0"/>
        <pt x="796" y="-322" on="1"/>
        <pt x="880" y="-322" on="0"/>
        <pt x="955" y="-264" on="1"/>
        <pt x="994" y="-342" on="1"/>
        <pt x="977" y="-356" on="0"/>
        <pt x="929" y="-389" on="0"/>
        <pt x="867" y="-417" on="0"/>
        <pt x="791" y="-436" on="0"/>
        <pt x="748" y="-436" on="1"/>
        <pt x="697" y="-436" on="0"/>
        <pt x="625" y="-406" on="0"/>
        <pt x="580" y="-361" on="0"/>
        <pt x="560" y="-309" on="0"/>
        <pt x="560" y="-287" on="1"/>
        <pt x="560" y="-235" on="0"/>
        <pt x="617" y="-147" on="0"/>
        <pt x="699" y="-74" on="0"/>
        <pt x="789" y="-19" on="0"/>
        <pt x="823" y="0" on="1"/>
        <pt x="121" y="0" on="1"/>
      </contour>
    </TTGlyph>
    <TTGlyph name="Eth" xMin="52" yMin="-18" xMax="1300" yMax="1547">
      <contour>
        <pt x="64" y="833" on="1"/>
        <pt x="803" y="833" on="1"/>
        <pt x="791" y="733" on="1"/>
        <pt x="52" y="733" on="1"/>
      </contour>
      <contour>
        <pt x="314" y="1531" on="1"/>
        <pt x="401" y="1531" on="1"/>
        <pt x="437" y="1531" on="0"/>
        <pt x="518" y="1536" on="0"/>
        <pt x="602" y="1542" on="0"/>
        <pt x="684" y="1547" on="0"/>
        <pt x="722" y="1547" on="1"/>
        <pt x="875" y="1547" on="0"/>
        <pt x="1091" y="1456" on="0"/>
        <pt x="1230" y="1292" on="0"/>
        <pt x="1296" y="1062" on="0"/>
        <pt x="1298" y="923" on="1"/>
        <pt x="1300" y="791" on="0"/>
        <pt x="1251" y="547" on="0"/>
        <pt x="1157" y="337" on="0"/>
        <pt x="1020" y="165" on="0"/>
        <pt x="847" y="45" on="0"/>
        <pt x="639" y="-18" on="0"/>
        <pt x="522" y="-15" on="1"/>
        <pt x="511" y="-15" on="0"/>
        <pt x="482" y="-13" on="0"/>
        <pt x="451" y="-11" on="0"/>
        <pt x="421" y="-9" on="0"/>
        <pt x="409" y="-8" on="1"/>
        <pt x="392" y="-7" on="0"/>
        <pt x="338" y="-3" on="0"/>
        <pt x="278" y="-1" on="0"/>
        <pt x="219" y="1" on="0"/>
        <pt x="198" y="1" on="1"/>
        <pt x="121" y="1" on="1"/>
      </contour>
      <contour>
        <pt x="287" y="126" on="1"/>
        <pt x="317" y="121" on="0"/>
        <pt x="386" y="111" on="0"/>
        <pt x="457" y="103" on="0"/>
        <pt x="527" y="99" on="0"/>
        <pt x="558" y="100" on="1"/>
        <pt x="656" y="102" on="0"/>
        <pt x="819" y="169" on="0"/>
        <pt x="950" y="282" on="0"/>
        <pt x="1047" y="436" on="0"/>
        <pt x="1112" y="614" on="0"/>
        <pt x="1143" y="811" on="0"/>
        <pt x="1142" y="911" on="1"/>
        <pt x="1140" y="1047" on="0"/>
        <pt x="1088" y="1245" on="0"/>
        <pt x="977" y="1374" on="0"/>
        <pt x="803" y="1435" on="0"/>
        <pt x="679" y="1435" on="1"/>
        <pt x="653" y="1435" on="0"/>
        <pt x="593" y="1432" on="0"/>
        <pt x="531" y="1426" on="0"/>
        <pt x="473" y="1419" on="0"/>
        <pt x="449" y="1416" on="1"/>
      </contour>
    </TTGlyph>
    <TTGlyph name="Euro" xMin="26" yMin="-16" xMax="1244" yMax="1546">
      <contour>
        <pt x="42" y="670" on="1"/>
        <pt x="234" y="670" on="1"/>
        <pt x="236" y="802" on="0"/>
        <pt x="261" y="917" on="1"/>
        <pt x="75" y="917" on="1"/>
        <pt x="91" y="1025" on="1"/>
        <pt x="289" y="1025" on="1"/>
        <pt x="328" y="1146" on="0"/>
        <pt x="457" y="1340" on="0"/>
        <pt x="624" y="1474" on="0"/>
        <pt x="824" y="1546" on="0"/>
        <pt x="935" y="1546" on="1"/>
        <pt x="990" y="1546" on="0"/>
        <pt x="1081" y="1536" on="0"/>
        <pt x="1156" y="1520" on="0"/>
        <pt x="1217" y="1501" on="0"/>
        <pt x="1244" y="1492" on="1"/>
        <pt x="1195" y="1371" on="1"/>
        <pt x="1181" y="1381" on="0"/>
        <pt x="1129" y="1402" on="0"/>
        <pt x="1053" y="1420" on="0"/>
        <pt x="954" y="1432" on="0"/>
        <pt x="894" y="1432" on="1"/>
        <pt x="810" y="1432" on="0"/>
        <pt x="669" y="1375" on="0"/>
        <pt x="557" y="1268" on="0"/>
        <pt x="473" y="1118" on="0"/>
        <pt x="445" y="1025" on="1"/>
        <pt x="1028" y="1025" on="1"/>
        <pt x="1013" y="917" on="1"/>
        <pt x="419" y="917" on="1"/>
        <pt x="408" y="859" on="0"/>
        <pt x="396" y="736" on="0"/>
        <pt x="394" y="670" on="1"/>
        <pt x="979" y="670" on="1"/>
        <pt x="964" y="562" on="1"/>
        <pt x="395" y="562" on="1"/>
        <pt x="400" y="461" on="0"/>
        <pt x="443" y="290" on="0"/>
        <pt x="524" y="166" on="0"/>
        <pt x="644" y="97" on="0"/>
        <pt x="727" y="97" on="1"/>
        <pt x="792" y="97" on="0"/>
        <pt x="901" y="117" on="0"/>
        <pt x="992" y="150" on="0"/>
        <pt x="1067" y="192" on="0"/>
        <pt x="1099" y="215" on="1"/>
        <pt x="1142" y="111" on="1"/>
        <pt x="1118" y="84" on="0"/>
        <pt x="1032" y="38" on="0"/>
        <pt x="918" y="3" on="0"/>
        <pt x="780" y="-16" on="0"/>
        <pt x="705" y="-16" on="1"/>
        <pt x="627" y="-16" on="0"/>
        <pt x="500" y="29" on="0"/>
        <pt x="400" y="110" on="0"/>
        <pt x="325" y="219" on="0"/>
        <pt x="273" y="348" on="0"/>
        <pt x="242" y="490" on="0"/>
        <pt x="237" y="562" on="1"/>
        <pt x="26" y="562" on="1"/>
      </contour>
    </TTGlyph>
    <TTGlyph name="F" xMin="121" yMin="0" xMax="1093" yMax="1530">
      <contour>
        <pt x="314" y="1530" on="1"/>
        <pt x="1093" y="1530" on="1"/>
        <pt x="1082" y="1410" on="1"/>
        <pt x="450" y="1417" on="1"/>
        <pt x="377" y="835" on="1"/>
        <pt x="885" y="843" on="1"/>
        <pt x="875" y="713" on="1"/>
        <pt x="363" y="725" on="1"/>
        <pt x="271" y="0" on="1"/>
        <pt x="121" y="0" on="1"/>
      </contour>
    </TTGlyph>
    <TTGlyph name="G" xMin="109" yMin="-17" xMax="1247" yMax="1546">
      <contour>
        <pt x="616" y="-17" on="1"/>
        <pt x="526" y="-17" on="0"/>
        <pt x="382" y="35" on="0"/>
        <pt x="271" y="127" on="0"/>
        <pt x="191" y="251" on="0"/>
        <pt x="139" y="394" on="0"/>
        <pt x="113" y="549" on="0"/>
        <pt x="112" y="627" on="1"/>
        <pt x="109" y="764" on="0"/>
        <pt x="159" y="1007" on="0"/>
        <pt x="253" y="1211" on="0"/>
        <pt x="386" y="1373" on="0"/>
        <pt x="551" y="1486" on="0"/>
        <pt x="741" y="1546" on="0"/>
        <pt x="845" y="1546" on="1"/>
        <pt x="914" y="1546" on="0"/>
        <pt x="1026" y="1535" on="0"/>
        <pt x="1115" y="1518" on="0"/>
        <pt x="1183" y="1499" on="0"/>
        <pt x="1208" y="1491" on="1"/>
        <pt x="1247" y="1479" on="1"/>
        <pt x="1199" y="1342" on="1"/>
        <pt x="1177" y="1355" on="0"/>
        <pt x="1111" y="1384" on="0"/>
        <pt x="1023" y="1408" on="0"/>
        <pt x="911" y="1424" on="0"/>
        <pt x="843" y="1424" on="1"/>
        <pt x="745" y="1424" on="0"/>
        <pt x="583" y="1360" on="0"/>
        <pt x="454" y="1248" on="0"/>
        <pt x="358" y="1098" on="0"/>
        <pt x="295" y="924" on="0"/>
        <pt x="264" y="737" on="0"/>
        <pt x="265" y="644" on="1"/>
        <pt x="266" y="544" on="0"/>
        <pt x="306" y="350" on="0"/>
        <pt x="396" y="196" on="0"/>
        <pt x="539" y="101" on="0"/>
        <pt x="643" y="101" on="1"/>
        <pt x="686" y="101" on="0"/>
        <pt x="780" y="115" on="0"/>
        <pt x="877" y="139" on="0"/>
        <pt x="971" y="170" on="0"/>
        <pt x="1014" y="186" on="1"/>
        <pt x="1068" y="607" on="1"/>
        <pt x="787" y="608" on="1"/>
        <pt x="802" y="729" on="1"/>
        <pt x="1232" y="729" on="1"/>
        <pt x="1150" y="94" on="1"/>
        <pt x="1121" y="91" on="0"/>
        <pt x="1054" y="73" on="0"/>
        <pt x="1013" y="61" on="1"/>
        <pt x="975" y="50" on="0"/>
        <pt x="886" y="23" on="0"/>
        <pt x="786" y="-1" on="0"/>
        <pt x="675" y="-17" on="0"/>
      </contour>
    </TTGlyph>
    <TTGlyph name="Gbreve" xMin="109" yMin="-17" xMax="1247" yMax="1980">
      <component glyphName="breve.cap" x="504" y="0" flags="0x4"/>
      <component glyphName="G" x="0" y="0" flags="0x4"/>
    </TTGlyph>
    <TTGlyph name="Gcaron" xMin="109" yMin="-17" xMax="1247" yMax="2000">
      <component glyphName="G" x="0" y="0" flags="0x204"/>
      <component glyphName="caron.cap" x="475" y="0" flags="0x4"/>
    </TTGlyph>
    <TTGlyph name="Gcircumflex" xMin="109" yMin="-17" xMax="1247" yMax="2000">
      <component glyphName="G" x="0" y="0" flags="0x204"/>
      <component glyphName="circumflex.cap" x="461" y="0" flags="0x4"/>
    </TTGlyph>
    <TTGlyph name="Gcommaaccent" xMin="109" yMin="-560" xMax="1247" yMax="1546">
      <component glyphName="commaaccent" x="495" y="0" flags="0x4"/>
      <component glyphName="G" x="0" y="0" flags="0x4"/>
    </TTGlyph>
    <TTGlyph name="Gdotaccent" xMin="109" yMin="-17" xMax="1247" yMax="1920">
      <component glyphName="dotaccent.cap" x="703" y="0" flags="0x4"/>
      <component glyphName="G" x="0" y="0" flags="0x4"/>
    </TTGlyph>
    <TTGlyph name="Gtilde" xMin="109" yMin="-17" xMax="1248" yMax="1964">
      <component glyphName="G" x="0" y="0" flags="0x204"/>
      <component glyphName="tilde.cap" x="454" y="0" flags="0x4"/>
    </TTGlyph>
    <TTGlyph name="H" xMin="121" yMin="0" xMax="1340" yMax="1530">
      <contour>
        <pt x="314" y="1530" on="1"/>
        <pt x="464" y="1530" on="1"/>
        <pt x="375" y="829" on="1"/>
        <pt x="1101" y="829" on="1"/>
        <pt x="1190" y="1530" on="1"/>
        <pt x="1340" y="1530" on="1"/>
        <pt x="1148" y="0" on="1"/>
        <pt x="997" y="0" on="1"/>
        <pt x="1087" y="714" on="1"/>
        <pt x="361" y="714" on="1"/>
        <pt x="271" y="0" on="1"/>
        <pt x="121" y="0" on="1"/>
      </contour>
    </TTGlyph>
    <TTGlyph name="Hbar" xMin="56" yMin="0" xMax="1516" yMax="1530">
      <contour>
        <pt x="251" y="1036" on="1"/>
        <pt x="56" y="1036" on="1"/>
        <pt x="67" y="1151" on="1"/>
        <pt x="266" y="1151" on="1"/>
        <pt x="314" y="1530" on="1"/>
        <pt x="464" y="1530" on="1"/>
        <pt x="416" y="1151" on="1"/>
        <pt x="1142" y="1151" on="1"/>
        <pt x="1190" y="1530" on="1"/>
        <pt x="1340" y="1530" on="1"/>
        <pt x="1292" y="1151" on="1"/>
        <pt x="1516" y="1151" on="1"/>
        <pt x="1505" y="1036" on="1"/>
        <pt x="1278" y="1036" on="1"/>
        <pt x="1148" y="0" on="1"/>
        <pt x="997" y="0" on="1"/>
        <pt x="1074" y="610" on="1"/>
        <pt x="348" y="610" on="1"/>
        <pt x="271" y="0" on="1"/>
        <pt x="121" y="0" on="1"/>
      </contour>
      <contour>
        <pt x="1088" y="725" on="1"/>
        <pt x="1127" y="1036" on="1"/>
        <pt x="401" y="1036" on="1"/>
        <pt x="362" y="725" on="1"/>
      </contour>
    </TTGlyph>
    <TTGlyph name="Hcircumflex" xMin="121" yMin="0" xMax="1340" yMax="2000">
      <component glyphName="H" x="0" y="0" flags="0x204"/>
      <component glyphName="circumflex.cap" x="451" y="0" flags="0x4"/>
    </TTGlyph>
    <TTGlyph name="I" xMin="145" yMin="0" xMax="489" yMax="1530">
      <contour>
        <pt x="338" y="1530" on="1"/>
        <pt x="489" y="1530" on="1"/>
        <pt x="296" y="0" on="1"/>
        <pt x="145" y="0" on="1"/>
      </contour>
    </TTGlyph>
    <TTGlyph name="I.uc" xMin="145" yMin="0" xMax="574" yMax="1920">
      <component glyphName="I" x="0" y="0" flags="0x204"/>
      <component glyphName="dotaccent.cap" x="312" y="0" flags="0x4"/>
    </TTGlyph>
    <TTGlyph name="IJ" xMin="145" yMin="-323" xMax="1073" yMax="1530">
      <component glyphName="I" x="0" y="0" flags="0x4"/>
      <component glyphName="J" x="572" y="0" flags="0x4"/>
    </TTGlyph>
    <TTGlyph name="IJ_acutecomb" xMin="145" yMin="-323" xMax="1317" yMax="2000">
      <contour>
        <pt x="377" y="1654" on="1"/>
        <pt x="655" y="2000" on="1"/>
        <pt x="750" y="1903" on="1"/>
        <pt x="727" y="1864" on="0"/>
        <pt x="649" y="1777" on="0"/>
        <pt x="561" y="1695" on="0"/>
        <pt x="470" y="1625" on="0"/>
        <pt x="434" y="1603" on="1"/>
      </contour>
      <contour>
        <pt x="403" y="-255" on="1"/>
        <pt x="476" y="-235" on="0"/>
        <pt x="590" y="-162" on="0"/>
        <pt x="673" y="-70" on="0"/>
        <pt x="725" y="34" on="0"/>
        <pt x="736" y="85" on="1"/>
        <pt x="756" y="182" on="0"/>
        <pt x="793" y="411" on="0"/>
        <pt x="826" y="659" on="0"/>
        <pt x="856" y="920" on="0"/>
        <pt x="883" y="1176" on="0"/>
        <pt x="909" y="1421" on="0"/>
        <pt x="922" y="1530" on="1"/>
        <pt x="1073" y="1530" on="1"/>
        <pt x="1055" y="1362" on="0"/>
        <pt x="1017" y="1029" on="0"/>
        <pt x="979" y="722" on="0"/>
        <pt x="944" y="451" on="0"/>
        <pt x="913" y="240" on="0"/>
        <pt x="889" y="99" on="0"/>
        <pt x="882" y="75" on="1"/>
        <pt x="851" y="-28" on="0"/>
        <pt x="759" y="-168" on="0"/>
        <pt x="643" y="-259" on="0"/>
        <pt x="506" y="-310" on="0"/>
        <pt x="431" y="-323" on="1"/>
      </contour>
      <contour>
        <pt x="338" y="1530" on="1"/>
        <pt x="489" y="1530" on="1"/>
        <pt x="296" y="0" on="1"/>
        <pt x="145" y="0" on="1"/>
      </contour>
      <contour>
        <pt x="944" y="1650" on="1"/>
        <pt x="1222" y="1996" on="1"/>
        <pt x="1317" y="1899" on="1"/>
        <pt x="1294" y="1860" on="0"/>
        <pt x="1216" y="1773" on="0"/>
        <pt x="1128" y="1691" on="0"/>
        <pt x="1037" y="1621" on="0"/>
        <pt x="1001" y="1599" on="1"/>
      </contour>
    </TTGlyph>
    <TTGlyph name="Iacute" xMin="145" yMin="0" xMax="750" yMax="2000">
      <component glyphName="I" x="0" y="0" flags="0x204"/>
      <component glyphName="acute.cap" x="295" y="0" flags="0x4"/>
    </TTGlyph>
    <TTGlyph name="Ibreve" xMin="142" yMin="0" xMax="774" yMax="1980">
      <component glyphName="I" x="0" y="0" flags="0x204"/>
      <component glyphName="breve.cap" x="90" y="0" flags="0x4"/>
    </TTGlyph>
    <TTGlyph name="Icircumflex" xMin="98" yMin="0" xMax="779" yMax="2000">
      <component glyphName="I" x="0" y="0" flags="0x204"/>
      <component glyphName="circumflex.cap" x="47" y="0" flags="0x4"/>
    </TTGlyph>
    <TTGlyph name="Idieresis" xMin="137" yMin="0" xMax="764" yMax="1935">
      <component glyphName="I" x="0" y="0" flags="0x204"/>
      <component glyphName="dieresis.cap" x="52" y="0" flags="0x4"/>
    </TTGlyph>
    <TTGlyph name="Idotaccent" xMin="145" yMin="0" xMax="552" yMax="1920">
      <component glyphName="I" x="0" y="0" flags="0x204"/>
      <component glyphName="dotaccent.cap" x="290" y="0" flags="0x4"/>
    </TTGlyph>
    <TTGlyph name="Igrave" xMin="145" yMin="0" xMax="513" yMax="2000">
      <component glyphName="I" x="0" y="0" flags="0x204"/>
      <component glyphName="grave.cap" x="94" y="0" flags="0x4"/>
    </TTGlyph>
    <TTGlyph name="Imacron" xMin="145" yMin="0" xMax="675" yMax="1862">
      <component glyphName="I" x="0" y="0" flags="0x204"/>
      <component glyphName="macron.cap" x="117" y="0" flags="0x4"/>
    </TTGlyph>
    <TTGlyph name="Iogonek" xMin="-122" yMin="-436" xMax="489" yMax="1530">
      <contour>
        <pt x="338" y="1530" on="1"/>
        <pt x="489" y="1530" on="1"/>
        <pt x="296" y="0" on="1"/>
        <pt x="265" y="0" on="1"/>
        <pt x="235" y="-20" on="0"/>
        <pt x="153" y="-74" on="0"/>
        <pt x="78" y="-137" on="0"/>
        <pt x="26" y="-207" on="0"/>
        <pt x="26" y="-242" on="1"/>
        <pt x="26" y="-281" on="0"/>
        <pt x="76" y="-322" on="0"/>
        <pt x="114" y="-322" on="1"/>
        <pt x="197" y="-322" on="0"/>
        <pt x="272" y="-264" on="1"/>
        <pt x="312" y="-342" on="1"/>
        <pt x="295" y="-356" on="0"/>
        <pt x="246" y="-389" on="0"/>
        <pt x="184" y="-417" on="0"/>
        <pt x="108" y="-436" on="0"/>
        <pt x="65" y="-436" on="1"/>
        <pt x="14" y="-436" on="0"/>
        <pt x="-58" y="-406" on="0"/>
        <pt x="-102" y="-361" on="0"/>
        <pt x="-122" y="-309" on="0"/>
        <pt x="-122" y="-287" on="1"/>
        <pt x="-122" y="-235" on="0"/>
        <pt x="-64" y="-145" on="0"/>
        <pt x="20" y="-72" on="0"/>
        <pt x="112" y="-16" on="0"/>
        <pt x="145" y="2" on="1"/>
      </contour>
    </TTGlyph>
    <TTGlyph name="Itilde" xMin="71" yMin="0" xMax="835" yMax="1964">
      <component glyphName="I" x="0" y="0" flags="0x204"/>
      <component glyphName="tilde.cap" x="41" y="0" flags="0x4"/>
    </TTGlyph>
    <TTGlyph name="J" xMin="-169" yMin="-323" xMax="501" yMax="1530">
      <contour>
        <pt x="164" y="85" on="1"/>
        <pt x="184" y="182" on="0"/>
        <pt x="221" y="411" on="0"/>
        <pt x="254" y="659" on="0"/>
        <pt x="284" y="920" on="0"/>
        <pt x="311" y="1176" on="0"/>
        <pt x="337" y="1421" on="0"/>
        <pt x="350" y="1530" on="1"/>
        <pt x="501" y="1530" on="1"/>
        <pt x="483" y="1362" on="0"/>
        <pt x="445" y="1029" on="0"/>
        <pt x="407" y="722" on="0"/>
        <pt x="372" y="451" on="0"/>
        <pt x="341" y="240" on="0"/>
        <pt x="317" y="99" on="0"/>
        <pt x="310" y="75" on="1"/>
        <pt x="279" y="-28" on="0"/>
        <pt x="187" y="-168" on="0"/>
        <pt x="71" y="-259" on="0"/>
        <pt x="-66" y="-310" on="0"/>
        <pt x="-141" y="-323" on="1"/>
        <pt x="-169" y="-255" on="1"/>
        <pt x="-96" y="-235" on="0"/>
        <pt x="18" y="-162" on="0"/>
        <pt x="101" y="-70" on="0"/>
        <pt x="153" y="34" on="0"/>
      </contour>
    </TTGlyph>
    <TTGlyph name="Jcircumflex" xMin="-169" yMin="-323" xMax="789" yMax="2000">
      <component glyphName="J" x="0" y="0" flags="0x204"/>
      <component glyphName="circumflex.cap" x="57" y="0" flags="0x4"/>
    </TTGlyph>
    <TTGlyph name="K" xMin="121" yMin="0" xMax="1283" yMax="1530">
      <contour>
        <pt x="314" y="1530" on="1"/>
        <pt x="464" y="1530" on="1"/>
        <pt x="359" y="702" on="1"/>
        <pt x="1105" y="1530" on="1"/>
        <pt x="1283" y="1530" on="1"/>
        <pt x="661" y="854" on="1"/>
        <pt x="695" y="799" on="0"/>
        <pt x="767" y="675" on="0"/>
        <pt x="842" y="543" on="0"/>
        <pt x="917" y="409" on="0"/>
        <pt x="954" y="345" on="1"/>
        <pt x="1015" y="238" on="0"/>
        <pt x="1117" y="63" on="0"/>
        <pt x="1163" y="0" on="1"/>
        <pt x="982" y="0" on="1"/>
        <pt x="974" y="8" on="0"/>
        <pt x="939" y="69" on="0"/>
        <pt x="888" y="161" on="0"/>
        <pt x="825" y="279" on="0"/>
        <pt x="789" y="344" on="1"/>
        <pt x="758" y="401" on="0"/>
        <pt x="695" y="516" on="0"/>
        <pt x="636" y="623" on="0"/>
        <pt x="584" y="715" on="0"/>
        <pt x="564" y="749" on="1"/>
        <pt x="333" y="497" on="1"/>
        <pt x="271" y="0" on="1"/>
        <pt x="121" y="0" on="1"/>
      </contour>
    </TTGlyph>
    <TTGlyph name="Kcommaaccent" xMin="121" yMin="-558" xMax="1283" yMax="1530">
      <component glyphName="commaaccent" x="480" y="2" flags="0x4"/>
      <component glyphName="K" x="0" y="0" flags="0x4"/>
    </TTGlyph>
    <TTGlyph name="L" xMin="121" yMin="0" xMax="880" yMax="1530">
      <contour>
        <pt x="314" y="1530" on="1"/>
        <pt x="464" y="1530" on="1"/>
        <pt x="287" y="126" on="1"/>
        <pt x="880" y="130" on="1"/>
        <pt x="864" y="0" on="1"/>
        <pt x="121" y="0" on="1"/>
      </contour>
    </TTGlyph>
    <TTGlyph name="Lacute" xMin="121" yMin="0" xMax="880" yMax="2002">
      <component glyphName="acute.cap" x="300" y="2" flags="0x4"/>
      <component glyphName="L" x="0" y="0" flags="0x4"/>
    </TTGlyph>
    <TTGlyph name="Lcaron" xMin="121" yMin="0" xMax="1005" yMax="1617">
      <component glyphName="L" x="0" y="0" flags="0x204"/>
      <component glyphName="caronvertical" x="596" y="-63" flags="0x4"/>
    </TTGlyph>
    <TTGlyph name="Lcommaaccent" xMin="121" yMin="-558" xMax="880" yMax="1530">
      <component glyphName="commaaccent" x="379" y="2" flags="0x4"/>
      <component glyphName="L" x="0" y="0" flags="0x4"/>
    </TTGlyph>
    <TTGlyph name="Ldot" xMin="121" yMin="0" xMax="1007" yMax="1530">
      <component glyphName="L" x="0" y="0" flags="0x4"/>
      <component glyphName="period" x="695" y="789" flags="0x4"/>
    </TTGlyph>
    <TTGlyph name="Lslash" xMin="-29" yMin="1" xMax="880" yMax="1531">
      <contour>
        <pt x="195" y="593" on="1"/>
        <pt x="-1" y="510" on="1"/>
        <pt x="-29" y="601" on="1"/>
        <pt x="209" y="704" on="1"/>
        <pt x="314" y="1531" on="1"/>
        <pt x="464" y="1531" on="1"/>
        <pt x="368" y="772" on="1"/>
        <pt x="796" y="957" on="1"/>
        <pt x="823" y="859" on="1"/>
        <pt x="354" y="660" on="1"/>
        <pt x="287" y="127" on="1"/>
        <pt x="880" y="131" on="1"/>
        <pt x="864" y="1" on="1"/>
        <pt x="121" y="1" on="1"/>
      </contour>
    </TTGlyph>
    <TTGlyph name="M" xMin="72" yMin="-18" xMax="1620" yMax="1530">
      <contour>
        <pt x="452" y="1530" on="1"/>
        <pt x="646" y="1530" on="1"/>
        <pt x="819" y="462" on="1"/>
        <pt x="850" y="226" on="1"/>
        <pt x="942" y="460" on="1"/>
        <pt x="1402" y="1530" on="1"/>
        <pt x="1620" y="1530" on="1"/>
        <pt x="1576" y="0" on="1"/>
        <pt x="1423" y="0" on="1"/>
        <pt x="1472" y="1022" on="1"/>
        <pt x="1496" y="1431" on="1"/>
        <pt x="1338" y="1070" on="1"/>
        <pt x="872" y="-4" on="1"/>
        <pt x="765" y="-18" on="1"/>
        <pt x="595" y="1045" on="1"/>
        <pt x="545" y="1431" on="1"/>
        <pt x="468" y="1037" on="1"/>
        <pt x="225" y="0" on="1"/>
        <pt x="72" y="0" on="1"/>
      </contour>
    </TTGlyph>
    <TTGlyph name="N" xMin="121" yMin="0" xMax="1333" yMax="1530">
      <contour>
        <pt x="314" y="1530" on="1"/>
        <pt x="472" y="1530" on="1"/>
        <pt x="963" y="403" on="1"/>
        <pt x="1035" y="196" on="1"/>
        <pt x="1056" y="434" on="1"/>
        <pt x="1190" y="1530" on="1"/>
        <pt x="1333" y="1530" on="1"/>
        <pt x="1140" y="0" on="1"/>
        <pt x="991" y="0" on="1"/>
        <pt x="497" y="1122" on="1"/>
        <pt x="425" y="1361" on="1"/>
        <pt x="396" y="1073" on="1"/>
        <pt x="262" y="0" on="1"/>
        <pt x="121" y="0" on="1"/>
      </contour>
    </TTGlyph>
    <TTGlyph name="Nacute" xMin="121" yMin="0" xMax="1333" yMax="2000">
      <component glyphName="acute.cap" x="723" y="0" flags="0x4"/>
      <component glyphName="N" x="0" y="0" flags="0x4"/>
    </TTGlyph>
    <TTGlyph name="Ncaron" xMin="121" yMin="0" xMax="1333" yMax="2000">
      <component glyphName="caron.cap" x="489" y="0" flags="0x4"/>
      <component glyphName="N" x="0" y="0" flags="0x4"/>
    </TTGlyph>
    <TTGlyph name="Ncommaaccent" xMin="121" yMin="-560" xMax="1333" yMax="1530">
      <component glyphName="commaaccent" x="481" y="0" flags="0x4"/>
      <component glyphName="N" x="0" y="0" flags="0x4"/>
    </TTGlyph>
    <TTGlyph name="Ntilde" xMin="121" yMin="0" xMax="1333" yMax="1964">
      <component glyphName="tilde.cap" x="468" y="0" flags="0x4"/>
      <component glyphName="N" x="0" y="0" flags="0x4"/>
    </TTGlyph>
    <TTGlyph name="O" xMin="109" yMin="-17" xMax="1302" yMax="1547">
      <contour>
        <pt x="605" y="-17" on="1"/>
        <pt x="486" y="-17" on="0"/>
        <pt x="304" y="79" on="0"/>
        <pt x="180" y="248" on="0"/>
        <pt x="115" y="479" on="0"/>
        <pt x="112" y="613" on="1"/>
        <pt x="109" y="746" on="0"/>
        <pt x="155" y="987" on="0"/>
        <pt x="244" y="1195" on="0"/>
        <pt x="371" y="1363" on="0"/>
        <pt x="528" y="1482" on="0"/>
        <pt x="712" y="1547" on="0"/>
        <pt x="813" y="1547" on="1"/>
        <pt x="933" y="1547" on="0"/>
        <pt x="1114" y="1447" on="0"/>
        <pt x="1235" y="1275" on="0"/>
        <pt x="1298" y="1046" on="0"/>
        <pt x="1300" y="916" on="1"/>
        <pt x="1302" y="786" on="0"/>
        <pt x="1259" y="546" on="0"/>
        <pt x="1173" y="339" on="0"/>
        <pt x="1049" y="169" on="0"/>
        <pt x="893" y="49" on="0"/>
        <pt x="708" y="-17" on="0"/>
      </contour>
      <contour>
        <pt x="629" y="99" on="1"/>
        <pt x="706" y="99" on="0"/>
        <pt x="843" y="156" on="0"/>
        <pt x="958" y="260" on="0"/>
        <pt x="1050" y="405" on="0"/>
        <pt x="1113" y="580" on="0"/>
        <pt x="1145" y="781" on="0"/>
        <pt x="1143" y="888" on="1"/>
        <pt x="1138" y="1152" on="0"/>
        <pt x="964" y="1427" on="0"/>
        <pt x="789" y="1427" on="1"/>
        <pt x="712" y="1427" on="0"/>
        <pt x="575" y="1369" on="0"/>
        <pt x="459" y="1264" on="0"/>
        <pt x="365" y="1119" on="0"/>
        <pt x="301" y="945" on="0"/>
        <pt x="267" y="747" on="0"/>
        <pt x="269" y="643" on="1"/>
        <pt x="273" y="368" on="0"/>
        <pt x="459" y="99" on="0"/>
      </contour>
    </TTGlyph>
    <TTGlyph name="OE" xMin="109" yMin="-17" xMax="2058" yMax="1547">
      <contour>
        <pt x="610" y="-17" on="1"/>
        <pt x="490" y="-17" on="0"/>
        <pt x="306" y="79" on="0"/>
        <pt x="181" y="248" on="0"/>
        <pt x="115" y="479" on="0"/>
        <pt x="112" y="613" on="1"/>
        <pt x="109" y="746" on="0"/>
        <pt x="156" y="987" on="0"/>
        <pt x="245" y="1195" on="0"/>
        <pt x="373" y="1363" on="0"/>
        <pt x="531" y="1482" on="0"/>
        <pt x="716" y="1547" on="0"/>
        <pt x="818" y="1547" on="1"/>
        <pt x="906" y="1547" on="0"/>
        <pt x="1049" y="1493" on="0"/>
        <pt x="1158" y="1396" on="0"/>
        <pt x="1235" y="1262" on="0"/>
        <pt x="1258" y="1181" on="1"/>
        <pt x="1302" y="1530" on="1"/>
        <pt x="2058" y="1530" on="1"/>
        <pt x="2052" y="1410" on="1"/>
        <pt x="1438" y="1417" on="1"/>
        <pt x="1365" y="838" on="1"/>
        <pt x="1839" y="844" on="1"/>
        <pt x="1830" y="717" on="1"/>
        <pt x="1351" y="728" on="1"/>
        <pt x="1273" y="114" on="1"/>
        <pt x="2010" y="127" on="1"/>
        <pt x="1999" y="0" on="1"/>
        <pt x="1109" y="0" on="1"/>
        <pt x="1148" y="309" on="1"/>
        <pt x="1103" y="234" on="0"/>
        <pt x="988" y="113" on="0"/>
        <pt x="852" y="28" on="0"/>
        <pt x="696" y="-17" on="0"/>
      </contour>
      <contour>
        <pt x="634" y="99" on="1"/>
        <pt x="712" y="99" on="0"/>
        <pt x="850" y="156" on="0"/>
        <pt x="967" y="260" on="0"/>
        <pt x="1060" y="405" on="0"/>
        <pt x="1123" y="580" on="0"/>
        <pt x="1156" y="781" on="0"/>
        <pt x="1154" y="888" on="1"/>
        <pt x="1149" y="1152" on="0"/>
        <pt x="974" y="1427" on="0"/>
        <pt x="794" y="1427" on="1"/>
        <pt x="678" y="1427" on="0"/>
        <pt x="483" y="1300" on="0"/>
        <pt x="343" y="1084" on="0"/>
        <pt x="267" y="800" on="0"/>
        <pt x="269" y="643" on="1"/>
        <pt x="273" y="368" on="0"/>
        <pt x="459" y="99" on="0"/>
      </contour>
    </TTGlyph>
    <TTGlyph name="Oacute" xMin="109" yMin="-17" xMax="1302" yMax="2000">
      <component glyphName="acute.cap" x="699" y="0" flags="0x4"/>
      <component glyphName="O" x="0" y="0" flags="0x4"/>
    </TTGlyph>
    <TTGlyph name="Obreve" xMin="109" yMin="-17" xMax="1302" yMax="1980">
      <component glyphName="breve.cap" x="493" y="0" flags="0x4"/>
      <component glyphName="O" x="0" y="0" flags="0x4"/>
    </TTGlyph>
    <TTGlyph name="Ocircumflex" xMin="109" yMin="-17" xMax="1302" yMax="2000">
      <component glyphName="O" x="0" y="0" flags="0x204"/>
      <component glyphName="circumflex.cap" x="451" y="0" flags="0x4"/>
    </TTGlyph>
    <TTGlyph name="Odieresis" xMin="109" yMin="-17" xMax="1302" yMax="1935">
      <component glyphName="dieresis.cap" x="455" y="0" flags="0x4"/>
      <component glyphName="O" x="0" y="0" flags="0x4"/>
    </TTGlyph>
    <TTGlyph name="Ograve" xMin="109" yMin="-17" xMax="1302" yMax="2000">
      <component glyphName="grave.cap" x="498" y="0" flags="0x4"/>
      <component glyphName="O" x="0" y="0" flags="0x4"/>
    </TTGlyph>
    <TTGlyph name="Ohungarumlaut" xMin="109" yMin="-17" xMax="1386" yMax="1996">
      <component glyphName="O" x="0" y="0" flags="0x204"/>
      <component glyphName="hungarumlaut.cap" x="499" y="0" flags="0x4"/>
    </TTGlyph>
    <TTGlyph name="Omacron" xMin="109" yMin="-17" xMax="1302" yMax="1862">
      <component glyphName="macron.cap" x="521" y="0" flags="0x4"/>
      <component glyphName="O" x="0" y="0" flags="0x4"/>
    </TTGlyph>
    <TTGlyph name="Omega" xMin="72" yMin="0" xMax="1531" yMax="1546">
      <contour>
        <pt x="86" y="116" on="1"/>
        <pt x="480" y="116" on="1"/>
        <pt x="425" y="155" on="0"/>
        <pt x="309" y="294" on="0"/>
        <pt x="213" y="470" on="0"/>
        <pt x="152" y="672" on="0"/>
        <pt x="152" y="773" on="1"/>
        <pt x="152" y="964" on="0"/>
        <pt x="265" y="1254" on="0"/>
        <pt x="463" y="1448" on="0"/>
        <pt x="733" y="1546" on="0"/>
        <pt x="891" y="1546" on="1"/>
        <pt x="1024" y="1546" on="0"/>
        <pt x="1258" y="1458" on="0"/>
        <pt x="1431" y="1295" on="0"/>
        <pt x="1531" y="1066" on="0"/>
        <pt x="1531" y="925" on="1"/>
        <pt x="1531" y="859" on="0"/>
        <pt x="1500" y="712" on="0"/>
        <pt x="1444" y="562" on="0"/>
        <pt x="1366" y="414" on="0"/>
        <pt x="1269" y="280" on="0"/>
        <pt x="1157" y="165" on="0"/>
        <pt x="1096" y="123" on="1"/>
        <pt x="1511" y="123" on="1"/>
        <pt x="1501" y="0" on="1"/>
        <pt x="923" y="0" on="1"/>
        <pt x="907" y="107" on="1"/>
        <pt x="994" y="155" on="0"/>
        <pt x="1164" y="322" on="0"/>
        <pt x="1298" y="536" on="0"/>
        <pt x="1380" y="783" on="0"/>
        <pt x="1380" y="911" on="1"/>
        <pt x="1380" y="1045" on="0"/>
        <pt x="1292" y="1240" on="0"/>
        <pt x="1150" y="1366" on="0"/>
        <pt x="970" y="1427" on="0"/>
        <pt x="877" y="1427" on="1"/>
        <pt x="756" y="1427" on="0"/>
        <pt x="545" y="1344" on="0"/>
        <pt x="389" y="1179" on="0"/>
        <pt x="300" y="932" on="0"/>
        <pt x="300" y="769" on="1"/>
        <pt x="300" y="692" on="0"/>
        <pt x="331" y="546" on="0"/>
        <pt x="383" y="413" on="0"/>
        <pt x="451" y="295" on="0"/>
        <pt x="527" y="200" on="0"/>
        <pt x="604" y="128" on="0"/>
        <pt x="640" y="107" on="1"/>
        <pt x="609" y="0" on="1"/>
        <pt x="72" y="0" on="1"/>
      </contour>
    </TTGlyph>
    <TTGlyph name="Oslash" xMin="55" yMin="-122" xMax="1312" yMax="1659">
      <contour>
        <pt x="233" y="178" on="1"/>
        <pt x="175" y="262" on="0"/>
        <pt x="114" y="484" on="0"/>
        <pt x="112" y="614" on="1"/>
        <pt x="109" y="747" on="0"/>
        <pt x="155" y="988" on="0"/>
        <pt x="244" y="1196" on="0"/>
        <pt x="371" y="1364" on="0"/>
        <pt x="528" y="1483" on="0"/>
        <pt x="712" y="1548" on="0"/>
        <pt x="813" y="1548" on="1"/>
        <pt x="901" y="1548" on="0"/>
        <pt x="1042" y="1494" on="0"/>
        <pt x="1098" y="1446" on="1"/>
        <pt x="1242" y="1659" on="1"/>
        <pt x="1312" y="1621" on="1"/>
        <pt x="1154" y="1389" on="1"/>
        <pt x="1225" y="1301" on="0"/>
        <pt x="1298" y="1058" on="0"/>
        <pt x="1300" y="917" on="1"/>
        <pt x="1302" y="787" on="0"/>
        <pt x="1259" y="547" on="0"/>
        <pt x="1173" y="340" on="0"/>
        <pt x="1049" y="170" on="0"/>
        <pt x="893" y="50" on="0"/>
        <pt x="708" y="-16" on="0"/>
        <pt x="605" y="-16" on="1"/>
        <pt x="505" y="-16" on="0"/>
        <pt x="345" y="52" on="0"/>
        <pt x="285" y="114" on="1"/>
        <pt x="125" y="-122" on="1"/>
        <pt x="55" y="-83" on="1"/>
      </contour>
      <contour>
        <pt x="1015" y="1336" on="1"/>
        <pt x="931" y="1428" on="0"/>
        <pt x="789" y="1428" on="1"/>
        <pt x="712" y="1428" on="0"/>
        <pt x="575" y="1370" on="0"/>
        <pt x="459" y="1265" on="0"/>
        <pt x="365" y="1120" on="0"/>
        <pt x="301" y="946" on="0"/>
        <pt x="267" y="748" on="0"/>
        <pt x="269" y="644" on="1"/>
        <pt x="272" y="434" on="0"/>
        <pt x="328" y="304" on="1"/>
      </contour>
      <contour>
        <pt x="372" y="226" on="1"/>
        <pt x="463" y="100" on="0"/>
        <pt x="629" y="100" on="1"/>
        <pt x="706" y="100" on="0"/>
        <pt x="843" y="157" on="0"/>
        <pt x="958" y="261" on="0"/>
        <pt x="1050" y="406" on="0"/>
        <pt x="1113" y="581" on="0"/>
        <pt x="1145" y="782" on="0"/>
        <pt x="1143" y="889" on="1"/>
        <pt x="1138" y="1132" on="0"/>
        <pt x="1065" y="1267" on="1"/>
      </contour>
    </TTGlyph>
    <TTGlyph name="Oslashacute" xMin="55" yMin="-122" xMax="1312" yMax="2000">
      <component glyphName="Oslash" x="0" y="0" flags="0x204"/>
      <component glyphName="acute.cap" x="659" y="0" flags="0x4"/>
    </TTGlyph>
    <TTGlyph name="Otilde" xMin="109" yMin="-17" xMax="1302" yMax="1964">
      <component glyphName="tilde.cap" x="444" y="0" flags="0x4"/>
      <component glyphName="O" x="0" y="0" flags="0x4"/>
    </TTGlyph>
    <TTGlyph name="P" xMin="121" yMin="0" xMax="1169" yMax="1546">
      <contour>
        <pt x="314" y="1530" on="1"/>
        <pt x="402" y="1530" on="1"/>
        <pt x="443" y="1530" on="0"/>
        <pt x="519" y="1535" on="0"/>
        <pt x="593" y="1541" on="0"/>
        <pt x="668" y="1546" on="0"/>
        <pt x="709" y="1546" on="1"/>
        <pt x="926" y="1546" on="0"/>
        <pt x="1163" y="1356" on="0"/>
        <pt x="1166" y="1157" on="1"/>
        <pt x="1169" y="1010" on="0"/>
        <pt x="1080" y="776" on="0"/>
        <pt x="916" y="613" on="0"/>
        <pt x="688" y="526" on="0"/>
        <pt x="552" y="526" on="1"/>
        <pt x="517" y="526" on="0"/>
        <pt x="451" y="529" on="0"/>
        <pt x="394" y="534" on="0"/>
        <pt x="351" y="538" on="0"/>
        <pt x="340" y="540" on="1"/>
        <pt x="271" y="0" on="1"/>
        <pt x="121" y="0" on="1"/>
      </contour>
      <contour>
        <pt x="355" y="662" on="1"/>
        <pt x="370" y="659" on="0"/>
        <pt x="420" y="653" on="0"/>
        <pt x="476" y="648" on="0"/>
        <pt x="533" y="645" on="0"/>
        <pt x="557" y="645" on="1"/>
        <pt x="781" y="646" on="0"/>
        <pt x="1011" y="904" on="0"/>
        <pt x="1014" y="1143" on="1"/>
        <pt x="1015" y="1285" on="0"/>
        <pt x="852" y="1433" on="0"/>
        <pt x="686" y="1433" on="1"/>
        <pt x="662" y="1433" on="0"/>
        <pt x="602" y="1429" on="0"/>
        <pt x="538" y="1423" on="0"/>
        <pt x="475" y="1416" on="0"/>
        <pt x="449" y="1413" on="1"/>
      </contour>
    </TTGlyph>
    <TTGlyph name="Q" xMin="109" yMin="-359" xMax="1303" yMax="1547">
      <contour>
        <pt x="578" y="-16" on="1"/>
        <pt x="465" y="-10" on="0"/>
        <pt x="294" y="90" on="0"/>
        <pt x="177" y="258" on="0"/>
        <pt x="115" y="482" on="0"/>
        <pt x="112" y="613" on="1"/>
        <pt x="109" y="746" on="0"/>
        <pt x="155" y="987" on="0"/>
        <pt x="244" y="1195" on="0"/>
        <pt x="371" y="1363" on="0"/>
        <pt x="528" y="1482" on="0"/>
        <pt x="712" y="1547" on="0"/>
        <pt x="813" y="1547" on="1"/>
        <pt x="933" y="1547" on="0"/>
        <pt x="1114" y="1447" on="0"/>
        <pt x="1235" y="1275" on="0"/>
        <pt x="1298" y="1046" on="0"/>
        <pt x="1300" y="916" on="1"/>
        <pt x="1303" y="734" on="0"/>
        <pt x="1216" y="413" on="0"/>
        <pt x="1054" y="165" on="0"/>
        <pt x="825" y="8" on="0"/>
        <pt x="686" y="-11" on="1"/>
        <pt x="686" y="-78" on="0"/>
        <pt x="743" y="-160" on="0"/>
        <pt x="832" y="-205" on="0"/>
        <pt x="943" y="-220" on="0"/>
        <pt x="999" y="-220" on="1"/>
        <pt x="1022" y="-220" on="0"/>
        <pt x="1079" y="-216" on="0"/>
        <pt x="1137" y="-207" on="0"/>
        <pt x="1194" y="-194" on="0"/>
        <pt x="1217" y="-185" on="1"/>
        <pt x="1217" y="-302" on="1"/>
        <pt x="1197" y="-316" on="0"/>
        <pt x="1128" y="-337" on="0"/>
        <pt x="1045" y="-351" on="0"/>
        <pt x="954" y="-359" on="0"/>
        <pt x="912" y="-359" on="1"/>
        <pt x="841" y="-359" on="0"/>
        <pt x="712" y="-317" on="0"/>
        <pt x="616" y="-232" on="0"/>
        <pt x="567" y="-103" on="0"/>
      </contour>
      <contour>
        <pt x="629" y="99" on="1"/>
        <pt x="706" y="99" on="0"/>
        <pt x="843" y="156" on="0"/>
        <pt x="958" y="260" on="0"/>
        <pt x="1050" y="405" on="0"/>
        <pt x="1113" y="580" on="0"/>
        <pt x="1145" y="781" on="0"/>
        <pt x="1143" y="888" on="1"/>
        <pt x="1138" y="1152" on="0"/>
        <pt x="964" y="1427" on="0"/>
        <pt x="789" y="1427" on="1"/>
        <pt x="712" y="1427" on="0"/>
        <pt x="575" y="1369" on="0"/>
        <pt x="459" y="1264" on="0"/>
        <pt x="365" y="1119" on="0"/>
        <pt x="301" y="945" on="0"/>
        <pt x="267" y="747" on="0"/>
        <pt x="269" y="643" on="1"/>
        <pt x="273" y="368" on="0"/>
        <pt x="459" y="99" on="0"/>
      </contour>
    </TTGlyph>
    <TTGlyph name="R" xMin="120" yMin="-1" xMax="1171" yMax="1546">
      <contour>
        <pt x="312" y="1530" on="1"/>
        <pt x="388" y="1530" on="1"/>
        <pt x="430" y="1530" on="0"/>
        <pt x="505" y="1535" on="0"/>
        <pt x="579" y="1541" on="0"/>
        <pt x="655" y="1546" on="0"/>
        <pt x="698" y="1546" on="1"/>
        <pt x="925" y="1546" on="0"/>
        <pt x="1166" y="1368" on="0"/>
        <pt x="1169" y="1194" on="1"/>
        <pt x="1171" y="1099" on="0"/>
        <pt x="1121" y="932" on="0"/>
        <pt x="1024" y="797" on="0"/>
        <pt x="886" y="701" on="0"/>
        <pt x="799" y="678" on="1"/>
        <pt x="816" y="663" on="0"/>
        <pt x="853" y="611" on="0"/>
        <pt x="889" y="549" on="0"/>
        <pt x="924" y="481" on="0"/>
        <pt x="954" y="415" on="0"/>
        <pt x="978" y="357" on="0"/>
        <pt x="986" y="337" on="1"/>
        <pt x="1020" y="257" on="0"/>
        <pt x="1069" y="144" on="0"/>
        <pt x="1105" y="65" on="0"/>
        <pt x="1132" y="15" on="0"/>
        <pt x="1144" y="-1" on="1"/>
        <pt x="972" y="1" on="1"/>
        <pt x="964" y="13" on="0"/>
        <pt x="944" y="52" on="0"/>
        <pt x="917" y="112" on="0"/>
        <pt x="882" y="198" on="0"/>
        <pt x="859" y="258" on="1"/>
        <pt x="834" y="328" on="0"/>
        <pt x="777" y="470" on="0"/>
        <pt x="715" y="584" on="0"/>
        <pt x="649" y="655" on="0"/>
        <pt x="615" y="656" on="1"/>
        <pt x="608" y="656" on="0"/>
        <pt x="545" y="656" on="0"/>
        <pt x="464" y="657" on="0"/>
        <pt x="380" y="658" on="0"/>
        <pt x="353" y="658" on="1"/>
        <pt x="271" y="0" on="1"/>
        <pt x="120" y="0" on="1"/>
      </contour>
      <contour>
        <pt x="368" y="779" on="1"/>
        <pt x="389" y="778" on="0"/>
        <pt x="465" y="777" on="0"/>
        <pt x="546" y="777" on="0"/>
        <pt x="619" y="777" on="0"/>
        <pt x="636" y="777" on="1"/>
        <pt x="724" y="777" on="0"/>
        <pt x="863" y="838" on="0"/>
        <pt x="959" y="947" on="0"/>
        <pt x="1008" y="1097" on="0"/>
        <pt x="1006" y="1187" on="1"/>
        <pt x="1004" y="1309" on="0"/>
        <pt x="838" y="1430" on="0"/>
        <pt x="677" y="1430" on="1"/>
        <pt x="658" y="1430" on="0"/>
        <pt x="596" y="1427" on="0"/>
        <pt x="529" y="1422" on="0"/>
        <pt x="467" y="1416" on="0"/>
        <pt x="448" y="1414" on="1"/>
      </contour>
    </TTGlyph>
    <TTGlyph name="Racute" xMin="120" yMin="-1" xMax="1171" yMax="2000">
      <component glyphName="R" x="0" y="0" flags="0x204"/>
      <component glyphName="acute.cap" x="624" y="0" flags="0x4"/>
    </TTGlyph>
    <TTGlyph name="Rcaron" xMin="120" yMin="-1" xMax="1171" yMax="2000">
      <component glyphName="caron.cap" x="390" y="0" flags="0x4"/>
      <component glyphName="R" x="0" y="0" flags="0x4"/>
    </TTGlyph>
    <TTGlyph name="Rcommaaccent" xMin="120" yMin="-560" xMax="1171" yMax="1546">
      <component glyphName="commaaccent" x="463" y="0" flags="0x4"/>
      <component glyphName="R" x="0" y="0" flags="0x4"/>
    </TTGlyph>
    <TTGlyph name="S" xMin="29" yMin="-16" xMax="991" yMax="1547">
      <contour>
        <pt x="71" y="196" on="1"/>
        <pt x="85" y="181" on="0"/>
        <pt x="153" y="148" on="0"/>
        <pt x="245" y="120" on="0"/>
        <pt x="353" y="102" on="0"/>
        <pt x="407" y="102" on="1"/>
        <pt x="476" y="102" on="0"/>
        <pt x="605" y="133" on="0"/>
        <pt x="705" y="199" on="0"/>
        <pt x="765" y="302" on="0"/>
        <pt x="765" y="374" on="1"/>
        <pt x="765" y="426" on="0"/>
        <pt x="733" y="514" on="0"/>
        <pt x="671" y="592" on="0"/>
        <pt x="580" y="665" on="0"/>
        <pt x="522" y="703" on="1"/>
        <pt x="466" y="739" on="0"/>
        <pt x="349" y="823" on="0"/>
        <pt x="252" y="930" on="0"/>
        <pt x="188" y="1065" on="0"/>
        <pt x="187" y="1151" on="1"/>
        <pt x="185" y="1245" on="0"/>
        <pt x="254" y="1392" on="0"/>
        <pt x="377" y="1494" on="0"/>
        <pt x="546" y="1547" on="0"/>
        <pt x="645" y="1547" on="1"/>
        <pt x="719" y="1547" on="0"/>
        <pt x="832" y="1530" on="0"/>
        <pt x="916" y="1504" on="0"/>
        <pt x="973" y="1475" on="0"/>
        <pt x="991" y="1462" on="1"/>
        <pt x="943" y="1346" on="1"/>
        <pt x="922" y="1367" on="0"/>
        <pt x="857" y="1399" on="0"/>
        <pt x="780" y="1420" on="0"/>
        <pt x="695" y="1431" on="0"/>
        <pt x="655" y="1431" on="1"/>
        <pt x="609" y="1431" on="0"/>
        <pt x="500" y="1412" on="0"/>
        <pt x="405" y="1360" on="0"/>
        <pt x="340" y="1265" on="0"/>
        <pt x="338" y="1190" on="1"/>
        <pt x="336" y="1122" on="0"/>
        <pt x="375" y="1020" on="0"/>
        <pt x="448" y="937" on="0"/>
        <pt x="550" y="863" on="0"/>
        <pt x="611" y="823" on="1"/>
        <pt x="664" y="788" on="0"/>
        <pt x="774" y="709" on="0"/>
        <pt x="863" y="611" on="0"/>
        <pt x="920" y="489" on="0"/>
        <pt x="922" y="411" on="1"/>
        <pt x="924" y="305" on="0"/>
        <pt x="846" y="145" on="0"/>
        <pt x="706" y="38" on="0"/>
        <pt x="515" y="-16" on="0"/>
        <pt x="404" y="-16" on="1"/>
        <pt x="340" y="-16" on="0"/>
        <pt x="220" y="1" on="0"/>
        <pt x="119" y="28" on="0"/>
        <pt x="46" y="59" on="0"/>
        <pt x="29" y="73" on="1"/>
      </contour>
    </TTGlyph>
    <TTGlyph name="Sacute" xMin="29" yMin="-16" xMax="1002" yMax="2000">
      <component glyphName="S" x="0" y="0" flags="0x204"/>
      <component glyphName="acute.cap" x="547" y="0" flags="0x4"/>
    </TTGlyph>
    <TTGlyph name="Scaron" xMin="29" yMin="-16" xMax="1059" yMax="2000">
      <component glyphName="S" x="0" y="0" flags="0x204"/>
      <component glyphName="caron.cap" x="314" y="0" flags="0x4"/>
    </TTGlyph>
    <TTGlyph name="Scircumflex" xMin="29" yMin="-16" xMax="1031" yMax="2000">
      <component glyphName="S" x="0" y="0" flags="0x204"/>
      <component glyphName="circumflex.cap" x="299" y="0" flags="0x4"/>
    </TTGlyph>
    <TTGlyph name="T" xMin="138" yMin="0" xMax="1199" yMax="1530">
      <contour>
        <pt x="589" y="1419" on="1"/>
        <pt x="138" y="1410" on="1"/>
        <pt x="155" y="1530" on="1"/>
        <pt x="1199" y="1530" on="1"/>
        <pt x="1182" y="1410" on="1"/>
        <pt x="739" y="1419" on="1"/>
        <pt x="560" y="0" on="1"/>
        <pt x="410" y="0" on="1"/>
      </contour>
    </TTGlyph>
    <TTGlyph name="Tbar" xMin="138" yMin="0" xMax="1199" yMax="1530">
      <contour>
        <pt x="502" y="733" on="1"/>
        <pt x="219" y="733" on="1"/>
        <pt x="232" y="833" on="1"/>
        <pt x="515" y="833" on="1"/>
        <pt x="589" y="1419" on="1"/>
        <pt x="138" y="1410" on="1"/>
        <pt x="155" y="1530" on="1"/>
        <pt x="1199" y="1530" on="1"/>
        <pt x="1182" y="1410" on="1"/>
        <pt x="739" y="1419" on="1"/>
        <pt x="665" y="833" on="1"/>
        <pt x="974" y="833" on="1"/>
        <pt x="961" y="733" on="1"/>
        <pt x="652" y="733" on="1"/>
        <pt x="560" y="0" on="1"/>
        <pt x="410" y="0" on="1"/>
      </contour>
    </TTGlyph>
    <TTGlyph name="Tcaron" xMin="138" yMin="0" xMax="1199" yMax="2000">
      <component glyphName="caron.cap" x="360" y="0" flags="0x4"/>
      <component glyphName="T" x="0" y="0" flags="0x4"/>
    </TTGlyph>
    <TTGlyph name="Thorn" xMin="121" yMin="0" xMax="1128" yMax="1530">
      <contour>
        <pt x="314" y="1530" on="1"/>
        <pt x="464" y="1530" on="1"/>
        <pt x="431" y="1266" on="1"/>
        <pt x="486" y="1270" on="0"/>
        <pt x="614" y="1281" on="0"/>
        <pt x="676" y="1281" on="1"/>
        <pt x="896" y="1281" on="0"/>
        <pt x="1124" y="1083" on="0"/>
        <pt x="1126" y="887" on="1"/>
        <pt x="1128" y="748" on="0"/>
        <pt x="1039" y="525" on="0"/>
        <pt x="876" y="369" on="0"/>
        <pt x="648" y="286" on="0"/>
        <pt x="510" y="286" on="1"/>
        <pt x="429" y="286" on="0"/>
        <pt x="331" y="294" on="0"/>
        <pt x="308" y="297" on="1"/>
        <pt x="271" y="0" on="1"/>
        <pt x="121" y="0" on="1"/>
      </contour>
      <contour>
        <pt x="324" y="419" on="1"/>
        <pt x="339" y="416" on="0"/>
        <pt x="382" y="411" on="0"/>
        <pt x="433" y="407" on="0"/>
        <pt x="488" y="404" on="0"/>
        <pt x="515" y="404" on="1"/>
        <pt x="628" y="405" on="0"/>
        <pt x="798" y="469" on="0"/>
        <pt x="913" y="589" on="0"/>
        <pt x="972" y="763" on="0"/>
        <pt x="974" y="874" on="1"/>
        <pt x="975" y="941" on="0"/>
        <pt x="939" y="1049" on="0"/>
        <pt x="861" y="1126" on="0"/>
        <pt x="739" y="1167" on="0"/>
        <pt x="652" y="1167" on="1"/>
        <pt x="633" y="1167" on="0"/>
        <pt x="570" y="1163" on="0"/>
        <pt x="501" y="1157" on="0"/>
        <pt x="437" y="1150" on="0"/>
        <pt x="416" y="1147" on="1"/>
      </contour>
    </TTGlyph>
    <TTGlyph name="U" xMin="153" yMin="-17" xMax="1316" yMax="1530">
      <contour>
        <pt x="154" y="422" on="1"/>
        <pt x="153" y="461" on="0"/>
        <pt x="161" y="548" on="0"/>
        <pt x="166" y="593" on="1"/>
        <pt x="285" y="1530" on="1"/>
        <pt x="435" y="1530" on="1"/>
        <pt x="320" y="619" on="1"/>
        <pt x="307" y="511" on="0"/>
        <pt x="308" y="428" on="1"/>
        <pt x="309" y="353" on="0"/>
        <pt x="349" y="233" on="0"/>
        <pt x="427" y="150" on="0"/>
        <pt x="544" y="106" on="0"/>
        <pt x="623" y="106" on="1"/>
        <pt x="715" y="106" on="0"/>
        <pt x="859" y="163" on="0"/>
        <pt x="967" y="291" on="0"/>
        <pt x="1038" y="494" on="0"/>
        <pt x="1057" y="640" on="1"/>
        <pt x="1169" y="1530" on="1"/>
        <pt x="1316" y="1530" on="1"/>
        <pt x="1202" y="627" on="1"/>
        <pt x="1179" y="450" on="0"/>
        <pt x="1083" y="204" on="0"/>
        <pt x="934" y="51" on="0"/>
        <pt x="731" y="-17" on="0"/>
        <pt x="602" y="-17" on="1"/>
        <pt x="492" y="-17" on="0"/>
        <pt x="327" y="43" on="0"/>
        <pt x="214" y="155" on="0"/>
        <pt x="156" y="318" on="0"/>
      </contour>
    </TTGlyph>
    <TTGlyph name="Uacute" xMin="153" yMin="-17" xMax="1316" yMax="2000">
      <component glyphName="acute.cap" x="680" y="0" flags="0x4"/>
      <component glyphName="U" x="0" y="0" flags="0x4"/>
    </TTGlyph>
    <TTGlyph name="Ubreve" xMin="153" yMin="-17" xMax="1316" yMax="1980">
      <component glyphName="breve.cap" x="474" y="0" flags="0x4"/>
      <component glyphName="U" x="0" y="0" flags="0x4"/>
    </TTGlyph>
    <TTGlyph name="Ucircumflex" xMin="153" yMin="-17" xMax="1316" yMax="2000">
      <component glyphName="U" x="0" y="0" flags="0x204"/>
      <component glyphName="circumflex.cap" x="432" y="0" flags="0x4"/>
    </TTGlyph>
    <TTGlyph name="Udieresis" xMin="153" yMin="-17" xMax="1316" yMax="1935">
      <component glyphName="dieresis.cap" x="436" y="0" flags="0x4"/>
      <component glyphName="U" x="0" y="0" flags="0x4"/>
    </TTGlyph>
    <TTGlyph name="Ugrave" xMin="153" yMin="-17" xMax="1316" yMax="2000">
      <component glyphName="grave.cap" x="479" y="0" flags="0x4"/>
      <component glyphName="U" x="0" y="0" flags="0x4"/>
    </TTGlyph>
    <TTGlyph name="Uhungarumlaut" xMin="153" yMin="-17" xMax="1367" yMax="1996">
      <component glyphName="U" x="0" y="0" flags="0x204"/>
      <component glyphName="hungarumlaut.cap" x="480" y="0" flags="0x4"/>
    </TTGlyph>
    <TTGlyph name="Umacron" xMin="153" yMin="-17" xMax="1316" yMax="1862">
      <component glyphName="macron.cap" x="502" y="0" flags="0x4"/>
      <component glyphName="U" x="0" y="0" flags="0x4"/>
    </TTGlyph>
    <TTGlyph name="Uogonek" xMin="153" yMin="-435" xMax="1316" yMax="1530">
      <contour>
        <pt x="154" y="422" on="1"/>
        <pt x="153" y="461" on="0"/>
        <pt x="161" y="548" on="0"/>
        <pt x="166" y="593" on="1"/>
        <pt x="285" y="1530" on="1"/>
        <pt x="435" y="1530" on="1"/>
        <pt x="320" y="619" on="1"/>
        <pt x="307" y="511" on="0"/>
        <pt x="308" y="428" on="1"/>
        <pt x="309" y="353" on="0"/>
        <pt x="349" y="233" on="0"/>
        <pt x="427" y="150" on="0"/>
        <pt x="544" y="106" on="0"/>
        <pt x="623" y="106" on="1"/>
        <pt x="715" y="106" on="0"/>
        <pt x="859" y="163" on="0"/>
        <pt x="967" y="291" on="0"/>
        <pt x="1038" y="494" on="0"/>
        <pt x="1057" y="640" on="1"/>
        <pt x="1169" y="1530" on="1"/>
        <pt x="1316" y="1530" on="1"/>
        <pt x="1202" y="627" on="1"/>
        <pt x="1185" y="493" on="0"/>
        <pt x="1121" y="287" on="0"/>
        <pt x="1028" y="138" on="0"/>
        <pt x="904" y="41" on="0"/>
        <pt x="826" y="15" on="1"/>
        <pt x="790" y="-16" on="0"/>
        <pt x="715" y="-86" on="0"/>
        <pt x="652" y="-155" on="0"/>
        <pt x="612" y="-218" on="0"/>
        <pt x="612" y="-242" on="1"/>
        <pt x="612" y="-281" on="0"/>
        <pt x="661" y="-322" on="0"/>
        <pt x="699" y="-322" on="1"/>
        <pt x="741" y="-322" on="0"/>
        <pt x="821" y="-292" on="0"/>
        <pt x="858" y="-263" on="1"/>
        <pt x="897" y="-341" on="1"/>
        <pt x="880" y="-356" on="0"/>
        <pt x="832" y="-389" on="0"/>
        <pt x="770" y="-417" on="0"/>
        <pt x="694" y="-435" on="0"/>
        <pt x="651" y="-435" on="1"/>
        <pt x="600" y="-435" on="0"/>
        <pt x="528" y="-405" on="0"/>
        <pt x="483" y="-360" on="0"/>
        <pt x="463" y="-308" on="0"/>
        <pt x="463" y="-286" on="1"/>
        <pt x="463" y="-241" on="0"/>
        <pt x="515" y="-159" on="0"/>
        <pt x="590" y="-88" on="0"/>
        <pt x="676" y="-31" on="0"/>
        <pt x="711" y="-10" on="1"/>
        <pt x="685" y="-13" on="0"/>
        <pt x="631" y="-17" on="0"/>
        <pt x="602" y="-17" on="1"/>
        <pt x="492" y="-17" on="0"/>
        <pt x="327" y="43" on="0"/>
        <pt x="214" y="155" on="0"/>
        <pt x="156" y="318" on="0"/>
      </contour>
    </TTGlyph>
    <TTGlyph name="Uring" xMin="153" yMin="-17" xMax="1316" yMax="2000">
      <component glyphName="U" x="0" y="0" flags="0x204"/>
      <component glyphName="ring.cap" x="464" y="0" flags="0x4"/>
    </TTGlyph>
    <TTGlyph name="Utilde" xMin="153" yMin="-17" xMax="1316" yMax="1964">
      <component glyphName="tilde.cap" x="425" y="0" flags="0x4"/>
      <component glyphName="U" x="0" y="0" flags="0x4"/>
    </TTGlyph>
    <TTGlyph name="V" xMin="154" yMin="-5" xMax="1264" yMax="1530">
      <contour>
        <pt x="154" y="1530" on="1"/>
        <pt x="304" y="1530" on="1"/>
        <pt x="472" y="434" on="1"/>
        <pt x="511" y="152" on="1"/>
        <pt x="626" y="434" on="1"/>
        <pt x="1104" y="1530" on="1"/>
        <pt x="1264" y="1530" on="1"/>
        <pt x="569" y="-4" on="1"/>
        <pt x="408" y="-5" on="1"/>
      </contour>
    </TTGlyph>
    <TTGlyph name="W" xMin="149" yMin="-10" xMax="1867" yMax="1530">
      <contour>
        <pt x="149" y="1530" on="1"/>
        <pt x="299" y="1530" on="1"/>
        <pt x="445" y="434" on="1"/>
        <pt x="485" y="166" on="1"/>
        <pt x="571" y="425" on="1"/>
        <pt x="923" y="1304" on="1"/>
        <pt x="900" y="1530" on="1"/>
        <pt x="1044" y="1530" on="1"/>
        <pt x="1153" y="434" on="1"/>
        <pt x="1173" y="166" on="1"/>
        <pt x="1272" y="425" on="1"/>
        <pt x="1715" y="1530" on="1"/>
        <pt x="1867" y="1530" on="1"/>
        <pt x="1220" y="-10" on="1"/>
        <pt x="1066" y="-10" on="1"/>
        <pt x="977" y="850" on="1"/>
        <pt x="959" y="1086" on="1"/>
        <pt x="875" y="850" on="1"/>
        <pt x="535" y="-10" on="1"/>
        <pt x="380" y="-10" on="1"/>
      </contour>
    </TTGlyph>
    <TTGlyph name="Wacute" xMin="149" yMin="-10" xMax="1867" yMax="2000">
      <component glyphName="acute.cap" x="912" y="0" flags="0x4"/>
      <component glyphName="W" x="0" y="0" flags="0x4"/>
    </TTGlyph>
    <TTGlyph name="Wcircumflex" xMin="149" yMin="-10" xMax="1867" yMax="2000">
      <component glyphName="W" x="0" y="0" flags="0x204"/>
      <component glyphName="circumflex.cap" x="665" y="0" flags="0x4"/>
    </TTGlyph>
    <TTGlyph name="Wdieresis" xMin="149" yMin="-10" xMax="1867" yMax="1935">
      <component glyphName="dieresis.cap" x="669" y="0" flags="0x4"/>
      <component glyphName="W" x="0" y="0" flags="0x4"/>
    </TTGlyph>
    <TTGlyph name="Wgrave" xMin="149" yMin="-10" xMax="1867" yMax="2000">
      <component glyphName="grave.cap" x="712" y="0" flags="0x4"/>
      <component glyphName="W" x="0" y="0" flags="0x4"/>
    </TTGlyph>
    <TTGlyph name="X" xMin="-35" yMin="0" xMax="1212" yMax="1530">
      <contour>
        <pt x="520" y="788" on="1"/>
        <pt x="197" y="1530" on="1"/>
        <pt x="363" y="1530" on="1"/>
        <pt x="618" y="895" on="1"/>
        <pt x="1042" y="1530" on="1"/>
        <pt x="1212" y="1530" on="1"/>
        <pt x="676" y="758" on="1"/>
        <pt x="1024" y="0" on="1"/>
        <pt x="852" y="0" on="1"/>
        <pt x="578" y="656" on="1"/>
        <pt x="148" y="0" on="1"/>
        <pt x="-35" y="0" on="1"/>
      </contour>
    </TTGlyph>
    <TTGlyph name="Y" xMin="105" yMin="0" xMax="1213" yMax="1530">
      <contour>
        <pt x="478" y="585" on="1"/>
        <pt x="105" y="1530" on="1"/>
        <pt x="266" y="1530" on="1"/>
        <pt x="527" y="820" on="1"/>
        <pt x="568" y="717" on="1"/>
        <pt x="623" y="819" on="1"/>
        <pt x="1051" y="1530" on="1"/>
        <pt x="1213" y="1530" on="1"/>
        <pt x="621" y="585" on="1"/>
        <pt x="546" y="0" on="1"/>
        <pt x="402" y="0" on="1"/>
      </contour>
    </TTGlyph>
    <TTGlyph name="Yacute" xMin="105" yMin="0" xMax="1213" yMax="2000">
      <component glyphName="Y" x="0" y="0" flags="0x204"/>
      <component glyphName="acute.cap" x="547" y="0" flags="0x4"/>
    </TTGlyph>
    <TTGlyph name="Ycircumflex" xMin="105" yMin="0" xMax="1213" yMax="2000">
      <component glyphName="Y" x="0" y="0" flags="0x204"/>
      <component glyphName="circumflex.cap" x="299" y="0" flags="0x4"/>
    </TTGlyph>
    <TTGlyph name="Ydieresis" xMin="105" yMin="0" xMax="1213" yMax="1935">
      <component glyphName="Y" x="0" y="0" flags="0x204"/>
      <component glyphName="dieresis.cap" x="304" y="0" flags="0x4"/>
    </TTGlyph>
    <TTGlyph name="Ygrave" xMin="105" yMin="0" xMax="1213" yMax="2000">
      <component glyphName="Y" x="0" y="0" flags="0x204"/>
      <component glyphName="grave.cap" x="346" y="0" flags="0x4"/>
    </TTGlyph>
    <TTGlyph name="Z" xMin="15" yMin="0" xMax="1182" yMax="1530">
      <contour>
        <pt x="15" y="70" on="1"/>
        <pt x="837" y="1227" on="1"/>
        <pt x="988" y="1413" on="1"/>
        <pt x="244" y="1402" on="1"/>
        <pt x="260" y="1530" on="1"/>
        <pt x="1163" y="1530" on="1"/>
        <pt x="1182" y="1464" on="1"/>
        <pt x="339" y="269" on="1"/>
        <pt x="215" y="121" on="1"/>
        <pt x="1027" y="130" on="1"/>
        <pt x="1006" y="0" on="1"/>
        <pt x="36" y="0" on="1"/>
      </contour>
    </TTGlyph>
    <TTGlyph name="Zacute" xMin="15" yMin="0" xMax="1182" yMax="2000">
      <component glyphName="Z" x="0" y="0" flags="0x204"/>
      <component glyphName="acute.cap" x="614" y="0" flags="0x4"/>
    </TTGlyph>
    <TTGlyph name="Zcaron" xMin="15" yMin="0" xMax="1182" yMax="2000">
      <component glyphName="caron.cap" x="380" y="0" flags="0x4"/>
      <component glyphName="Z" x="0" y="0" flags="0x4"/>
    </TTGlyph>
    <TTGlyph name="Zdotaccent" xMin="15" yMin="0" xMax="1182" yMax="1920">
      <component glyphName="dotaccent.cap" x="608" y="0" flags="0x4"/>
      <component glyphName="Z" x="0" y="0" flags="0x4"/>
    </TTGlyph>
    <TTGlyph name="a" xMin="81" yMin="-16" xMax="1041" yMax="1156">
      <contour>
        <pt x="399" y="-16" on="1"/>
        <pt x="318" y="-16" on="0"/>
        <pt x="198" y="46" on="0"/>
        <pt x="119" y="160" on="0"/>
        <pt x="81" y="319" on="0"/>
        <pt x="81" y="415" on="1"/>
        <pt x="81" y="493" on="0"/>
        <pt x="114" y="664" on="0"/>
        <pt x="181" y="829" on="0"/>
        <pt x="284" y="977" on="0"/>
        <pt x="425" y="1090" on="0"/>
        <pt x="604" y="1156" on="0"/>
        <pt x="714" y="1156" on="1"/>
        <pt x="765" y="1156" on="0"/>
        <pt x="880" y="1134" on="0"/>
        <pt x="928" y="1119" on="1"/>
        <pt x="1041" y="1156" on="1"/>
        <pt x="884" y="0" on="1"/>
        <pt x="753" y="0" on="1"/>
        <pt x="772" y="202" on="1"/>
        <pt x="772" y="205" on="1"/>
        <pt x="745" y="166" on="0"/>
        <pt x="668" y="87" on="0"/>
        <pt x="572" y="24" on="0"/>
        <pt x="461" y="-16" on="0"/>
      </contour>
      <contour>
        <pt x="424" y="100" on="1"/>
        <pt x="487" y="100" on="0"/>
        <pt x="601" y="156" on="0"/>
        <pt x="696" y="238" on="0"/>
        <pt x="769" y="333" on="0"/>
        <pt x="791" y="372" on="1"/>
        <pt x="811" y="557" on="1"/>
        <pt x="875" y="1008" on="1"/>
        <pt x="837" y="1025" on="0"/>
        <pt x="739" y="1046" on="0"/>
        <pt x="690" y="1046" on="1"/>
        <pt x="615" y="1046" on="0"/>
        <pt x="488" y="993" on="0"/>
        <pt x="387" y="902" on="0"/>
        <pt x="311" y="781" on="0"/>
        <pt x="260" y="645" on="0"/>
        <pt x="235" y="501" on="0"/>
        <pt x="235" y="433" on="1"/>
        <pt x="235" y="265" on="0"/>
        <pt x="331" y="100" on="0"/>
      </contour>
    </TTGlyph>
    <TTGlyph name="aacute" xMin="81" yMin="-16" xMax="1041" yMax="1703">
      <component glyphName="a" x="0" y="0" flags="0x204"/>
      <component glyphName="acute" x="559" y="-1" flags="0x4"/>
    </TTGlyph>
    <TTGlyph name="abreve" xMin="81" yMin="-16" xMax="1048" yMax="1647">
      <component glyphName="a" x="0" y="0" flags="0x204"/>
      <component glyphName="breve" x="364" y="-1" flags="0x4"/>
    </TTGlyph>
    <TTGlyph name="acircumflex" xMin="81" yMin="-16" xMax="1080" yMax="1709">
      <component glyphName="a" x="0" y="0" flags="0x204"/>
      <component glyphName="circumflex" x="300" y="-1" flags="0x4"/>
    </TTGlyph>
    <TTGlyph name="acute" xMin="58" yMin="1249" xMax="481" yMax="1704">
      <contour>
        <pt x="58" y="1304" on="1"/>
        <pt x="366" y="1704" on="1"/>
        <pt x="481" y="1600" on="1"/>
        <pt x="471" y="1583" on="0"/>
        <pt x="428" y="1529" on="0"/>
        <pt x="368" y="1463" on="0"/>
        <pt x="297" y="1391" on="0"/>
        <pt x="223" y="1324" on="0"/>
        <pt x="151" y="1267" on="0"/>
        <pt x="121" y="1249" on="1"/>
      </contour>
    </TTGlyph>
    <TTGlyph name="acute.cap" xMin="82" yMin="1603" xMax="455" yMax="2000">
      <contour>
        <pt x="82" y="1654" on="1"/>
        <pt x="360" y="2000" on="1"/>
        <pt x="455" y="1903" on="1"/>
        <pt x="432" y="1864" on="0"/>
        <pt x="354" y="1777" on="0"/>
        <pt x="266" y="1695" on="0"/>
        <pt x="175" y="1625" on="0"/>
        <pt x="139" y="1603" on="1"/>
      </contour>
    </TTGlyph>
    <TTGlyph name="adieresis" xMin="81" yMin="-16" xMax="1048" yMax="1622">
      <component glyphName="a" x="0" y="0" flags="0x204"/>
      <component glyphName="dieresis" x="327" y="-1" flags="0x4"/>
    </TTGlyph>
    <TTGlyph name="ae" xMin="81" yMin="-16" xMax="1552" yMax="1156">
      <contour>
        <pt x="358" y="-16" on="1"/>
        <pt x="280" y="-16" on="0"/>
        <pt x="174" y="48" on="0"/>
        <pt x="109" y="163" on="0"/>
        <pt x="81" y="321" on="0"/>
        <pt x="81" y="415" on="1"/>
        <pt x="81" y="493" on="0"/>
        <pt x="114" y="664" on="0"/>
        <pt x="181" y="829" on="0"/>
        <pt x="284" y="977" on="0"/>
        <pt x="425" y="1090" on="0"/>
        <pt x="604" y="1156" on="0"/>
        <pt x="714" y="1156" on="1"/>
        <pt x="744" y="1156" on="0"/>
        <pt x="809" y="1151" on="0"/>
        <pt x="880" y="1134" on="0"/>
        <pt x="956" y="1103" on="0"/>
        <pt x="998" y="1078" on="1"/>
        <pt x="1058" y="1116" on="0"/>
        <pt x="1196" y="1156" on="0"/>
        <pt x="1273" y="1156" on="1"/>
        <pt x="1344" y="1156" on="0"/>
        <pt x="1449" y="1118" on="0"/>
        <pt x="1518" y="1050" on="0"/>
        <pt x="1552" y="959" on="0"/>
        <pt x="1552" y="906" on="1"/>
        <pt x="1552" y="823" on="0"/>
        <pt x="1479" y="692" on="0"/>
        <pt x="1359" y="591" on="0"/>
        <pt x="1206" y="519" on="0"/>
        <pt x="1048" y="471" on="0"/>
        <pt x="898" y="446" on="0"/>
        <pt x="840" y="443" on="1"/>
        <pt x="837" y="385" on="0"/>
        <pt x="855" y="264" on="0"/>
        <pt x="910" y="165" on="0"/>
        <pt x="1009" y="102" on="0"/>
        <pt x="1089" y="102" on="1"/>
        <pt x="1171" y="102" on="0"/>
        <pt x="1351" y="185" on="0"/>
        <pt x="1437" y="273" on="1"/>
        <pt x="1480" y="186" on="1"/>
        <pt x="1459" y="156" on="0"/>
        <pt x="1380" y="86" on="0"/>
        <pt x="1274" y="25" on="0"/>
        <pt x="1145" y="-16" on="0"/>
        <pt x="1072" y="-16" on="1"/>
        <pt x="992" y="-16" on="0"/>
        <pt x="869" y="28" on="0"/>
        <pt x="779" y="104" on="0"/>
        <pt x="719" y="206" on="0"/>
        <pt x="703" y="265" on="1"/>
        <pt x="677" y="215" on="0"/>
        <pt x="609" y="115" on="0"/>
        <pt x="523" y="34" on="0"/>
        <pt x="419" y="-16" on="0"/>
      </contour>
      <contour>
        <pt x="391" y="100" on="1"/>
        <pt x="436" y="100" on="0"/>
        <pt x="520" y="152" on="0"/>
        <pt x="594" y="233" on="0"/>
        <pt x="658" y="334" on="0"/>
        <pt x="684" y="382" on="1"/>
        <pt x="683" y="397" on="0"/>
        <pt x="682" y="426" on="0"/>
        <pt x="683" y="441" on="1"/>
        <pt x="685" y="524" on="0"/>
        <pt x="715" y="680" on="0"/>
        <pt x="768" y="821" on="0"/>
        <pt x="844" y="942" on="0"/>
        <pt x="891" y="991" on="1"/>
        <pt x="845" y="1017" on="0"/>
        <pt x="741" y="1046" on="0"/>
        <pt x="690" y="1046" on="1"/>
        <pt x="615" y="1046" on="0"/>
        <pt x="488" y="993" on="0"/>
        <pt x="387" y="902" on="0"/>
        <pt x="311" y="781" on="0"/>
        <pt x="260" y="645" on="0"/>
        <pt x="235" y="501" on="0"/>
        <pt x="235" y="433" on="1"/>
        <pt x="235" y="263" on="0"/>
        <pt x="312" y="100" on="0"/>
      </contour>
      <contour>
        <pt x="845" y="550" on="1"/>
        <pt x="901" y="552" on="0"/>
        <pt x="1028" y="575" on="0"/>
        <pt x="1152" y="616" on="0"/>
        <pt x="1265" y="675" on="0"/>
        <pt x="1352" y="750" on="0"/>
        <pt x="1403" y="840" on="0"/>
        <pt x="1403" y="893" on="1"/>
        <pt x="1403" y="971" on="0"/>
        <pt x="1316" y="1043" on="0"/>
        <pt x="1241" y="1043" on="1"/>
        <pt x="1185" y="1043" on="0"/>
        <pt x="1085" y="1002" on="0"/>
        <pt x="1001" y="930" on="0"/>
        <pt x="932" y="834" on="0"/>
        <pt x="882" y="724" on="0"/>
        <pt x="850" y="607" on="0"/>
      </contour>
    </TTGlyph>
    <TTGlyph name="aeacute" xMin="81" yMin="-16" xMax="1552" yMax="1704">
      <component glyphName="acute" x="761" y="0" flags="0x4"/>
      <component glyphName="ae" x="0" y="0" flags="0x4"/>
    </TTGlyph>
    <TTGlyph name="afii61352" xMin="159" yMin="0" xMax="2419" yMax="1532">
      <contour>
        <pt x="1564" y="1058" on="1"/>
        <pt x="1576" y="1185" on="0"/>
        <pt x="1673" y="1365" on="0"/>
        <pt x="1808" y="1479" on="0"/>
        <pt x="1965" y="1532" on="0"/>
        <pt x="2039" y="1532" on="1"/>
        <pt x="2136" y="1532" on="0"/>
        <pt x="2284" y="1464" on="0"/>
        <pt x="2380" y="1338" on="0"/>
        <pt x="2419" y="1159" on="0"/>
        <pt x="2408" y="1048" on="1"/>
        <pt x="2400" y="963" on="0"/>
        <pt x="2350" y="827" on="0"/>
        <pt x="2277" y="720" on="0"/>
        <pt x="2185" y="643" on="0"/>
        <pt x="2085" y="594" on="0"/>
        <pt x="1982" y="570" on="0"/>
        <pt x="1933" y="570" on="1"/>
        <pt x="1836" y="570" on="0"/>
        <pt x="1688" y="639" on="0"/>
        <pt x="1592" y="766" on="0"/>
        <pt x="1553" y="947" on="0"/>
      </contour>
      <contour>
        <pt x="350" y="1530" on="1"/>
        <pt x="507" y="1530" on="1"/>
        <pt x="982" y="437" on="1"/>
        <pt x="1068" y="202" on="1"/>
        <pt x="1093" y="469" on="1"/>
        <pt x="1224" y="1530" on="1"/>
        <pt x="1367" y="1530" on="1"/>
        <pt x="1173" y="0" on="1"/>
        <pt x="1027" y="0" on="1"/>
        <pt x="531" y="1122" on="1"/>
        <pt x="461" y="1357" on="1"/>
        <pt x="433" y="1073" on="1"/>
        <pt x="301" y="0" on="1"/>
        <pt x="159" y="0" on="1"/>
      </contour>
      <contour>
        <pt x="1707" y="1065" on="1"/>
        <pt x="1698" y="978" on="0"/>
        <pt x="1722" y="835" on="0"/>
        <pt x="1783" y="734" on="0"/>
        <pt x="1882" y="679" on="0"/>
        <pt x="1948" y="680" on="1"/>
        <pt x="2009" y="680" on="0"/>
        <pt x="2116" y="722" on="0"/>
        <pt x="2200" y="809" on="0"/>
        <pt x="2256" y="945" on="0"/>
        <pt x="2265" y="1040" on="1"/>
        <pt x="2274" y="1127" on="0"/>
        <pt x="2250" y="1269" on="0"/>
        <pt x="2189" y="1369" on="0"/>
        <pt x="2090" y="1424" on="0"/>
        <pt x="2024" y="1423" on="1"/>
        <pt x="1966" y="1423" on="0"/>
        <pt x="1859" y="1383" on="0"/>
        <pt x="1774" y="1298" on="0"/>
        <pt x="1716" y="1162" on="0"/>
      </contour>
      <contour>
        <pt x="1515" y="121" on="1"/>
        <pt x="2275" y="121" on="1"/>
        <pt x="2264" y="0" on="1"/>
        <pt x="1504" y="0" on="1"/>
      </contour>
    </TTGlyph>
    <TTGlyph name="agrave" xMin="81" yMin="-16" xMax="1041" yMax="1700">
      <component glyphName="a" x="0" y="0" flags="0x204"/>
      <component glyphName="grave" x="283" y="-1" flags="0x4"/>
    </TTGlyph>
    <TTGlyph name="amacron" xMin="81" yMin="-16" xMax="1041" yMax="1547">
      <component glyphName="a" x="0" y="0" flags="0x204"/>
      <component glyphName="macron" x="396" y="-1" flags="0x4"/>
    </TTGlyph>
    <TTGlyph name="ampersand" xMin="105" yMin="-20" xMax="1443" yMax="1547">
      <contour>
        <pt x="105" y="365" on="1"/>
        <pt x="105" y="437" on="0"/>
        <pt x="159" y="554" on="0"/>
        <pt x="250" y="652" on="0"/>
        <pt x="371" y="734" on="0"/>
        <pt x="437" y="771" on="1"/>
        <pt x="418" y="811" on="0"/>
        <pt x="384" y="904" on="0"/>
        <pt x="358" y="1000" on="0"/>
        <pt x="343" y="1095" on="0"/>
        <pt x="343" y="1137" on="1"/>
        <pt x="343" y="1227" on="0"/>
        <pt x="404" y="1378" on="0"/>
        <pt x="514" y="1487" on="0"/>
        <pt x="664" y="1547" on="0"/>
        <pt x="754" y="1547" on="1"/>
        <pt x="839" y="1547" on="0"/>
        <pt x="966" y="1491" on="0"/>
        <pt x="1050" y="1403" on="0"/>
        <pt x="1092" y="1296" on="0"/>
        <pt x="1092" y="1245" on="1"/>
        <pt x="1092" y="1179" on="0"/>
        <pt x="1052" y="1070" on="0"/>
        <pt x="982" y="978" on="0"/>
        <pt x="887" y="901" on="0"/>
        <pt x="779" y="832" on="0"/>
        <pt x="662" y="770" on="0"/>
        <pt x="605" y="739" on="1"/>
        <pt x="690" y="592" on="0"/>
        <pt x="887" y="326" on="0"/>
        <pt x="999" y="223" on="1"/>
        <pt x="1061" y="282" on="0"/>
        <pt x="1130" y="447" on="0"/>
        <pt x="1130" y="553" on="1"/>
        <pt x="1130" y="598" on="0"/>
        <pt x="1116" y="668" on="0"/>
        <pt x="1106" y="694" on="1"/>
        <pt x="1068" y="693" on="0"/>
        <pt x="1001" y="681" on="0"/>
        <pt x="984" y="672" on="1"/>
        <pt x="993" y="777" on="1"/>
        <pt x="1004" y="788" on="0"/>
        <pt x="1075" y="806" on="0"/>
        <pt x="1129" y="806" on="1"/>
        <pt x="1137" y="806" on="0"/>
        <pt x="1186" y="806" on="0"/>
        <pt x="1251" y="806" on="0"/>
        <pt x="1324" y="805" on="0"/>
        <pt x="1388" y="805" on="0"/>
        <pt x="1435" y="805" on="0"/>
        <pt x="1443" y="805" on="1"/>
        <pt x="1435" y="694" on="1"/>
        <pt x="1254" y="694" on="1"/>
        <pt x="1260" y="673" on="0"/>
        <pt x="1268" y="620" on="0"/>
        <pt x="1268" y="586" on="1"/>
        <pt x="1268" y="443" on="0"/>
        <pt x="1178" y="223" on="0"/>
        <pt x="1094" y="145" on="1"/>
        <pt x="1148" y="110" on="0"/>
        <pt x="1271" y="81" on="0"/>
        <pt x="1349" y="83" on="1"/>
        <pt x="1360" y="82" on="0"/>
        <pt x="1392" y="84" on="0"/>
        <pt x="1403" y="87" on="1"/>
        <pt x="1388" y="-6" on="1"/>
        <pt x="1347" y="-16" on="0"/>
        <pt x="1269" y="-20" on="0"/>
        <pt x="1242" y="-20" on="1"/>
        <pt x="1211" y="-20" on="0"/>
        <pt x="1142" y="-10" on="0"/>
        <pt x="1073" y="11" on="0"/>
        <pt x="1007" y="42" on="0"/>
        <pt x="979" y="64" on="1"/>
        <pt x="904" y="24" on="0"/>
        <pt x="725" y="-17" on="0"/>
        <pt x="622" y="-17" on="1"/>
        <pt x="521" y="-17" on="0"/>
        <pt x="335" y="24" on="0"/>
        <pt x="191" y="115" on="0"/>
        <pt x="105" y="261" on="0"/>
      </contour>
      <contour>
        <pt x="554" y="833" on="1"/>
        <pt x="630" y="873" on="0"/>
        <pt x="772" y="954" on="0"/>
        <pt x="883" y="1047" on="0"/>
        <pt x="950" y="1159" on="0"/>
        <pt x="950" y="1229" on="1"/>
        <pt x="950" y="1273" on="0"/>
        <pt x="927" y="1352" on="0"/>
        <pt x="877" y="1411" on="0"/>
        <pt x="801" y="1445" on="0"/>
        <pt x="749" y="1445" on="1"/>
        <pt x="687" y="1445" on="0"/>
        <pt x="588" y="1397" on="0"/>
        <pt x="518" y="1315" on="0"/>
        <pt x="480" y="1204" on="0"/>
        <pt x="480" y="1141" on="1"/>
        <pt x="480" y="1094" on="0"/>
        <pt x="494" y="1006" on="0"/>
        <pt x="515" y="926" on="0"/>
        <pt x="541" y="859" on="0"/>
      </contour>
      <contour>
        <pt x="260" y="369" on="1"/>
        <pt x="260" y="295" on="0"/>
        <pt x="320" y="190" on="0"/>
        <pt x="422" y="123" on="0"/>
        <pt x="558" y="91" on="0"/>
        <pt x="635" y="91" on="1"/>
        <pt x="776" y="91" on="0"/>
        <pt x="889" y="146" on="1"/>
        <pt x="817" y="215" on="0"/>
        <pt x="704" y="346" on="0"/>
        <pt x="610" y="476" on="0"/>
        <pt x="529" y="606" on="0"/>
        <pt x="490" y="674" on="1"/>
        <pt x="441" y="644" on="0"/>
        <pt x="357" y="579" on="0"/>
        <pt x="295" y="505" on="0"/>
        <pt x="260" y="420" on="0"/>
      </contour>
    </TTGlyph>
    <TTGlyph name="aogonek" xMin="93" yMin="-435" xMax="1053" yMax="1156">
      <contour>
        <pt x="411" y="-16" on="1"/>
        <pt x="330" y="-16" on="0"/>
        <pt x="210" y="46" on="0"/>
        <pt x="131" y="160" on="0"/>
        <pt x="93" y="319" on="0"/>
        <pt x="93" y="415" on="1"/>
        <pt x="93" y="493" on="0"/>
        <pt x="126" y="664" on="0"/>
        <pt x="193" y="829" on="0"/>
        <pt x="296" y="977" on="0"/>
        <pt x="437" y="1090" on="0"/>
        <pt x="616" y="1156" on="0"/>
        <pt x="726" y="1156" on="1"/>
        <pt x="777" y="1156" on="0"/>
        <pt x="892" y="1134" on="0"/>
        <pt x="940" y="1119" on="1"/>
        <pt x="1053" y="1156" on="1"/>
        <pt x="896" y="0" on="1"/>
        <pt x="884" y="0" on="1"/>
        <pt x="854" y="-20" on="0"/>
        <pt x="774" y="-74" on="0"/>
        <pt x="702" y="-137" on="0"/>
        <pt x="651" y="-207" on="0"/>
        <pt x="651" y="-242" on="1"/>
        <pt x="651" y="-281" on="0"/>
        <pt x="701" y="-322" on="0"/>
        <pt x="739" y="-322" on="1"/>
        <pt x="780" y="-322" on="0"/>
        <pt x="860" y="-292" on="0"/>
        <pt x="897" y="-263" on="1"/>
        <pt x="937" y="-341" on="1"/>
        <pt x="920" y="-356" on="0"/>
        <pt x="871" y="-389" on="0"/>
        <pt x="809" y="-417" on="0"/>
        <pt x="733" y="-435" on="0"/>
        <pt x="690" y="-435" on="1"/>
        <pt x="639" y="-435" on="0"/>
        <pt x="567" y="-405" on="0"/>
        <pt x="523" y="-360" on="0"/>
        <pt x="503" y="-308" on="0"/>
        <pt x="503" y="-286" on="1"/>
        <pt x="503" y="-234" on="0"/>
        <pt x="560" y="-144" on="0"/>
        <pt x="641" y="-71" on="0"/>
        <pt x="732" y="-16" on="0"/>
        <pt x="765" y="2" on="1"/>
        <pt x="784" y="202" on="1"/>
        <pt x="784" y="205" on="1"/>
        <pt x="757" y="166" on="0"/>
        <pt x="680" y="87" on="0"/>
        <pt x="584" y="24" on="0"/>
        <pt x="473" y="-16" on="0"/>
      </contour>
      <contour>
        <pt x="436" y="100" on="1"/>
        <pt x="499" y="100" on="0"/>
        <pt x="613" y="156" on="0"/>
        <pt x="708" y="238" on="0"/>
        <pt x="781" y="333" on="0"/>
        <pt x="803" y="372" on="1"/>
        <pt x="823" y="557" on="1"/>
        <pt x="887" y="1008" on="1"/>
        <pt x="849" y="1025" on="0"/>
        <pt x="751" y="1046" on="0"/>
        <pt x="702" y="1046" on="1"/>
        <pt x="626" y="1046" on="0"/>
        <pt x="500" y="993" on="0"/>
        <pt x="399" y="902" on="0"/>
        <pt x="323" y="781" on="0"/>
        <pt x="272" y="645" on="0"/>
        <pt x="247" y="501" on="0"/>
        <pt x="247" y="433" on="1"/>
        <pt x="247" y="265" on="0"/>
        <pt x="343" y="100" on="0"/>
      </contour>
    </TTGlyph>
    <TTGlyph name="approxequal" xMin="67" yMin="306" xMax="1032" yMax="1052">
      <component glyphName="asciitilde" x="-73" y="-435" flags="0x4"/>
      <component glyphName="asciitilde" x="-20" y="11" flags="0x4"/>
    </TTGlyph>
    <TTGlyph name="aring" xMin="81" yMin="-16" xMax="1068" yMax="1780">
      <component glyphName="a" x="0" y="0" flags="0x204"/>
      <component glyphName="ring" x="357" y="-1" flags="0x4"/>
    </TTGlyph>
    <TTGlyph name="asciicircum" xMin="186" yMin="510" xMax="1124" yMax="1530">
      <contour>
        <pt x="704" y="1530" on="1"/>
        <pt x="857" y="1530" on="1"/>
        <pt x="1124" y="510" on="1"/>
        <pt x="993" y="510" on="1"/>
        <pt x="767" y="1385" on="1"/>
        <pt x="321" y="510" on="1"/>
        <pt x="186" y="510" on="1"/>
      </contour>
    </TTGlyph>
    <TTGlyph name="asciitilde" xMin="140" yMin="741" xMax="1052" yMax="1041">
      <contour>
        <pt x="140" y="844" on="1"/>
        <pt x="150" y="874" on="0"/>
        <pt x="204" y="943" on="0"/>
        <pt x="283" y="1002" on="0"/>
        <pt x="384" y="1041" on="0"/>
        <pt x="442" y="1041" on="1"/>
        <pt x="480" y="1041" on="0"/>
        <pt x="544" y="1015" on="0"/>
        <pt x="600" y="977" on="0"/>
        <pt x="651" y="932" on="0"/>
        <pt x="702" y="894" on="0"/>
        <pt x="755" y="868" on="0"/>
        <pt x="786" y="868" on="1"/>
        <pt x="824" y="868" on="0"/>
        <pt x="887" y="891" on="0"/>
        <pt x="940" y="927" on="0"/>
        <pt x="981" y="974" on="0"/>
        <pt x="996" y="998" on="1"/>
        <pt x="1052" y="941" on="1"/>
        <pt x="1041" y="906" on="0"/>
        <pt x="989" y="835" on="0"/>
        <pt x="912" y="777" on="0"/>
        <pt x="814" y="741" on="0"/>
        <pt x="757" y="741" on="1"/>
        <pt x="719" y="741" on="0"/>
        <pt x="655" y="767" on="0"/>
        <pt x="599" y="805" on="0"/>
        <pt x="547" y="851" on="0"/>
        <pt x="496" y="889" on="0"/>
        <pt x="443" y="915" on="0"/>
        <pt x="413" y="915" on="1"/>
        <pt x="346" y="915" on="0"/>
        <pt x="235" y="848" on="0"/>
        <pt x="195" y="787" on="1"/>
      </contour>
    </TTGlyph>
    <TTGlyph name="asterisk" xMin="240" yMin="647" xMax="1223" yMax="1653">
      <contour>
        <pt x="240" y="960" on="1"/>
        <pt x="526" y="1090" on="1"/>
        <pt x="672" y="1147" on="1"/>
        <pt x="538" y="1205" on="1"/>
        <pt x="278" y="1344" on="1"/>
        <pt x="365" y="1471" on="1"/>
        <pt x="598" y="1295" on="1"/>
        <pt x="707" y="1200" on="1"/>
        <pt x="701" y="1350" on="1"/>
        <pt x="708" y="1653" on="1"/>
        <pt x="856" y="1653" on="1"/>
        <pt x="805" y="1350" on="1"/>
        <pt x="768" y="1200" on="1"/>
        <pt x="897" y="1295" on="1"/>
        <pt x="1164" y="1467" on="1"/>
        <pt x="1223" y="1339" on="1"/>
        <pt x="939" y="1204" on="1"/>
        <pt x="794" y="1146" on="1"/>
        <pt x="923" y="1088" on="1"/>
        <pt x="1177" y="953" on="1"/>
        <pt x="1089" y="827" on="1"/>
        <pt x="862" y="999" on="1"/>
        <pt x="757" y="1096" on="1"/>
        <pt x="766" y="950" on="1"/>
        <pt x="759" y="647" on="1"/>
        <pt x="608" y="648" on="1"/>
        <pt x="660" y="950" on="1"/>
        <pt x="696" y="1096" on="1"/>
        <pt x="568" y="1001" on="1"/>
        <pt x="299" y="831" on="1"/>
      </contour>
    </TTGlyph>
    <TTGlyph name="at" xMin="121" yMin="-440" xMax="1869" yMax="1545">
      <contour>
        <pt x="121" y="373" on="1"/>
        <pt x="121" y="554" on="0"/>
        <pt x="197" y="868" on="0"/>
        <pt x="336" y="1129" on="0"/>
        <pt x="531" y="1332" on="0"/>
        <pt x="769" y="1472" on="0"/>
        <pt x="1041" y="1545" on="0"/>
        <pt x="1189" y="1545" on="1"/>
        <pt x="1346" y="1545" on="0"/>
        <pt x="1598" y="1452" on="0"/>
        <pt x="1774" y="1281" on="0"/>
        <pt x="1869" y="1039" on="0"/>
        <pt x="1869" y="889" on="1"/>
        <pt x="1869" y="752" on="0"/>
        <pt x="1818" y="514" on="0"/>
        <pt x="1730" y="319" on="0"/>
        <pt x="1612" y="167" on="0"/>
        <pt x="1481" y="62" on="0"/>
        <pt x="1343" y="8" on="0"/>
        <pt x="1278" y="8" on="1"/>
        <pt x="1243" y="8" on="0"/>
        <pt x="1203" y="43" on="0"/>
        <pt x="1183" y="100" on="0"/>
        <pt x="1179" y="174" on="0"/>
        <pt x="1179" y="213" on="1"/>
        <pt x="1179" y="234" on="0"/>
        <pt x="1184" y="291" on="0"/>
        <pt x="1193" y="357" on="0"/>
        <pt x="1205" y="428" on="0"/>
        <pt x="1211" y="461" on="1"/>
        <pt x="1177" y="379" on="0"/>
        <pt x="1092" y="216" on="0"/>
        <pt x="993" y="86" on="0"/>
        <pt x="883" y="5" on="0"/>
        <pt x="824" y="5" on="1"/>
        <pt x="773" y="5" on="0"/>
        <pt x="671" y="56" on="0"/>
        <pt x="590" y="161" on="0"/>
        <pt x="541" y="323" on="0"/>
        <pt x="543" y="434" on="1"/>
        <pt x="544" y="507" on="0"/>
        <pt x="575" y="661" on="0"/>
        <pt x="634" y="807" on="0"/>
        <pt x="722" y="937" on="0"/>
        <pt x="842" y="1035" on="0"/>
        <pt x="993" y="1092" on="0"/>
        <pt x="1086" y="1092" on="1"/>
        <pt x="1108" y="1092" on="0"/>
        <pt x="1170" y="1085" on="0"/>
        <pt x="1236" y="1072" on="0"/>
        <pt x="1298" y="1051" on="0"/>
        <pt x="1319" y="1038" on="1"/>
        <pt x="1447" y="1062" on="1"/>
        <pt x="1432" y="1004" on="0"/>
        <pt x="1399" y="854" on="0"/>
        <pt x="1369" y="690" on="0"/>
        <pt x="1343" y="522" on="0"/>
        <pt x="1333" y="446" on="1"/>
        <pt x="1328" y="407" on="0"/>
        <pt x="1321" y="334" on="0"/>
        <pt x="1316" y="271" on="0"/>
        <pt x="1314" y="220" on="0"/>
        <pt x="1314" y="205" on="1"/>
        <pt x="1314" y="182" on="0"/>
        <pt x="1330" y="141" on="0"/>
        <pt x="1353" y="141" on="1"/>
        <pt x="1398" y="141" on="0"/>
        <pt x="1492" y="197" on="0"/>
        <pt x="1580" y="295" on="0"/>
        <pt x="1659" y="432" on="0"/>
        <pt x="1717" y="592" on="0"/>
        <pt x="1751" y="772" on="0"/>
        <pt x="1751" y="865" on="1"/>
        <pt x="1751" y="1026" on="0"/>
        <pt x="1660" y="1247" on="0"/>
        <pt x="1501" y="1384" on="0"/>
        <pt x="1285" y="1444" on="0"/>
        <pt x="1161" y="1444" on="1"/>
        <pt x="1023" y="1444" on="0"/>
        <pt x="778" y="1365" on="0"/>
        <pt x="573" y="1223" on="0"/>
        <pt x="411" y="1027" on="0"/>
        <pt x="298" y="793" on="0"/>
        <pt x="238" y="529" on="0"/>
        <pt x="238" y="391" on="1"/>
        <pt x="238" y="200" on="0"/>
        <pt x="345" y="-73" on="0"/>
        <pt x="529" y="-250" on="0"/>
        <pt x="772" y="-333" on="0"/>
        <pt x="909" y="-333" on="1"/>
        <pt x="963" y="-333" on="0"/>
        <pt x="1080" y="-316" on="0"/>
        <pt x="1187" y="-291" on="0"/>
        <pt x="1274" y="-261" on="0"/>
        <pt x="1298" y="-248" on="1"/>
        <pt x="1324" y="-324" on="1"/>
        <pt x="1290" y="-350" on="0"/>
        <pt x="1198" y="-392" on="0"/>
        <pt x="1087" y="-423" on="0"/>
        <pt x="963" y="-440" on="0"/>
        <pt x="898" y="-440" on="1"/>
        <pt x="730" y="-440" on="0"/>
        <pt x="445" y="-331" on="0"/>
        <pt x="238" y="-123" on="0"/>
        <pt x="121" y="179" on="0"/>
      </contour>
      <contour>
        <pt x="681" y="444" on="1"/>
        <pt x="681" y="293" on="0"/>
        <pt x="769" y="123" on="0"/>
        <pt x="847" y="122" on="1"/>
        <pt x="884" y="122" on="0"/>
        <pt x="968" y="198" on="0"/>
        <pt x="1053" y="326" on="0"/>
        <pt x="1136" y="493" on="0"/>
        <pt x="1208" y="672" on="0"/>
        <pt x="1265" y="850" on="0"/>
        <pt x="1282" y="926" on="1"/>
        <pt x="1268" y="943" on="0"/>
        <pt x="1218" y="969" on="0"/>
        <pt x="1160" y="986" on="0"/>
        <pt x="1102" y="995" on="0"/>
        <pt x="1080" y="995" on="1"/>
        <pt x="1015" y="995" on="0"/>
        <pt x="905" y="947" on="0"/>
        <pt x="817" y="866" on="0"/>
        <pt x="749" y="758" on="0"/>
        <pt x="704" y="635" on="0"/>
        <pt x="681" y="506" on="0"/>
      </contour>
    </TTGlyph>
    <TTGlyph name="atilde" xMin="81" yMin="-16" xMax="1101" yMax="1646">
      <component glyphName="a" x="0" y="0" flags="0x204"/>
      <component glyphName="tilde" x="328" y="-1" flags="0x4"/>
    </TTGlyph>
    <TTGlyph name="b" xMin="95" yMin="-16" xMax="1060" yMax="1637">
      <contour>
        <pt x="313" y="1637" on="1"/>
        <pt x="454" y="1637" on="1"/>
        <pt x="396" y="1147" on="1"/>
        <pt x="361" y="939" on="1"/>
        <pt x="389" y="978" on="0"/>
        <pt x="468" y="1055" on="0"/>
        <pt x="566" y="1117" on="0"/>
        <pt x="679" y="1156" on="0"/>
        <pt x="742" y="1156" on="1"/>
        <pt x="823" y="1156" on="0"/>
        <pt x="943" y="1093" on="0"/>
        <pt x="1022" y="979" on="0"/>
        <pt x="1060" y="820" on="0"/>
        <pt x="1060" y="723" on="1"/>
        <pt x="1060" y="645" on="0"/>
        <pt x="1026" y="474" on="0"/>
        <pt x="957" y="310" on="0"/>
        <pt x="852" y="162" on="0"/>
        <pt x="709" y="50" on="0"/>
        <pt x="529" y="-16" on="0"/>
        <pt x="419" y="-16" on="1"/>
        <pt x="390" y="-16" on="0"/>
        <pt x="326" y="-9" on="0"/>
        <pt x="262" y="3" on="0"/>
        <pt x="203" y="19" on="0"/>
        <pt x="179" y="27" on="1"/>
        <pt x="95" y="2" on="1"/>
      </contour>
      <contour>
        <pt x="259" y="129" on="1"/>
        <pt x="298" y="112" on="0"/>
        <pt x="395" y="94" on="0"/>
        <pt x="443" y="94" on="1"/>
        <pt x="521" y="94" on="0"/>
        <pt x="650" y="149" on="0"/>
        <pt x="753" y="242" on="0"/>
        <pt x="830" y="365" on="0"/>
        <pt x="881" y="501" on="0"/>
        <pt x="906" y="642" on="0"/>
        <pt x="906" y="706" on="1"/>
        <pt x="906" y="875" on="0"/>
        <pt x="808" y="1040" on="0"/>
        <pt x="716" y="1040" on="1"/>
        <pt x="655" y="1040" on="0"/>
        <pt x="542" y="989" on="0"/>
        <pt x="446" y="912" on="0"/>
        <pt x="371" y="822" on="0"/>
        <pt x="347" y="784" on="1"/>
      </contour>
    </TTGlyph>
    <TTGlyph name="backslash" xMin="46" yMin="-362" xMax="755" yMax="1597">
      <contour>
        <pt x="622" y="-362" on="1"/>
        <pt x="46" y="1597" on="1"/>
        <pt x="178" y="1597" on="1"/>
        <pt x="755" y="-362" on="1"/>
      </contour>
    </TTGlyph>
    <TTGlyph name="bar" xMin="375" yMin="-186" xMax="506" yMax="1780">
      <contour>
        <pt x="375" y="1780" on="1"/>
        <pt x="506" y="1780" on="1"/>
        <pt x="506" y="-186" on="1"/>
        <pt x="375" y="-186" on="1"/>
      </contour>
    </TTGlyph>
    <TTGlyph name="braceleft" xMin="162" yMin="-159" xMax="979" yMax="1710">
      <contour>
        <pt x="305" y="-48" on="1"/>
        <pt x="305" y="-44" on="0"/>
        <pt x="313" y="14" on="0"/>
        <pt x="325" y="103" on="0"/>
        <pt x="341" y="215" on="0"/>
        <pt x="350" y="273" on="1"/>
        <pt x="369" y="409" on="0"/>
        <pt x="395" y="579" on="1"/>
        <pt x="397" y="602" on="0"/>
        <pt x="362" y="641" on="0"/>
        <pt x="335" y="657" on="1"/>
        <pt x="300" y="678" on="0"/>
        <pt x="209" y="715" on="0"/>
        <pt x="162" y="728" on="1"/>
        <pt x="176" y="825" on="1"/>
        <pt x="228" y="839" on="0"/>
        <pt x="336" y="872" on="0"/>
        <pt x="375" y="890" on="1"/>
        <pt x="413" y="907" on="0"/>
        <pt x="450" y="946" on="0"/>
        <pt x="454" y="968" on="1"/>
        <pt x="536" y="1519" on="1"/>
        <pt x="545" y="1575" on="0"/>
        <pt x="569" y="1649" on="0"/>
        <pt x="610" y="1692" on="0"/>
        <pt x="670" y="1710" on="0"/>
        <pt x="715" y="1710" on="1"/>
        <pt x="748" y="1710" on="0"/>
        <pt x="838" y="1699" on="0"/>
        <pt x="880" y="1692" on="1"/>
        <pt x="928" y="1684" on="0"/>
        <pt x="979" y="1674" on="1"/>
        <pt x="976" y="1659" on="0"/>
        <pt x="974" y="1646" on="1"/>
        <pt x="972" y="1635" on="0"/>
        <pt x="969" y="1612" on="0"/>
        <pt x="969" y="1607" on="1"/>
        <pt x="693" y="1607" on="1"/>
        <pt x="597" y="969" on="1"/>
        <pt x="591" y="928" on="0"/>
        <pt x="538" y="868" on="0"/>
        <pt x="489" y="844" on="1"/>
        <pt x="476" y="838" on="0"/>
        <pt x="429" y="816" on="0"/>
        <pt x="378" y="795" on="0"/>
        <pt x="335" y="778" on="0"/>
        <pt x="327" y="776" on="1"/>
        <pt x="375" y="754" on="0"/>
        <pt x="456" y="709" on="0"/>
        <pt x="482" y="688" on="1"/>
        <pt x="512" y="665" on="0"/>
        <pt x="541" y="609" on="0"/>
        <pt x="536" y="576" on="1"/>
        <pt x="442" y="-55" on="1"/>
        <pt x="717" y="-55" on="1"/>
        <pt x="716" y="-60" on="0"/>
        <pt x="714" y="-81" on="0"/>
        <pt x="712" y="-93" on="1"/>
        <pt x="710" y="-107" on="0"/>
        <pt x="708" y="-123" on="1"/>
        <pt x="674" y="-131" on="0"/>
        <pt x="611" y="-144" on="0"/>
        <pt x="546" y="-154" on="0"/>
        <pt x="475" y="-159" on="0"/>
        <pt x="434" y="-159" on="1"/>
        <pt x="398" y="-159" on="0"/>
        <pt x="348" y="-149" on="0"/>
        <pt x="317" y="-123" on="0"/>
        <pt x="304" y="-81" on="0"/>
      </contour>
    </TTGlyph>
    <TTGlyph name="braceright" xMin="93" yMin="-164" xMax="910" yMax="1704">
      <component glyphName="braceleft" x="1072" y="1546" scale="-0.99994" flags="0x4"/>
    </TTGlyph>
    <TTGlyph name="bracketleft" xMin="194" yMin="-172" xMax="862" yMax="1710">
      <contour>
        <pt x="197" y="21" on="1"/>
        <pt x="200" y="72" on="0"/>
        <pt x="218" y="227" on="0"/>
        <pt x="243" y="418" on="0"/>
        <pt x="275" y="634" on="0"/>
        <pt x="308" y="858" on="0"/>
        <pt x="342" y="1080" on="0"/>
        <pt x="373" y="1282" on="0"/>
        <pt x="399" y="1456" on="0"/>
        <pt x="407" y="1519" on="1"/>
        <pt x="414" y="1574" on="0"/>
        <pt x="437" y="1647" on="0"/>
        <pt x="477" y="1691" on="0"/>
        <pt x="538" y="1710" on="0"/>
        <pt x="583" y="1710" on="1"/>
        <pt x="619" y="1710" on="0"/>
        <pt x="709" y="1699" on="0"/>
        <pt x="791" y="1685" on="0"/>
        <pt x="854" y="1673" on="0"/>
        <pt x="862" y="1673" on="1"/>
        <pt x="853" y="1607" on="1"/>
        <pt x="561" y="1607" on="1"/>
        <pt x="331" y="-68" on="1"/>
        <pt x="355" y="-68" on="0"/>
        <pt x="436" y="-69" on="0"/>
        <pt x="523" y="-69" on="0"/>
        <pt x="603" y="-70" on="0"/>
        <pt x="627" y="-70" on="1"/>
        <pt x="620" y="-136" on="1"/>
        <pt x="588" y="-143" on="0"/>
        <pt x="515" y="-156" on="0"/>
        <pt x="438" y="-166" on="0"/>
        <pt x="360" y="-172" on="0"/>
        <pt x="324" y="-172" on="1"/>
        <pt x="253" y="-172" on="0"/>
        <pt x="194" y="-126" on="0"/>
        <pt x="194" y="-64" on="1"/>
        <pt x="194" y="-26" on="0"/>
      </contour>
    </TTGlyph>
    <TTGlyph name="bracketright" xMin="55" yMin="-154" xMax="723" yMax="1727">
      <component glyphName="bracketleft" x="917" y="1556" scale="-0.99994" flags="0x4"/>
    </TTGlyph>
    <TTGlyph name="breve" xMin="52" yMin="1305" xMax="684" yMax="1648">
      <contour>
        <pt x="348" y="1305" on="1"/>
        <pt x="270" y="1305" on="0"/>
        <pt x="158" y="1361" on="0"/>
        <pt x="86" y="1451" on="0"/>
        <pt x="52" y="1567" on="0"/>
        <pt x="52" y="1627" on="1"/>
        <pt x="52" y="1632" on="0"/>
        <pt x="52" y="1643" on="0"/>
        <pt x="53" y="1648" on="1"/>
        <pt x="156" y="1648" on="1"/>
        <pt x="156" y="1642" on="0"/>
        <pt x="157" y="1626" on="0"/>
        <pt x="159" y="1618" on="1"/>
        <pt x="163" y="1582" on="0"/>
        <pt x="187" y="1511" on="0"/>
        <pt x="232" y="1453" on="0"/>
        <pt x="302" y="1417" on="0"/>
        <pt x="353" y="1417" on="1"/>
        <pt x="408" y="1417" on="0"/>
        <pt x="490" y="1466" on="0"/>
        <pt x="545" y="1536" on="0"/>
        <pt x="576" y="1616" on="0"/>
        <pt x="582" y="1648" on="1"/>
        <pt x="683" y="1648" on="1"/>
        <pt x="684" y="1634" on="0"/>
        <pt x="681" y="1616" on="1"/>
        <pt x="675" y="1561" on="0"/>
        <pt x="623" y="1450" on="0"/>
        <pt x="537" y="1361" on="0"/>
        <pt x="419" y="1305" on="0"/>
      </contour>
    </TTGlyph>
    <TTGlyph name="breve.cap" xMin="52" yMin="1637" xMax="684" yMax="1980">
      <contour>
        <pt x="348" y="1637" on="1"/>
        <pt x="270" y="1637" on="0"/>
        <pt x="158" y="1693" on="0"/>
        <pt x="86" y="1783" on="0"/>
        <pt x="52" y="1899" on="0"/>
        <pt x="52" y="1959" on="1"/>
        <pt x="52" y="1964" on="0"/>
        <pt x="52" y="1975" on="0"/>
        <pt x="53" y="1980" on="1"/>
        <pt x="156" y="1980" on="1"/>
        <pt x="156" y="1974" on="0"/>
        <pt x="157" y="1958" on="0"/>
        <pt x="159" y="1950" on="1"/>
        <pt x="163" y="1914" on="0"/>
        <pt x="187" y="1843" on="0"/>
        <pt x="232" y="1785" on="0"/>
        <pt x="302" y="1749" on="0"/>
        <pt x="353" y="1749" on="1"/>
        <pt x="408" y="1749" on="0"/>
        <pt x="490" y="1798" on="0"/>
        <pt x="545" y="1868" on="0"/>
        <pt x="576" y="1948" on="0"/>
        <pt x="582" y="1980" on="1"/>
        <pt x="683" y="1980" on="1"/>
        <pt x="684" y="1966" on="0"/>
        <pt x="681" y="1948" on="1"/>
        <pt x="675" y="1893" on="0"/>
        <pt x="623" y="1782" on="0"/>
        <pt x="537" y="1693" on="0"/>
        <pt x="419" y="1637" on="0"/>
      </contour>
    </TTGlyph>
    <TTGlyph name="brokenbar" xMin="375" yMin="-186" xMax="506" yMax="1780">
      <contour>
        <pt x="375" y="1780" on="1"/>
        <pt x="506" y="1780" on="1"/>
        <pt x="506" y="886" on="1"/>
        <pt x="375" y="886" on="1"/>
      </contour>
      <contour>
        <pt x="375" y="708" on="1"/>
        <pt x="506" y="708" on="1"/>
        <pt x="506" y="-186" on="1"/>
        <pt x="375" y="-186" on="1"/>
      </contour>
    </TTGlyph>
    <TTGlyph name="bullet" xMin="282" yMin="557" xMax="613" yMax="891">
      <contour>
        <pt x="419" y="557" on="1"/>
        <pt x="390" y="557" on="0"/>
        <pt x="340" y="578" on="0"/>
        <pt x="303" y="615" on="0"/>
        <pt x="282" y="665" on="0"/>
        <pt x="282" y="693" on="1"/>
        <pt x="282" y="728" on="0"/>
        <pt x="312" y="798" on="0"/>
        <pt x="364" y="855" on="0"/>
        <pt x="436" y="891" on="0"/>
        <pt x="477" y="891" on="1"/>
        <pt x="506" y="891" on="0"/>
        <pt x="556" y="871" on="0"/>
        <pt x="592" y="836" on="0"/>
        <pt x="613" y="787" on="0"/>
        <pt x="613" y="758" on="1"/>
        <pt x="613" y="723" on="0"/>
        <pt x="586" y="652" on="0"/>
        <pt x="535" y="594" on="0"/>
        <pt x="463" y="557" on="0"/>
      </contour>
    </TTGlyph>
    <TTGlyph name="c" xMin="89" yMin="-16" xMax="883" yMax="1156">
      <contour>
        <pt x="89" y="433" on="1"/>
        <pt x="89" y="512" on="0"/>
        <pt x="121" y="680" on="0"/>
        <pt x="186" y="841" on="0"/>
        <pt x="282" y="984" on="0"/>
        <pt x="410" y="1093" on="0"/>
        <pt x="569" y="1156" on="0"/>
        <pt x="664" y="1156" on="1"/>
        <pt x="691" y="1156" on="0"/>
        <pt x="750" y="1151" on="0"/>
        <pt x="808" y="1141" on="0"/>
        <pt x="862" y="1126" on="0"/>
        <pt x="883" y="1115" on="1"/>
        <pt x="844" y="987" on="1"/>
        <pt x="806" y="1017" on="0"/>
        <pt x="704" y="1044" on="0"/>
        <pt x="650" y="1044" on="1"/>
        <pt x="569" y="1044" on="0"/>
        <pt x="420" y="948" on="0"/>
        <pt x="308" y="785" on="0"/>
        <pt x="241" y="568" on="0"/>
        <pt x="241" y="448" on="1"/>
        <pt x="241" y="267" on="0"/>
        <pt x="364" y="98" on="0"/>
        <pt x="483" y="98" on="1"/>
        <pt x="568" y="98" on="0"/>
        <pt x="704" y="180" on="0"/>
        <pt x="769" y="245" on="1"/>
        <pt x="819" y="163" on="1"/>
        <pt x="800" y="138" on="0"/>
        <pt x="734" y="76" on="0"/>
        <pt x="643" y="21" on="0"/>
        <pt x="528" y="-16" on="0"/>
        <pt x="461" y="-16" on="1"/>
        <pt x="370" y="-16" on="0"/>
        <pt x="231" y="46" on="0"/>
        <pt x="137" y="162" on="0"/>
        <pt x="89" y="329" on="0"/>
      </contour>
    </TTGlyph>
    <TTGlyph name="cacute" xMin="89" yMin="-16" xMax="988" yMax="1704">
      <component glyphName="acute" x="507" y="0" flags="0x4"/>
      <component glyphName="c" x="0" y="0" flags="0x4"/>
    </TTGlyph>
    <TTGlyph name="caron" xMin="80" yMin="1285" xMax="792" yMax="1680">
      <contour>
        <pt x="80" y="1613" on="1"/>
        <pt x="147" y="1680" on="1"/>
        <pt x="396" y="1401" on="1"/>
        <pt x="729" y="1680" on="1"/>
        <pt x="792" y="1613" on="1"/>
        <pt x="457" y="1285" on="1"/>
        <pt x="322" y="1285" on="1"/>
      </contour>
    </TTGlyph>
    <TTGlyph name="caron.cap" xMin="50" yMin="1614" xMax="745" yMax="2000">
      <contour>
        <pt x="50" y="1933" on="1"/>
        <pt x="117" y="2000" on="1"/>
        <pt x="361" y="1730" on="1"/>
        <pt x="682" y="2000" on="1"/>
        <pt x="745" y="1933" on="1"/>
        <pt x="423" y="1614" on="1"/>
        <pt x="288" y="1614" on="1"/>
      </contour>
    </TTGlyph>
    <TTGlyph name="caronvertical" xMin="197" yMin="1038" xMax="409" yMax="1680">
      <contour>
        <pt x="201" y="1068" on="1"/>
        <pt x="197" y="1088" on="1"/>
        <pt x="209" y="1121" on="0"/>
        <pt x="233" y="1199" on="0"/>
        <pt x="252" y="1285" on="0"/>
        <pt x="266" y="1375" on="0"/>
        <pt x="268" y="1421" on="1"/>
        <pt x="270" y="1489" on="0"/>
        <pt x="254" y="1597" on="0"/>
        <pt x="239" y="1620" on="1"/>
        <pt x="246" y="1645" on="1"/>
        <pt x="379" y="1680" on="1"/>
        <pt x="399" y="1641" on="0"/>
        <pt x="409" y="1523" on="0"/>
        <pt x="407" y="1450" on="1"/>
        <pt x="405" y="1396" on="0"/>
        <pt x="384" y="1283" on="0"/>
        <pt x="350" y="1174" on="0"/>
        <pt x="305" y="1076" on="0"/>
        <pt x="279" y="1038" on="1"/>
      </contour>
    </TTGlyph>
    <TTGlyph name="ccaron" xMin="89" yMin="-16" xMax="1085" yMax="1680">
      <component glyphName="caron" x="293" y="0" flags="0x4"/>
      <component glyphName="c" x="0" y="0" flags="0x4"/>
    </TTGlyph>
    <TTGlyph name="ccedilla" xMin="89" yMin="-465" xMax="883" yMax="1156">
      <contour>
        <pt x="160" y="-321" on="1"/>
        <pt x="173" y="-328" on="0"/>
        <pt x="216" y="-339" on="0"/>
        <pt x="248" y="-339" on="1"/>
        <pt x="285" y="-339" on="0"/>
        <pt x="348" y="-319" on="0"/>
        <pt x="393" y="-273" on="0"/>
        <pt x="418" y="-200" on="0"/>
        <pt x="418" y="-146" on="1"/>
        <pt x="418" y="-113" on="0"/>
        <pt x="414" y="-42" on="0"/>
        <pt x="409" y="-13" on="1"/>
        <pt x="331" y="-4" on="0"/>
        <pt x="211" y="65" on="0"/>
        <pt x="130" y="179" on="0"/>
        <pt x="89" y="336" on="0"/>
        <pt x="89" y="433" on="1"/>
        <pt x="89" y="512" on="0"/>
        <pt x="121" y="680" on="0"/>
        <pt x="186" y="841" on="0"/>
        <pt x="282" y="984" on="0"/>
        <pt x="410" y="1093" on="0"/>
        <pt x="569" y="1156" on="0"/>
        <pt x="664" y="1156" on="1"/>
        <pt x="691" y="1156" on="0"/>
        <pt x="750" y="1151" on="0"/>
        <pt x="808" y="1141" on="0"/>
        <pt x="862" y="1126" on="0"/>
        <pt x="883" y="1115" on="1"/>
        <pt x="844" y="987" on="1"/>
        <pt x="806" y="1017" on="0"/>
        <pt x="704" y="1044" on="0"/>
        <pt x="650" y="1044" on="1"/>
        <pt x="569" y="1044" on="0"/>
        <pt x="420" y="948" on="0"/>
        <pt x="308" y="785" on="0"/>
        <pt x="241" y="568" on="0"/>
        <pt x="241" y="448" on="1"/>
        <pt x="241" y="267" on="0"/>
        <pt x="364" y="98" on="0"/>
        <pt x="483" y="98" on="1"/>
        <pt x="568" y="98" on="0"/>
        <pt x="704" y="180" on="0"/>
        <pt x="769" y="245" on="1"/>
        <pt x="819" y="163" on="1"/>
        <pt x="802" y="141" on="0"/>
        <pt x="746" y="87" on="0"/>
        <pt x="671" y="36" on="0"/>
        <pt x="576" y="-4" on="0"/>
        <pt x="520" y="-12" on="1"/>
        <pt x="534" y="-44" on="0"/>
        <pt x="549" y="-127" on="0"/>
        <pt x="549" y="-181" on="1"/>
        <pt x="549" y="-262" on="0"/>
        <pt x="507" y="-371" on="0"/>
        <pt x="435" y="-437" on="0"/>
        <pt x="340" y="-465" on="0"/>
        <pt x="286" y="-465" on="1"/>
        <pt x="266" y="-465" on="0"/>
        <pt x="222" y="-460" on="0"/>
        <pt x="181" y="-453" on="0"/>
        <pt x="148" y="-442" on="0"/>
        <pt x="140" y="-436" on="1"/>
        <pt x="160" y="-321" on="1"/>
      </contour>
    </TTGlyph>
    <TTGlyph name="ccircumflex" xMin="89" yMin="-16" xMax="1028" yMax="1710">
      <component glyphName="circumflex" x="248" y="0" flags="0x4"/>
      <component glyphName="c" x="0" y="0" flags="0x4"/>
    </TTGlyph>
    <TTGlyph name="cdotaccent" xMin="89" yMin="-16" xMax="883" yMax="1640">
      <component glyphName="c" x="0" y="0" flags="0x204"/>
      <component glyphName="dotaccent" x="520" y="0" flags="0x4"/>
    </TTGlyph>
    <TTGlyph name="cedilla" xMin="3" yMin="-465" xMax="412" yMax="26">
      <contour>
        <pt x="324" y="26" on="1"/>
        <pt x="365" y="22" on="1"/>
        <pt x="386" y="-11" on="0"/>
        <pt x="412" y="-111" on="0"/>
        <pt x="412" y="-181" on="1"/>
        <pt x="412" y="-262" on="0"/>
        <pt x="370" y="-371" on="0"/>
        <pt x="298" y="-437" on="0"/>
        <pt x="203" y="-465" on="0"/>
        <pt x="149" y="-465" on="1"/>
        <pt x="129" y="-465" on="0"/>
        <pt x="85" y="-460" on="0"/>
        <pt x="44" y="-453" on="0"/>
        <pt x="11" y="-442" on="0"/>
        <pt x="3" y="-436" on="1"/>
        <pt x="23" y="-321" on="1"/>
        <pt x="36" y="-328" on="0"/>
        <pt x="79" y="-339" on="0"/>
        <pt x="111" y="-339" on="1"/>
        <pt x="148" y="-339" on="0"/>
        <pt x="211" y="-319" on="0"/>
        <pt x="256" y="-273" on="0"/>
        <pt x="281" y="-200" on="0"/>
        <pt x="281" y="-146" on="1"/>
        <pt x="281" y="-124" on="0"/>
        <pt x="279" y="-77" on="0"/>
        <pt x="276" y="-32" on="0"/>
        <pt x="269" y="7" on="0"/>
        <pt x="265" y="22" on="1"/>
      </contour>
    </TTGlyph>
    <TTGlyph name="cent" xMin="140" yMin="-215" xMax="934" yMax="1358">
      <contour>
        <pt x="414" y="-5" on="1"/>
        <pt x="346" y="10" on="0"/>
        <pt x="244" y="84" on="0"/>
        <pt x="175" y="196" on="0"/>
        <pt x="140" y="344" on="0"/>
        <pt x="140" y="433" on="1"/>
        <pt x="140" y="505" on="0"/>
        <pt x="167" y="660" on="0"/>
        <pt x="222" y="810" on="0"/>
        <pt x="304" y="947" on="0"/>
        <pt x="412" y="1057" on="0"/>
        <pt x="547" y="1134" on="0"/>
        <pt x="628" y="1148" on="1"/>
        <pt x="678" y="1358" on="1"/>
        <pt x="794" y="1358" on="1"/>
        <pt x="744" y="1155" on="1"/>
        <pt x="794" y="1153" on="0"/>
        <pt x="896" y="1134" on="0"/>
        <pt x="934" y="1115" on="1"/>
        <pt x="895" y="987" on="1"/>
        <pt x="857" y="1017" on="0"/>
        <pt x="755" y="1044" on="0"/>
        <pt x="701" y="1044" on="1"/>
        <pt x="620" y="1044" on="0"/>
        <pt x="471" y="948" on="0"/>
        <pt x="359" y="785" on="0"/>
        <pt x="292" y="568" on="0"/>
        <pt x="292" y="448" on="1"/>
        <pt x="292" y="267" on="0"/>
        <pt x="415" y="98" on="0"/>
        <pt x="534" y="98" on="1"/>
        <pt x="619" y="98" on="0"/>
        <pt x="755" y="180" on="0"/>
        <pt x="820" y="245" on="1"/>
        <pt x="870" y="163" on="1"/>
        <pt x="851" y="139" on="0"/>
        <pt x="788" y="79" on="0"/>
        <pt x="701" y="25" on="0"/>
        <pt x="591" y="-14" on="0"/>
        <pt x="527" y="-16" on="1"/>
        <pt x="490" y="-215" on="1"/>
        <pt x="375" y="-215" on="1"/>
        <pt x="414" y="-5" on="1"/>
      </contour>
    </TTGlyph>
    <TTGlyph name="circumflex" xMin="97" yMin="1275" xMax="780" yMax="1710">
      <contour>
        <pt x="97" y="1334" on="1"/>
        <pt x="440" y="1710" on="1"/>
        <pt x="577" y="1710" on="1"/>
        <pt x="780" y="1333" on="1"/>
        <pt x="707" y="1280" on="1"/>
        <pt x="489" y="1574" on="1"/>
        <pt x="156" y="1275" on="1"/>
      </contour>
    </TTGlyph>
    <TTGlyph name="circumflex.cap" xMin="51" yMin="1594" xMax="732" yMax="2000">
      <contour>
        <pt x="51" y="1653" on="1"/>
        <pt x="391" y="2000" on="1"/>
        <pt x="527" y="2000" on="1"/>
        <pt x="732" y="1652" on="1"/>
        <pt x="659" y="1599" on="1"/>
        <pt x="440" y="1864" on="1"/>
        <pt x="110" y="1594" on="1"/>
      </contour>
    </TTGlyph>
    <TTGlyph name="colon" xMin="84" yMin="-17" xMax="393" yMax="1035">
      <component glyphName="period" x="-16" y="0" flags="0x204"/>
      <component glyphName="period" x="81" y="832" flags="0x4"/>
    </TTGlyph>
    <TTGlyph name="colonmonetary" xMin="174" yMin="-354" xMax="1281" yMax="1815">
      <contour>
        <pt x="463" y="40" on="1"/>
        <pt x="386" y="82" on="0"/>
        <pt x="276" y="217" on="0"/>
        <pt x="206" y="380" on="0"/>
        <pt x="174" y="563" on="0"/>
        <pt x="174" y="653" on="1"/>
        <pt x="174" y="823" on="0"/>
        <pt x="259" y="1111" on="0"/>
        <pt x="413" y="1334" on="0"/>
        <pt x="627" y="1486" on="0"/>
        <pt x="755" y="1520" on="1"/>
        <pt x="814" y="1815" on="1"/>
        <pt x="905" y="1815" on="1"/>
        <pt x="850" y="1539" on="1"/>
        <pt x="876" y="1542" on="0"/>
        <pt x="930" y="1546" on="0"/>
        <pt x="957" y="1546" on="1"/>
        <pt x="972" y="1546" on="0"/>
        <pt x="1001" y="1545" on="0"/>
        <pt x="1015" y="1544" on="1"/>
        <pt x="1069" y="1815" on="1"/>
        <pt x="1159" y="1815" on="1"/>
        <pt x="1103" y="1535" on="1"/>
        <pt x="1160" y="1527" on="0"/>
        <pt x="1247" y="1503" on="0"/>
        <pt x="1281" y="1492" on="1"/>
        <pt x="1232" y="1371" on="1"/>
        <pt x="1215" y="1383" on="0"/>
        <pt x="1138" y="1411" on="0"/>
        <pt x="1081" y="1420" on="1"/>
        <pt x="820" y="102" on="1"/>
        <pt x="923" y="113" on="0"/>
        <pt x="1072" y="170" on="0"/>
        <pt x="1129" y="208" on="1"/>
        <pt x="1172" y="111" on="1"/>
        <pt x="1150" y="88" on="0"/>
        <pt x="1076" y="48" on="0"/>
        <pt x="979" y="15" on="0"/>
        <pt x="862" y="-7" on="0"/>
        <pt x="797" y="-12" on="1"/>
        <pt x="730" y="-354" on="1"/>
        <pt x="640" y="-354" on="1"/>
        <pt x="707" y="-16" on="1"/>
        <pt x="698" y="-16" on="1"/>
        <pt x="656" y="-16" on="0"/>
        <pt x="581" y="-5" on="0"/>
        <pt x="547" y="5" on="1"/>
        <pt x="476" y="-354" on="1"/>
        <pt x="385" y="-354" on="1"/>
      </contour>
      <contour>
        <pt x="571" y="126" on="1"/>
        <pt x="638" y="97" on="0"/>
        <pt x="720" y="97" on="1"/>
        <pt x="729" y="97" on="1"/>
        <pt x="993" y="1430" on="1"/>
        <pt x="978" y="1431" on="0"/>
        <pt x="947" y="1432" on="0"/>
        <pt x="931" y="1432" on="1"/>
        <pt x="876" y="1432" on="0"/>
        <pt x="827" y="1423" on="1"/>
      </contour>
      <contour>
        <pt x="490" y="178" on="1"/>
        <pt x="731" y="1398" on="1"/>
        <pt x="641" y="1365" on="0"/>
        <pt x="495" y="1237" on="0"/>
        <pt x="393" y="1054" on="0"/>
        <pt x="336" y="818" on="0"/>
        <pt x="334" y="677" on="1"/>
        <pt x="333" y="598" on="0"/>
        <pt x="349" y="451" on="0"/>
        <pt x="387" y="322" on="0"/>
        <pt x="447" y="216" on="0"/>
      </contour>
    </TTGlyph>
    <TTGlyph name="comma" xMin="-22" yMin="-501" xMax="343" yMax="265">
      <contour>
        <pt x="96" y="168" on="1"/>
        <pt x="175" y="265" on="1"/>
        <pt x="224" y="243" on="0"/>
        <pt x="289" y="174" on="0"/>
        <pt x="328" y="93" on="0"/>
        <pt x="343" y="7" on="0"/>
        <pt x="343" y="-31" on="1"/>
        <pt x="343" y="-115" on="0"/>
        <pt x="298" y="-262" on="0"/>
        <pt x="216" y="-384" on="0"/>
        <pt x="102" y="-474" on="0"/>
        <pt x="33" y="-501" on="1"/>
        <pt x="-22" y="-434" on="1"/>
        <pt x="-20" y="-416" on="1"/>
        <pt x="20" y="-396" on="0"/>
        <pt x="94" y="-332" on="0"/>
        <pt x="151" y="-247" on="0"/>
        <pt x="184" y="-142" on="0"/>
        <pt x="184" y="-81" on="1"/>
        <pt x="184" y="-3" on="0"/>
        <pt x="131" y="108" on="0"/>
        <pt x="90" y="127" on="1"/>
      </contour>
    </TTGlyph>
    <TTGlyph name="commaaccent" xMin="26" yMin="-560" xMax="261" yMax="-52">
      <contour>
        <pt x="142" y="-52" on="1"/>
        <pt x="170" y="-61" on="0"/>
        <pt x="215" y="-103" on="0"/>
        <pt x="245" y="-160" on="0"/>
        <pt x="261" y="-228" on="0"/>
        <pt x="261" y="-262" on="1"/>
        <pt x="261" y="-324" on="0"/>
        <pt x="227" y="-427" on="0"/>
        <pt x="175" y="-504" on="0"/>
        <pt x="114" y="-553" on="0"/>
        <pt x="87" y="-560" on="1"/>
        <pt x="26" y="-521" on="1"/>
        <pt x="28" y="-501" on="1"/>
        <pt x="65" y="-476" on="0"/>
        <pt x="116" y="-382" on="0"/>
        <pt x="116" y="-310" on="1"/>
        <pt x="116" y="-268" on="0"/>
        <pt x="76" y="-197" on="0"/>
        <pt x="44" y="-184" on="1"/>
        <pt x="48" y="-143" on="1"/>
      </contour>
    </TTGlyph>
    <TTGlyph name="copyright" xMin="196" yMin="90" xMax="1877" yMax="1783">
      <contour>
        <pt x="196" y="938" on="1"/>
        <pt x="196" y="1055" on="0"/>
        <pt x="255" y="1272" on="0"/>
        <pt x="364" y="1459" on="0"/>
        <pt x="517" y="1613" on="0"/>
        <pt x="704" y="1723" on="0"/>
        <pt x="919" y="1783" on="0"/>
        <pt x="1036" y="1783" on="1"/>
        <pt x="1153" y="1783" on="0"/>
        <pt x="1369" y="1723" on="0"/>
        <pt x="1556" y="1613" on="0"/>
        <pt x="1709" y="1459" on="0"/>
        <pt x="1818" y="1272" on="0"/>
        <pt x="1877" y="1055" on="0"/>
        <pt x="1877" y="938" on="1"/>
        <pt x="1877" y="821" on="0"/>
        <pt x="1817" y="604" on="0"/>
        <pt x="1709" y="415" on="0"/>
        <pt x="1555" y="261" on="0"/>
        <pt x="1369" y="150" on="0"/>
        <pt x="1153" y="90" on="0"/>
        <pt x="1036" y="90" on="1"/>
        <pt x="919" y="90" on="0"/>
        <pt x="704" y="150" on="0"/>
        <pt x="517" y="261" on="0"/>
        <pt x="364" y="415" on="0"/>
        <pt x="256" y="604" on="0"/>
        <pt x="196" y="821" on="0"/>
      </contour>
      <contour>
        <pt x="306" y="938" on="1"/>
        <pt x="306" y="835" on="0"/>
        <pt x="357" y="644" on="0"/>
        <pt x="450" y="477" on="0"/>
        <pt x="581" y="341" on="0"/>
        <pt x="743" y="243" on="0"/>
        <pt x="932" y="190" on="0"/>
        <pt x="1036" y="190" on="1"/>
        <pt x="1192" y="190" on="0"/>
        <pt x="1459" y="308" on="0"/>
        <pt x="1656" y="511" on="0"/>
        <pt x="1767" y="783" on="0"/>
        <pt x="1767" y="938" on="1"/>
        <pt x="1767" y="1041" on="0"/>
        <pt x="1717" y="1231" on="0"/>
        <pt x="1624" y="1398" on="0"/>
        <pt x="1492" y="1535" on="0"/>
        <pt x="1330" y="1632" on="0"/>
        <pt x="1140" y="1686" on="0"/>
        <pt x="1036" y="1686" on="1"/>
        <pt x="932" y="1686" on="0"/>
        <pt x="743" y="1632" on="0"/>
        <pt x="581" y="1535" on="0"/>
        <pt x="449" y="1398" on="0"/>
        <pt x="356" y="1231" on="0"/>
        <pt x="306" y="1041" on="0"/>
      </contour>
      <contour>
        <pt x="607" y="932" on="1"/>
        <pt x="607" y="1033" on="0"/>
        <pt x="669" y="1209" on="0"/>
        <pt x="790" y="1339" on="0"/>
        <pt x="969" y="1413" on="0"/>
        <pt x="1085" y="1413" on="1"/>
        <pt x="1128" y="1413" on="0"/>
        <pt x="1200" y="1402" on="0"/>
        <pt x="1259" y="1387" on="0"/>
        <pt x="1302" y="1369" on="0"/>
        <pt x="1317" y="1362" on="1"/>
        <pt x="1290" y="1237" on="1"/>
        <pt x="1252" y="1260" on="0"/>
        <pt x="1143" y="1292" on="0"/>
        <pt x="1071" y="1292" on="1"/>
        <pt x="995" y="1292" on="0"/>
        <pt x="877" y="1237" on="0"/>
        <pt x="797" y="1143" on="0"/>
        <pt x="755" y="1015" on="0"/>
        <pt x="755" y="943" on="1"/>
        <pt x="755" y="856" on="0"/>
        <pt x="800" y="723" on="0"/>
        <pt x="880" y="633" on="0"/>
        <pt x="989" y="588" on="0"/>
        <pt x="1052" y="588" on="1"/>
        <pt x="1130" y="588" on="0"/>
        <pt x="1263" y="629" on="0"/>
        <pt x="1307" y="655" on="1"/>
        <pt x="1343" y="560" on="1"/>
        <pt x="1319" y="540" on="0"/>
        <pt x="1253" y="507" on="0"/>
        <pt x="1172" y="481" on="0"/>
        <pt x="1081" y="467" on="0"/>
        <pt x="1032" y="467" on="1"/>
        <pt x="932" y="467" on="0"/>
        <pt x="774" y="543" on="0"/>
        <pt x="665" y="671" on="0"/>
        <pt x="607" y="840" on="0"/>
      </contour>
    </TTGlyph>
    <TTGlyph name="currency" xMin="227" yMin="143" xMax="1312" yMax="1236">
      <contour>
        <pt x="419" y="419" on="1"/>
        <pt x="375" y="476" on="0"/>
        <pt x="326" y="612" on="0"/>
        <pt x="326" y="690" on="1"/>
        <pt x="326" y="766" on="0"/>
        <pt x="374" y="902" on="0"/>
        <pt x="418" y="958" on="1"/>
        <pt x="227" y="1149" on="1"/>
        <pt x="314" y="1236" on="1"/>
        <pt x="505" y="1043" on="1"/>
        <pt x="560" y="1083" on="0"/>
        <pt x="692" y="1128" on="0"/>
        <pt x="766" y="1128" on="1"/>
        <pt x="843" y="1128" on="0"/>
        <pt x="981" y="1079" on="0"/>
        <pt x="1038" y="1035" on="1"/>
        <pt x="1225" y="1223" on="1"/>
        <pt x="1312" y="1136" on="1"/>
        <pt x="1122" y="946" on="1"/>
        <pt x="1162" y="892" on="0"/>
        <pt x="1206" y="762" on="0"/>
        <pt x="1206" y="690" on="1"/>
        <pt x="1206" y="615" on="0"/>
        <pt x="1160" y="482" on="0"/>
        <pt x="1118" y="427" on="1"/>
        <pt x="1310" y="235" on="1"/>
        <pt x="1223" y="149" on="1"/>
        <pt x="1031" y="340" on="1"/>
        <pt x="975" y="298" on="0"/>
        <pt x="841" y="252" on="0"/>
        <pt x="766" y="252" on="1"/>
        <pt x="694" y="252" on="0"/>
        <pt x="563" y="295" on="0"/>
        <pt x="508" y="334" on="1"/>
        <pt x="317" y="143" on="1"/>
        <pt x="230" y="229" on="1"/>
      </contour>
      <contour>
        <pt x="440" y="690" on="1"/>
        <pt x="440" y="621" on="0"/>
        <pt x="491" y="498" on="0"/>
        <pt x="580" y="407" on="0"/>
        <pt x="698" y="354" on="0"/>
        <pt x="766" y="354" on="1"/>
        <pt x="834" y="354" on="0"/>
        <pt x="953" y="407" on="0"/>
        <pt x="1041" y="498" on="0"/>
        <pt x="1092" y="621" on="0"/>
        <pt x="1092" y="690" on="1"/>
        <pt x="1092" y="759" on="0"/>
        <pt x="1041" y="882" on="0"/>
        <pt x="953" y="973" on="0"/>
        <pt x="834" y="1026" on="0"/>
        <pt x="766" y="1026" on="1"/>
        <pt x="698" y="1026" on="0"/>
        <pt x="580" y="973" on="0"/>
        <pt x="491" y="882" on="0"/>
        <pt x="440" y="759" on="0"/>
      </contour>
    </TTGlyph>
    <TTGlyph name="d" xMin="79" yMin="-16" xMax="1114" yMax="1637">
      <contour>
        <pt x="397" y="-16" on="1"/>
        <pt x="316" y="-16" on="0"/>
        <pt x="196" y="47" on="0"/>
        <pt x="117" y="161" on="0"/>
        <pt x="79" y="320" on="0"/>
        <pt x="79" y="416" on="1"/>
        <pt x="79" y="494" on="0"/>
        <pt x="113" y="665" on="0"/>
        <pt x="182" y="830" on="0"/>
        <pt x="287" y="978" on="0"/>
        <pt x="430" y="1090" on="0"/>
        <pt x="609" y="1156" on="0"/>
        <pt x="719" y="1156" on="1"/>
        <pt x="761" y="1156" on="0"/>
        <pt x="854" y="1142" on="0"/>
        <pt x="896" y="1131" on="1"/>
        <pt x="966" y="1637" on="1"/>
        <pt x="1114" y="1637" on="1"/>
        <pt x="890" y="0" on="1"/>
        <pt x="758" y="0" on="1"/>
        <pt x="778" y="208" on="1"/>
        <pt x="750" y="168" on="0"/>
        <pt x="671" y="88" on="0"/>
        <pt x="574" y="24" on="0"/>
        <pt x="460" y="-16" on="0"/>
      </contour>
      <contour>
        <pt x="423" y="100" on="1"/>
        <pt x="484" y="100" on="0"/>
        <pt x="596" y="153" on="0"/>
        <pt x="692" y="232" on="0"/>
        <pt x="767" y="324" on="0"/>
        <pt x="791" y="363" on="1"/>
        <pt x="880" y="1011" on="1"/>
        <pt x="841" y="1028" on="0"/>
        <pt x="744" y="1047" on="0"/>
        <pt x="696" y="1047" on="1"/>
        <pt x="618" y="1047" on="0"/>
        <pt x="489" y="992" on="0"/>
        <pt x="386" y="898" on="0"/>
        <pt x="309" y="775" on="0"/>
        <pt x="258" y="639" on="0"/>
        <pt x="233" y="498" on="0"/>
        <pt x="233" y="434" on="1"/>
        <pt x="233" y="266" on="0"/>
        <pt x="331" y="100" on="0"/>
      </contour>
    </TTGlyph>
    <TTGlyph name="dagger" xMin="138" yMin="151" xMax="873" yMax="1646">
      <contour>
        <pt x="410" y="1008" on="1"/>
        <pt x="437" y="1146" on="1"/>
        <pt x="138" y="1146" on="1"/>
        <pt x="154" y="1260" on="1"/>
        <pt x="470" y="1260" on="1"/>
        <pt x="481" y="1469" on="1"/>
        <pt x="507" y="1646" on="1"/>
        <pt x="651" y="1646" on="1"/>
        <pt x="622" y="1469" on="1"/>
        <pt x="566" y="1260" on="1"/>
        <pt x="873" y="1260" on="1"/>
        <pt x="857" y="1146" on="1"/>
        <pt x="566" y="1146" on="1"/>
        <pt x="554" y="1008" on="1"/>
        <pt x="396" y="151" on="1"/>
        <pt x="306" y="151" on="1"/>
      </contour>
    </TTGlyph>
    <TTGlyph name="daggerdbl" xMin="131" yMin="-51" xMax="869" yMax="1646">
      <contour>
        <pt x="344" y="510" on="1"/>
        <pt x="373" y="649" on="1"/>
        <pt x="131" y="650" on="1"/>
        <pt x="149" y="764" on="1"/>
        <pt x="400" y="764" on="1"/>
        <pt x="408" y="981" on="1"/>
        <pt x="447" y="1146" on="1"/>
        <pt x="176" y="1146" on="1"/>
        <pt x="192" y="1260" on="1"/>
        <pt x="479" y="1260" on="1"/>
        <pt x="488" y="1469" on="1"/>
        <pt x="514" y="1646" on="1"/>
        <pt x="658" y="1646" on="1"/>
        <pt x="630" y="1469" on="1"/>
        <pt x="575" y="1260" on="1"/>
        <pt x="869" y="1260" on="1"/>
        <pt x="852" y="1146" on="1"/>
        <pt x="575" y="1146" on="1"/>
        <pt x="563" y="981" on="1"/>
        <pt x="509" y="764" on="1"/>
        <pt x="757" y="764" on="1"/>
        <pt x="741" y="650" on="1"/>
        <pt x="501" y="649" on="1"/>
        <pt x="488" y="510" on="1"/>
        <pt x="380" y="-51" on="1"/>
        <pt x="292" y="-51" on="1"/>
      </contour>
    </TTGlyph>
    <TTGlyph name="dcaron" xMin="79" yMin="-16" xMax="1438" yMax="1658">
      <component glyphName="d" x="0" y="0" flags="0x4"/>
      <component glyphName="caronvertical" x="1029" y="-22" flags="0x4"/>
    </TTGlyph>
    <TTGlyph name="dcroat" xMin="79" yMin="-16" xMax="1224" yMax="1637">
      <contour>
        <pt x="397" y="-16" on="1"/>
        <pt x="316" y="-16" on="0"/>
        <pt x="196" y="47" on="0"/>
        <pt x="117" y="161" on="0"/>
        <pt x="79" y="320" on="0"/>
        <pt x="79" y="416" on="1"/>
        <pt x="79" y="494" on="0"/>
        <pt x="113" y="665" on="0"/>
        <pt x="182" y="830" on="0"/>
        <pt x="287" y="978" on="0"/>
        <pt x="430" y="1090" on="0"/>
        <pt x="609" y="1156" on="0"/>
        <pt x="719" y="1156" on="1"/>
        <pt x="761" y="1156" on="0"/>
        <pt x="854" y="1142" on="0"/>
        <pt x="896" y="1131" on="1"/>
        <pt x="918" y="1292" on="1"/>
        <pt x="629" y="1292" on="1"/>
        <pt x="642" y="1392" on="1"/>
        <pt x="932" y="1392" on="1"/>
        <pt x="966" y="1637" on="1"/>
        <pt x="1114" y="1637" on="1"/>
        <pt x="1080" y="1392" on="1"/>
        <pt x="1224" y="1392" on="1"/>
        <pt x="1211" y="1292" on="1"/>
        <pt x="1067" y="1292" on="1"/>
        <pt x="890" y="0" on="1"/>
        <pt x="758" y="0" on="1"/>
        <pt x="778" y="208" on="1"/>
        <pt x="750" y="168" on="0"/>
        <pt x="671" y="88" on="0"/>
        <pt x="574" y="24" on="0"/>
        <pt x="460" y="-16" on="0"/>
      </contour>
      <contour>
        <pt x="423" y="100" on="1"/>
        <pt x="484" y="100" on="0"/>
        <pt x="596" y="153" on="0"/>
        <pt x="692" y="232" on="0"/>
        <pt x="767" y="324" on="0"/>
        <pt x="791" y="363" on="1"/>
        <pt x="880" y="1011" on="1"/>
        <pt x="841" y="1028" on="0"/>
        <pt x="744" y="1047" on="0"/>
        <pt x="696" y="1047" on="1"/>
        <pt x="618" y="1047" on="0"/>
        <pt x="489" y="992" on="0"/>
        <pt x="386" y="898" on="0"/>
        <pt x="309" y="775" on="0"/>
        <pt x="258" y="639" on="0"/>
        <pt x="233" y="498" on="0"/>
        <pt x="233" y="434" on="1"/>
        <pt x="233" y="266" on="0"/>
        <pt x="331" y="100" on="0"/>
      </contour>
    </TTGlyph>
    <TTGlyph name="degree" xMin="146" yMin="955" xMax="802" yMax="1600">
      <contour>
        <pt x="463" y="955" on="1"/>
        <pt x="395" y="955" on="0"/>
        <pt x="278" y="1006" on="0"/>
        <pt x="193" y="1095" on="0"/>
        <pt x="146" y="1213" on="0"/>
        <pt x="147" y="1279" on="1"/>
        <pt x="148" y="1348" on="0"/>
        <pt x="200" y="1465" on="0"/>
        <pt x="289" y="1551" on="0"/>
        <pt x="411" y="1600" on="0"/>
        <pt x="482" y="1600" on="1"/>
        <pt x="551" y="1600" on="0"/>
        <pt x="669" y="1549" on="0"/>
        <pt x="755" y="1462" on="0"/>
        <pt x="802" y="1345" on="0"/>
        <pt x="801" y="1279" on="1"/>
        <pt x="800" y="1210" on="0"/>
        <pt x="747" y="1091" on="0"/>
        <pt x="657" y="1004" on="0"/>
        <pt x="534" y="955" on="0"/>
      </contour>
      <contour>
        <pt x="468" y="1048" on="1"/>
        <pt x="517" y="1048" on="0"/>
        <pt x="599" y="1083" on="0"/>
        <pt x="659" y="1145" on="0"/>
        <pt x="692" y="1229" on="0"/>
        <pt x="693" y="1279" on="1"/>
        <pt x="694" y="1328" on="0"/>
        <pt x="662" y="1411" on="0"/>
        <pt x="604" y="1472" on="0"/>
        <pt x="524" y="1507" on="0"/>
        <pt x="478" y="1507" on="1"/>
        <pt x="430" y="1507" on="0"/>
        <pt x="348" y="1472" on="0"/>
        <pt x="289" y="1411" on="0"/>
        <pt x="256" y="1328" on="0"/>
        <pt x="255" y="1279" on="1"/>
        <pt x="254" y="1231" on="0"/>
        <pt x="286" y="1147" on="0"/>
        <pt x="343" y="1084" on="0"/>
        <pt x="422" y="1048" on="0"/>
      </contour>
    </TTGlyph>
    <TTGlyph name="dieresis" xMin="92" yMin="1410" xMax="721" yMax="1623">
      <contour>
        <pt x="602" y="1410" on="1"/>
        <pt x="564" y="1410" on="0"/>
        <pt x="513" y="1465" on="0"/>
        <pt x="516" y="1508" on="1"/>
        <pt x="517" y="1532" on="0"/>
        <pt x="536" y="1574" on="0"/>
        <pt x="567" y="1605" on="0"/>
        <pt x="607" y="1623" on="0"/>
        <pt x="628" y="1623" on="1"/>
        <pt x="672" y="1623" on="0"/>
        <pt x="721" y="1570" on="0"/>
        <pt x="719" y="1529" on="1"/>
        <pt x="717" y="1504" on="0"/>
        <pt x="698" y="1460" on="0"/>
        <pt x="666" y="1428" on="0"/>
        <pt x="625" y="1410" on="0"/>
      </contour>
      <contour>
        <pt x="181" y="1410" on="1"/>
        <pt x="143" y="1410" on="0"/>
        <pt x="92" y="1465" on="0"/>
        <pt x="95" y="1508" on="1"/>
        <pt x="96" y="1532" on="0"/>
        <pt x="115" y="1574" on="0"/>
        <pt x="146" y="1605" on="0"/>
        <pt x="186" y="1623" on="0"/>
        <pt x="207" y="1623" on="1"/>
        <pt x="251" y="1623" on="0"/>
        <pt x="300" y="1570" on="0"/>
        <pt x="298" y="1529" on="1"/>
        <pt x="296" y="1504" on="0"/>
        <pt x="277" y="1460" on="0"/>
        <pt x="245" y="1428" on="0"/>
        <pt x="204" y="1410" on="0"/>
      </contour>
    </TTGlyph>
    <TTGlyph name="dieresis.cap" xMin="85" yMin="1721" xMax="712" yMax="1935">
      <contour>
        <pt x="592" y="1721" on="1"/>
        <pt x="555" y="1721" on="0"/>
        <pt x="505" y="1775" on="0"/>
        <pt x="506" y="1819" on="1"/>
        <pt x="506" y="1843" on="0"/>
        <pt x="527" y="1886" on="0"/>
        <pt x="560" y="1917" on="0"/>
        <pt x="599" y="1935" on="0"/>
        <pt x="618" y="1935" on="1"/>
        <pt x="663" y="1935" on="0"/>
        <pt x="712" y="1882" on="0"/>
        <pt x="709" y="1840" on="1"/>
        <pt x="707" y="1815" on="0"/>
        <pt x="688" y="1772" on="0"/>
        <pt x="656" y="1740" on="0"/>
        <pt x="615" y="1721" on="0"/>
      </contour>
      <contour>
        <pt x="172" y="1721" on="1"/>
        <pt x="135" y="1721" on="0"/>
        <pt x="85" y="1776" on="0"/>
        <pt x="87" y="1819" on="1"/>
        <pt x="88" y="1843" on="0"/>
        <pt x="109" y="1886" on="0"/>
        <pt x="140" y="1917" on="0"/>
        <pt x="178" y="1935" on="0"/>
        <pt x="197" y="1935" on="1"/>
        <pt x="242" y="1935" on="0"/>
        <pt x="291" y="1882" on="0"/>
        <pt x="289" y="1840" on="1"/>
        <pt x="287" y="1815" on="0"/>
        <pt x="267" y="1772" on="0"/>
        <pt x="236" y="1740" on="0"/>
        <pt x="194" y="1721" on="0"/>
      </contour>
    </TTGlyph>
    <TTGlyph name="divide" xMin="243" yMin="277" xMax="1126" yMax="1270">
      <contour>
        <pt x="716" y="1050" on="1"/>
        <pt x="696" y="1050" on="0"/>
        <pt x="660" y="1063" on="0"/>
        <pt x="634" y="1089" on="0"/>
        <pt x="622" y="1127" on="0"/>
        <pt x="625" y="1152" on="1"/>
        <pt x="628" y="1179" on="0"/>
        <pt x="654" y="1222" on="0"/>
        <pt x="692" y="1253" on="0"/>
        <pt x="737" y="1270" on="0"/>
        <pt x="759" y="1270" on="1"/>
        <pt x="813" y="1270" on="0"/>
        <pt x="855" y="1213" on="0"/>
        <pt x="849" y="1169" on="1"/>
        <pt x="846" y="1141" on="0"/>
        <pt x="820" y="1097" on="0"/>
        <pt x="783" y="1066" on="0"/>
        <pt x="738" y="1050" on="0"/>
      </contour>
      <contour>
        <pt x="257" y="836" on="1"/>
        <pt x="1126" y="836" on="1"/>
        <pt x="1112" y="714" on="1"/>
        <pt x="243" y="714" on="1"/>
      </contour>
      <contour>
        <pt x="530" y="379" on="1"/>
        <pt x="533" y="405" on="0"/>
        <pt x="559" y="449" on="0"/>
        <pt x="597" y="480" on="0"/>
        <pt x="642" y="497" on="0"/>
        <pt x="664" y="497" on="1"/>
        <pt x="718" y="497" on="0"/>
        <pt x="759" y="440" on="0"/>
        <pt x="753" y="396" on="1"/>
        <pt x="750" y="368" on="0"/>
        <pt x="724" y="324" on="0"/>
        <pt x="688" y="293" on="0"/>
        <pt x="643" y="277" on="0"/>
        <pt x="621" y="277" on="1"/>
        <pt x="600" y="277" on="0"/>
        <pt x="565" y="290" on="0"/>
        <pt x="539" y="316" on="0"/>
        <pt x="527" y="354" on="0"/>
      </contour>
    </TTGlyph>
    <TTGlyph name="dollar" xMin="128" yMin="-230" xMax="1090" yMax="1729">
      <contour>
        <pt x="170" y="191" on="1"/>
        <pt x="184" y="176" on="0"/>
        <pt x="252" y="143" on="0"/>
        <pt x="343" y="115" on="0"/>
        <pt x="452" y="97" on="0"/>
        <pt x="506" y="97" on="1"/>
        <pt x="575" y="97" on="0"/>
        <pt x="704" y="129" on="0"/>
        <pt x="804" y="197" on="0"/>
        <pt x="864" y="302" on="0"/>
        <pt x="864" y="374" on="1"/>
        <pt x="864" y="426" on="0"/>
        <pt x="832" y="514" on="0"/>
        <pt x="770" y="592" on="0"/>
        <pt x="679" y="665" on="0"/>
        <pt x="621" y="703" on="1"/>
        <pt x="565" y="739" on="0"/>
        <pt x="448" y="823" on="0"/>
        <pt x="351" y="929" on="0"/>
        <pt x="287" y="1064" on="0"/>
        <pt x="286" y="1150" on="1"/>
        <pt x="284" y="1238" on="0"/>
        <pt x="344" y="1379" on="0"/>
        <pt x="454" y="1479" on="0"/>
        <pt x="605" y="1537" on="0"/>
        <pt x="695" y="1543" on="1"/>
        <pt x="725" y="1729" on="1"/>
        <pt x="862" y="1729" on="1"/>
        <pt x="832" y="1541" on="1"/>
        <pt x="885" y="1536" on="0"/>
        <pt x="967" y="1518" on="0"/>
        <pt x="1030" y="1496" on="0"/>
        <pt x="1075" y="1471" on="0"/>
        <pt x="1090" y="1461" on="1"/>
        <pt x="1042" y="1346" on="1"/>
        <pt x="1021" y="1367" on="0"/>
        <pt x="956" y="1398" on="0"/>
        <pt x="879" y="1419" on="0"/>
        <pt x="794" y="1430" on="0"/>
        <pt x="754" y="1430" on="1"/>
        <pt x="708" y="1430" on="0"/>
        <pt x="599" y="1411" on="0"/>
        <pt x="504" y="1358" on="0"/>
        <pt x="439" y="1264" on="0"/>
        <pt x="437" y="1189" on="1"/>
        <pt x="435" y="1121" on="0"/>
        <pt x="474" y="1020" on="0"/>
        <pt x="547" y="937" on="0"/>
        <pt x="649" y="863" on="0"/>
        <pt x="710" y="823" on="1"/>
        <pt x="763" y="788" on="0"/>
        <pt x="872" y="709" on="0"/>
        <pt x="961" y="611" on="0"/>
        <pt x="1018" y="489" on="0"/>
        <pt x="1020" y="411" on="1"/>
        <pt x="1021" y="314" on="0"/>
        <pt x="957" y="163" on="0"/>
        <pt x="839" y="55" on="0"/>
        <pt x="675" y="-8" on="0"/>
        <pt x="578" y="-17" on="1"/>
        <pt x="543" y="-230" on="1"/>
        <pt x="406" y="-230" on="1"/>
        <pt x="440" y="-18" on="1"/>
        <pt x="386" y="-14" on="0"/>
        <pt x="285" y="4" on="0"/>
        <pt x="203" y="28" on="0"/>
        <pt x="143" y="56" on="0"/>
        <pt x="128" y="68" on="1"/>
      </contour>
    </TTGlyph>
    <TTGlyph name="dong" xMin="56" yMin="0" xMax="1387" yMax="1694">
      <contour>
        <pt x="559" y="291" on="1"/>
        <pt x="484" y="291" on="0"/>
        <pt x="352" y="335" on="0"/>
        <pt x="253" y="424" on="0"/>
        <pt x="196" y="560" on="0"/>
        <pt x="196" y="652" on="1"/>
        <pt x="196" y="773" on="0"/>
        <pt x="274" y="989" on="0"/>
        <pt x="421" y="1152" on="0"/>
        <pt x="634" y="1248" on="0"/>
        <pt x="769" y="1248" on="1"/>
        <pt x="842" y="1248" on="0"/>
        <pt x="937" y="1218" on="0"/>
        <pt x="961" y="1206" on="1"/>
        <pt x="982" y="1354" on="1"/>
        <pt x="989" y="1408" on="1"/>
        <pt x="719" y="1408" on="1"/>
        <pt x="736" y="1521" on="1"/>
        <pt x="1004" y="1521" on="1"/>
        <pt x="1028" y="1694" on="1"/>
        <pt x="1173" y="1694" on="1"/>
        <pt x="1150" y="1521" on="1"/>
        <pt x="1387" y="1521" on="1"/>
        <pt x="1370" y="1408" on="1"/>
        <pt x="1135" y="1408" on="1"/>
        <pt x="988" y="291" on="1"/>
        <pt x="881" y="291" on="1"/>
        <pt x="870" y="291" on="0"/>
        <pt x="865" y="305" on="0"/>
        <pt x="865" y="313" on="1"/>
        <pt x="865" y="316" on="0"/>
        <pt x="870" y="358" on="0"/>
        <pt x="875" y="400" on="1"/>
        <pt x="859" y="385" on="0"/>
        <pt x="807" y="348" on="0"/>
        <pt x="730" y="314" on="0"/>
        <pt x="626" y="291" on="0"/>
      </contour>
      <contour>
        <pt x="577" y="417" on="1"/>
        <pt x="653" y="417" on="0"/>
        <pt x="756" y="444" on="0"/>
        <pt x="822" y="480" on="0"/>
        <pt x="856" y="515" on="0"/>
        <pt x="865" y="524" on="1"/>
        <pt x="938" y="1088" on="1"/>
        <pt x="927" y="1098" on="0"/>
        <pt x="833" y="1125" on="0"/>
        <pt x="749" y="1125" on="1"/>
        <pt x="650" y="1125" on="0"/>
        <pt x="501" y="1051" on="0"/>
        <pt x="401" y="928" on="0"/>
        <pt x="351" y="769" on="0"/>
        <pt x="351" y="684" on="1"/>
        <pt x="351" y="616" on="0"/>
        <pt x="384" y="515" on="0"/>
        <pt x="443" y="449" on="0"/>
        <pt x="526" y="417" on="0"/>
      </contour>
      <contour>
        <pt x="56" y="0" on="1"/>
        <pt x="76" y="135" on="1"/>
        <pt x="1158" y="135" on="1"/>
        <pt x="1137" y="0" on="1"/>
      </contour>
    </TTGlyph>
    <TTGlyph name="dotaccent" xMin="59" yMin="1426" xMax="266" yMax="1640">
      <contour>
        <pt x="147" y="1426" on="1"/>
        <pt x="128" y="1426" on="0"/>
        <pt x="95" y="1441" on="0"/>
        <pt x="72" y="1467" on="0"/>
        <pt x="59" y="1504" on="0"/>
        <pt x="61" y="1525" on="1"/>
        <pt x="62" y="1549" on="0"/>
        <pt x="81" y="1591" on="0"/>
        <pt x="112" y="1622" on="0"/>
        <pt x="151" y="1640" on="0"/>
        <pt x="172" y="1640" on="1"/>
        <pt x="217" y="1640" on="0"/>
        <pt x="266" y="1587" on="0"/>
        <pt x="264" y="1546" on="1"/>
        <pt x="262" y="1521" on="0"/>
        <pt x="243" y="1477" on="0"/>
        <pt x="211" y="1445" on="0"/>
        <pt x="170" y="1426" on="0"/>
      </contour>
    </TTGlyph>
    <TTGlyph name="dotaccent.cap" xMin="56" yMin="1707" xMax="262" yMax="1920">
      <contour>
        <pt x="143" y="1707" on="1"/>
        <pt x="106" y="1707" on="0"/>
        <pt x="56" y="1762" on="0"/>
        <pt x="59" y="1805" on="1"/>
        <pt x="60" y="1829" on="0"/>
        <pt x="80" y="1871" on="0"/>
        <pt x="112" y="1902" on="0"/>
        <pt x="150" y="1920" on="0"/>
        <pt x="169" y="1920" on="1"/>
        <pt x="214" y="1920" on="0"/>
        <pt x="262" y="1867" on="0"/>
        <pt x="260" y="1825" on="1"/>
        <pt x="259" y="1800" on="0"/>
        <pt x="239" y="1757" on="0"/>
        <pt x="207" y="1725" on="0"/>
        <pt x="166" y="1707" on="0"/>
      </contour>
    </TTGlyph>
    <TTGlyph name="dotlessi" xMin="133" yMin="0" xMax="436" yMax="1144">
      <contour>
        <pt x="287" y="1144" on="1"/>
        <pt x="436" y="1144" on="1"/>
        <pt x="281" y="0" on="1"/>
        <pt x="133" y="0" on="1"/>
      </contour>
    </TTGlyph>
    <TTGlyph name="dotlessj" xMin="-244" yMin="-515" xMax="444" yMax="1144">
      <contour>
        <pt x="295" y="1144" on="1"/>
        <pt x="444" y="1144" on="1"/>
        <pt x="291" y="5" on="1"/>
        <pt x="274" y="-118" on="0"/>
        <pt x="207" y="-311" on="0"/>
        <pt x="106" y="-445" on="0"/>
        <pt x="-27" y="-515" on="0"/>
        <pt x="-108" y="-515" on="1"/>
        <pt x="-157" y="-515" on="0"/>
        <pt x="-225" y="-491" on="0"/>
        <pt x="-244" y="-477" on="1"/>
        <pt x="-204" y="-391" on="1"/>
        <pt x="-194" y="-399" on="0"/>
        <pt x="-150" y="-411" on="0"/>
        <pt x="-129" y="-411" on="1"/>
        <pt x="-58" y="-411" on="0"/>
        <pt x="37" y="-339" on="0"/>
        <pt x="99" y="-213" on="0"/>
        <pt x="136" y="-41" on="0"/>
        <pt x="149" y="59" on="1"/>
      </contour>
    </TTGlyph>
    <TTGlyph name="e" xMin="88" yMin="-16" xMax="959" yMax="1156">
      <contour>
        <pt x="90" y="441" on="1"/>
        <pt x="94" y="590" on="0"/>
        <pt x="183" y="851" on="0"/>
        <pt x="338" y="1044" on="0"/>
        <pt x="551" y="1156" on="0"/>
        <pt x="680" y="1156" on="1"/>
        <pt x="751" y="1156" on="0"/>
        <pt x="856" y="1118" on="0"/>
        <pt x="925" y="1050" on="0"/>
        <pt x="959" y="959" on="0"/>
        <pt x="959" y="906" on="1"/>
        <pt x="959" y="823" on="0"/>
        <pt x="886" y="692" on="0"/>
        <pt x="766" y="591" on="0"/>
        <pt x="613" y="519" on="0"/>
        <pt x="455" y="471" on="0"/>
        <pt x="305" y="446" on="0"/>
        <pt x="247" y="443" on="1"/>
        <pt x="244" y="385" on="0"/>
        <pt x="261" y="264" on="0"/>
        <pt x="317" y="165" on="0"/>
        <pt x="416" y="102" on="0"/>
        <pt x="496" y="102" on="1"/>
        <pt x="578" y="102" on="0"/>
        <pt x="758" y="185" on="0"/>
        <pt x="844" y="272" on="1"/>
        <pt x="887" y="186" on="1"/>
        <pt x="866" y="156" on="0"/>
        <pt x="787" y="86" on="0"/>
        <pt x="681" y="25" on="0"/>
        <pt x="552" y="-16" on="0"/>
        <pt x="479" y="-16" on="1"/>
        <pt x="371" y="-16" on="0"/>
        <pt x="220" y="64" on="0"/>
        <pt x="127" y="193" on="0"/>
        <pt x="88" y="357" on="0"/>
      </contour>
      <contour>
        <pt x="252" y="550" on="1"/>
        <pt x="308" y="552" on="0"/>
        <pt x="435" y="575" on="0"/>
        <pt x="559" y="616" on="0"/>
        <pt x="672" y="675" on="0"/>
        <pt x="759" y="750" on="0"/>
        <pt x="810" y="840" on="0"/>
        <pt x="810" y="893" on="1"/>
        <pt x="810" y="971" on="0"/>
        <pt x="723" y="1043" on="0"/>
        <pt x="648" y="1043" on="1"/>
        <pt x="592" y="1043" on="0"/>
        <pt x="494" y="1002" on="0"/>
        <pt x="409" y="930" on="0"/>
        <pt x="340" y="834" on="0"/>
        <pt x="289" y="724" on="0"/>
        <pt x="257" y="607" on="0"/>
      </contour>
    </TTGlyph>
    <TTGlyph name="eacute" xMin="88" yMin="-16" xMax="972" yMax="1704">
      <component glyphName="acute" x="491" y="0" flags="0x4"/>
      <component glyphName="e" x="0" y="0" flags="0x4"/>
    </TTGlyph>
    <TTGlyph name="ebreve" xMin="88" yMin="-16" xMax="981" yMax="1648">
      <component glyphName="e" x="0" y="0" flags="0x204"/>
      <component glyphName="breve" x="297" y="0" flags="0x4"/>
    </TTGlyph>
    <TTGlyph name="ecaron" xMin="88" yMin="-16" xMax="1070" yMax="1680">
      <component glyphName="caron" x="278" y="0" flags="0x4"/>
      <component glyphName="e" x="0" y="0" flags="0x4"/>
    </TTGlyph>
    <TTGlyph name="ecircumflex" xMin="88" yMin="-16" xMax="1013" yMax="1710">
      <component glyphName="circumflex" x="233" y="0" flags="0x4"/>
      <component glyphName="e" x="0" y="0" flags="0x4"/>
    </TTGlyph>
    <TTGlyph name="edieresis" xMin="88" yMin="-16" xMax="981" yMax="1623">
      <component glyphName="dieresis" x="260" y="0" flags="0x4"/>
      <component glyphName="e" x="0" y="0" flags="0x4"/>
    </TTGlyph>
    <TTGlyph name="edotaccent" xMin="88" yMin="-16" xMax="959" yMax="1640">
      <component glyphName="e" x="0" y="0" flags="0x204"/>
      <component glyphName="dotaccent" x="505" y="0" flags="0x4"/>
    </TTGlyph>
    <TTGlyph name="egrave" xMin="88" yMin="-16" xMax="959" yMax="1701">
      <component glyphName="e" x="0" y="0" flags="0x204"/>
      <component glyphName="grave" x="215" y="0" flags="0x4"/>
    </TTGlyph>
    <TTGlyph name="eight" xMin="120" yMin="-17" xMax="1132" yMax="1569">
      <contour>
        <pt x="120" y="348" on="1"/>
        <pt x="120" y="431" on="0"/>
        <pt x="191" y="576" on="0"/>
        <pt x="304" y="696" on="0"/>
        <pt x="446" y="789" on="0"/>
        <pt x="517" y="820" on="1"/>
        <pt x="477" y="851" on="0"/>
        <pt x="398" y="923" on="0"/>
        <pt x="335" y="1009" on="0"/>
        <pt x="296" y="1111" on="0"/>
        <pt x="296" y="1171" on="1"/>
        <pt x="296" y="1268" on="0"/>
        <pt x="368" y="1416" on="0"/>
        <pt x="492" y="1517" on="0"/>
        <pt x="661" y="1569" on="0"/>
        <pt x="758" y="1569" on="1"/>
        <pt x="837" y="1569" on="0"/>
        <pt x="974" y="1524" on="0"/>
        <pt x="1074" y="1440" on="0"/>
        <pt x="1132" y="1319" on="0"/>
        <pt x="1132" y="1243" on="1"/>
        <pt x="1132" y="1169" on="0"/>
        <pt x="1073" y="1034" on="0"/>
        <pt x="972" y="920" on="0"/>
        <pt x="837" y="832" on="0"/>
        <pt x="762" y="805" on="1"/>
        <pt x="817" y="767" on="0"/>
        <pt x="924" y="680" on="0"/>
        <pt x="1009" y="579" on="0"/>
        <pt x="1062" y="465" on="0"/>
        <pt x="1062" y="401" on="1"/>
        <pt x="1062" y="303" on="0"/>
        <pt x="980" y="148" on="0"/>
        <pt x="839" y="40" on="0"/>
        <pt x="651" y="-17" on="0"/>
        <pt x="546" y="-17" on="1"/>
        <pt x="469" y="-17" on="0"/>
        <pt x="317" y="28" on="0"/>
        <pt x="196" y="118" on="0"/>
        <pt x="120" y="255" on="0"/>
      </contour>
      <contour>
        <pt x="683" y="864" on="1"/>
        <pt x="734" y="887" on="0"/>
        <pt x="840" y="957" on="0"/>
        <pt x="927" y="1050" on="0"/>
        <pt x="982" y="1165" on="0"/>
        <pt x="982" y="1232" on="1"/>
        <pt x="982" y="1292" on="0"/>
        <pt x="942" y="1381" on="0"/>
        <pt x="875" y="1441" on="0"/>
        <pt x="788" y="1470" on="0"/>
        <pt x="741" y="1470" on="1"/>
        <pt x="681" y="1470" on="0"/>
        <pt x="574" y="1430" on="0"/>
        <pt x="495" y="1358" on="0"/>
        <pt x="449" y="1258" on="0"/>
        <pt x="449" y="1198" on="1"/>
        <pt x="449" y="1144" on="0"/>
        <pt x="487" y="1050" on="0"/>
        <pt x="552" y="969" on="0"/>
        <pt x="636" y="897" on="0"/>
      </contour>
      <contour>
        <pt x="281" y="367" on="1"/>
        <pt x="281" y="307" on="0"/>
        <pt x="320" y="205" on="0"/>
        <pt x="395" y="130" on="0"/>
        <pt x="504" y="87" on="0"/>
        <pt x="573" y="87" on="1"/>
        <pt x="637" y="87" on="0"/>
        <pt x="755" y="128" on="0"/>
        <pt x="845" y="203" on="0"/>
        <pt x="899" y="308" on="0"/>
        <pt x="899" y="373" on="1"/>
        <pt x="899" y="430" on="0"/>
        <pt x="853" y="533" on="0"/>
        <pt x="772" y="630" on="0"/>
        <pt x="661" y="720" on="0"/>
        <pt x="597" y="763" on="1"/>
        <pt x="544" y="738" on="0"/>
        <pt x="433" y="660" on="0"/>
        <pt x="341" y="559" on="0"/>
        <pt x="282" y="437" on="0"/>
      </contour>
    </TTGlyph>
    <TTGlyph name="ellipsis" xMin="100" yMin="-17" xMax="1329" yMax="203">
      <contour>
        <pt x="1112" y="85" on="1"/>
        <pt x="1120" y="138" on="0"/>
        <pt x="1189" y="203" on="0"/>
        <pt x="1234" y="203" on="1"/>
        <pt x="1288" y="203" on="0"/>
        <pt x="1329" y="146" on="0"/>
        <pt x="1323" y="101" on="1"/>
        <pt x="1315" y="44" on="0"/>
        <pt x="1241" y="-17" on="0"/>
        <pt x="1195" y="-17" on="1"/>
        <pt x="1153" y="-17" on="0"/>
        <pt x="1105" y="34" on="0"/>
      </contour>
      <contour>
        <pt x="610" y="85" on="1"/>
        <pt x="617" y="138" on="0"/>
        <pt x="687" y="203" on="0"/>
        <pt x="731" y="203" on="1"/>
        <pt x="786" y="203" on="0"/>
        <pt x="827" y="146" on="0"/>
        <pt x="821" y="101" on="1"/>
        <pt x="813" y="45" on="0"/>
        <pt x="738" y="-17" on="0"/>
        <pt x="692" y="-17" on="1"/>
        <pt x="650" y="-17" on="0"/>
        <pt x="603" y="34" on="0"/>
      </contour>
      <contour>
        <pt x="107" y="85" on="1"/>
        <pt x="114" y="138" on="0"/>
        <pt x="184" y="203" on="0"/>
        <pt x="228" y="203" on="1"/>
        <pt x="283" y="203" on="0"/>
        <pt x="324" y="146" on="0"/>
        <pt x="318" y="101" on="1"/>
        <pt x="314" y="73" on="0"/>
        <pt x="290" y="29" on="0"/>
        <pt x="255" y="-1" on="0"/>
        <pt x="212" y="-17" on="0"/>
        <pt x="190" y="-17" on="1"/>
        <pt x="148" y="-17" on="0"/>
        <pt x="100" y="34" on="0"/>
      </contour>
    </TTGlyph>
    <TTGlyph name="emacron" xMin="88" yMin="-16" xMax="959" yMax="1548">
      <component glyphName="e" x="0" y="0" flags="0x204"/>
      <component glyphName="macron" x="329" y="0" flags="0x4"/>
    </TTGlyph>
    <TTGlyph name="emdash" xMin="220" yMin="712" xMax="1833" yMax="833">
      <contour>
        <pt x="242" y="833" on="1"/>
        <pt x="1833" y="833" on="1"/>
        <pt x="1810" y="712" on="1"/>
        <pt x="220" y="712" on="1"/>
      </contour>
    </TTGlyph>
    <TTGlyph name="endash" xMin="220" yMin="712" xMax="1340" yMax="833">
      <contour>
        <pt x="243" y="833" on="1"/>
        <pt x="1340" y="833" on="1"/>
        <pt x="1317" y="712" on="1"/>
        <pt x="220" y="712" on="1"/>
      </contour>
    </TTGlyph>
    <TTGlyph name="eng" xMin="93" yMin="-518" xMax="1061" yMax="1156">
      <contour>
        <pt x="248" y="1140" on="1"/>
        <pt x="389" y="1140" on="1"/>
        <pt x="359" y="872" on="1"/>
        <pt x="404" y="928" on="0"/>
        <pt x="515" y="1031" on="0"/>
        <pt x="640" y="1109" on="0"/>
        <pt x="771" y="1156" on="0"/>
        <pt x="836" y="1156" on="1"/>
        <pt x="949" y="1156" on="0"/>
        <pt x="1061" y="1018" on="0"/>
        <pt x="1061" y="863" on="1"/>
        <pt x="1060" y="824" on="0"/>
        <pt x="1049" y="711" on="0"/>
        <pt x="1031" y="572" on="0"/>
        <pt x="1007" y="414" on="0"/>
        <pt x="981" y="249" on="0"/>
        <pt x="953" y="80" on="0"/>
        <pt x="940" y="0" on="1"/>
        <pt x="919" y="-131" on="0"/>
        <pt x="841" y="-326" on="0"/>
        <pt x="730" y="-455" on="0"/>
        <pt x="589" y="-518" on="0"/>
        <pt x="505" y="-518" on="1"/>
        <pt x="457" y="-518" on="0"/>
        <pt x="375" y="-496" on="0"/>
        <pt x="358" y="-478" on="1"/>
        <pt x="385" y="-416" on="1"/>
        <pt x="394" y="-421" on="0"/>
        <pt x="420" y="-429" on="0"/>
        <pt x="447" y="-434" on="0"/>
        <pt x="471" y="-437" on="0"/>
        <pt x="479" y="-437" on="1"/>
        <pt x="555" y="-437" on="0"/>
        <pt x="663" y="-355" on="0"/>
        <pt x="738" y="-219" on="0"/>
        <pt x="784" y="-44" on="0"/>
        <pt x="799" y="49" on="1"/>
        <pt x="809" y="114" on="0"/>
        <pt x="834" y="261" on="0"/>
        <pt x="858" y="412" on="0"/>
        <pt x="881" y="562" on="0"/>
        <pt x="899" y="697" on="0"/>
        <pt x="909" y="813" on="0"/>
        <pt x="909" y="855" on="1"/>
        <pt x="909" y="936" on="0"/>
        <pt x="850" y="1019" on="0"/>
        <pt x="775" y="1019" on="1"/>
        <pt x="725" y="1019" on="0"/>
        <pt x="607" y="966" on="0"/>
        <pt x="488" y="880" on="0"/>
        <pt x="378" y="770" on="0"/>
        <pt x="338" y="713" on="1"/>
        <pt x="241" y="0" on="1"/>
        <pt x="93" y="0" on="1"/>
      </contour>
    </TTGlyph>
    <TTGlyph name="eogonek" xMin="88" yMin="-435" xMax="959" yMax="1156">
      <contour>
        <pt x="90" y="441" on="1"/>
        <pt x="94" y="590" on="0"/>
        <pt x="183" y="851" on="0"/>
        <pt x="338" y="1044" on="0"/>
        <pt x="551" y="1156" on="0"/>
        <pt x="680" y="1156" on="1"/>
        <pt x="751" y="1156" on="0"/>
        <pt x="856" y="1118" on="0"/>
        <pt x="925" y="1050" on="0"/>
        <pt x="959" y="959" on="0"/>
        <pt x="959" y="906" on="1"/>
        <pt x="959" y="823" on="0"/>
        <pt x="886" y="692" on="0"/>
        <pt x="766" y="591" on="0"/>
        <pt x="613" y="519" on="0"/>
        <pt x="455" y="471" on="0"/>
        <pt x="305" y="446" on="0"/>
        <pt x="247" y="443" on="1"/>
        <pt x="244" y="385" on="0"/>
        <pt x="261" y="264" on="0"/>
        <pt x="317" y="165" on="0"/>
        <pt x="416" y="102" on="0"/>
        <pt x="496" y="102" on="1"/>
        <pt x="578" y="102" on="0"/>
        <pt x="758" y="185" on="0"/>
        <pt x="844" y="272" on="1"/>
        <pt x="887" y="186" on="1"/>
        <pt x="876" y="170" on="0"/>
        <pt x="844" y="136" on="0"/>
        <pt x="824" y="119" on="1"/>
        <pt x="828" y="121" on="1"/>
        <pt x="813" y="106" on="0"/>
        <pt x="754" y="53" on="0"/>
        <pt x="683" y="-12" on="0"/>
        <pt x="609" y="-85" on="0"/>
        <pt x="548" y="-155" on="0"/>
        <pt x="509" y="-219" on="0"/>
        <pt x="509" y="-242" on="1"/>
        <pt x="509" y="-281" on="0"/>
        <pt x="559" y="-322" on="0"/>
        <pt x="597" y="-322" on="1"/>
        <pt x="639" y="-322" on="0"/>
        <pt x="718" y="-292" on="0"/>
        <pt x="755" y="-263" on="1"/>
        <pt x="795" y="-341" on="1"/>
        <pt x="778" y="-356" on="0"/>
        <pt x="730" y="-389" on="0"/>
        <pt x="668" y="-417" on="0"/>
        <pt x="592" y="-435" on="0"/>
        <pt x="549" y="-435" on="1"/>
        <pt x="498" y="-435" on="0"/>
        <pt x="426" y="-405" on="0"/>
        <pt x="381" y="-360" on="0"/>
        <pt x="361" y="-308" on="0"/>
        <pt x="361" y="-286" on="1"/>
        <pt x="361" y="-241" on="0"/>
        <pt x="412" y="-157" on="0"/>
        <pt x="487" y="-82" on="0"/>
        <pt x="572" y="-20" on="0"/>
        <pt x="607" y="2" on="1"/>
        <pt x="577" y="-6" on="0"/>
        <pt x="513" y="-16" on="0"/>
        <pt x="479" y="-16" on="1"/>
        <pt x="371" y="-16" on="0"/>
        <pt x="220" y="64" on="0"/>
        <pt x="127" y="193" on="0"/>
        <pt x="88" y="357" on="0"/>
      </contour>
      <contour>
        <pt x="252" y="550" on="1"/>
        <pt x="308" y="552" on="0"/>
        <pt x="435" y="575" on="0"/>
        <pt x="559" y="616" on="0"/>
        <pt x="672" y="675" on="0"/>
        <pt x="759" y="750" on="0"/>
        <pt x="810" y="840" on="0"/>
        <pt x="810" y="893" on="1"/>
        <pt x="810" y="971" on="0"/>
        <pt x="723" y="1043" on="0"/>
        <pt x="648" y="1043" on="1"/>
        <pt x="592" y="1043" on="0"/>
        <pt x="494" y="1002" on="0"/>
        <pt x="409" y="930" on="0"/>
        <pt x="340" y="834" on="0"/>
        <pt x="289" y="724" on="0"/>
        <pt x="257" y="607" on="0"/>
      </contour>
    </TTGlyph>
    <TTGlyph name="equal" xMin="99" yMin="358" xMax="997" yMax="987">
      <contour>
        <pt x="182" y="987" on="1"/>
        <pt x="997" y="987" on="1"/>
        <pt x="983" y="867" on="1"/>
        <pt x="169" y="867" on="1"/>
      </contour>
      <contour>
        <pt x="112" y="478" on="1"/>
        <pt x="927" y="478" on="1"/>
        <pt x="913" y="358" on="1"/>
        <pt x="99" y="358" on="1"/>
      </contour>
    </TTGlyph>
    <TTGlyph name="estimated" xMin="113" yMin="-16" xMax="1278" yMax="1358">
      <contour>
        <pt x="340" y="266" on="1"/>
        <pt x="406" y="164" on="0"/>
        <pt x="618" y="74" on="0"/>
        <pt x="753" y="74" on="1"/>
        <pt x="807" y="74" on="0"/>
        <pt x="919" y="93" on="0"/>
        <pt x="1019" y="121" on="0"/>
        <pt x="1102" y="154" on="0"/>
        <pt x="1128" y="169" on="1"/>
        <pt x="1158" y="82" on="1"/>
        <pt x="1126" y="59" on="0"/>
        <pt x="1025" y="23" on="0"/>
        <pt x="909" y="-3" on="0"/>
        <pt x="788" y="-16" on="0"/>
        <pt x="736" y="-16" on="1"/>
        <pt x="589" y="-16" on="0"/>
        <pt x="358" y="78" on="0"/>
        <pt x="197" y="255" on="0"/>
        <pt x="113" y="510" on="0"/>
        <pt x="113" y="671" on="1"/>
        <pt x="113" y="818" on="0"/>
        <pt x="192" y="1067" on="0"/>
        <pt x="349" y="1249" on="0"/>
        <pt x="584" y="1353" on="0"/>
        <pt x="740" y="1356" on="1"/>
        <pt x="848" y="1358" on="0"/>
        <pt x="1040" y="1287" on="0"/>
        <pt x="1186" y="1151" on="0"/>
        <pt x="1274" y="955" on="0"/>
        <pt x="1278" y="832" on="1"/>
        <pt x="1278" y="767" on="0"/>
        <pt x="1275" y="669" on="0"/>
        <pt x="1267" y="631" on="1"/>
        <pt x="340" y="631" on="1"/>
      </contour>
      <contour>
        <pt x="1066" y="737" on="1"/>
        <pt x="1066" y="1117" on="1"/>
        <pt x="1043" y="1150" on="0"/>
        <pt x="980" y="1204" on="0"/>
        <pt x="898" y="1244" on="0"/>
        <pt x="794" y="1266" on="0"/>
        <pt x="730" y="1266" on="1"/>
        <pt x="607" y="1266" on="0"/>
        <pt x="405" y="1168" on="0"/>
        <pt x="340" y="1064" on="1"/>
        <pt x="340" y="737" on="1"/>
      </contour>
    </TTGlyph>
    <TTGlyph name="eth" xMin="89" yMin="-17" xMax="1065" yMax="1816">
      <contour>
        <pt x="89" y="437" on="1"/>
        <pt x="89" y="606" on="0"/>
        <pt x="183" y="873" on="0"/>
        <pt x="338" y="1058" on="0"/>
        <pt x="538" y="1155" on="0"/>
        <pt x="645" y="1155" on="1"/>
        <pt x="687" y="1155" on="0"/>
        <pt x="770" y="1141" on="0"/>
        <pt x="843" y="1113" on="0"/>
        <pt x="903" y="1070" on="0"/>
        <pt x="921" y="1041" on="1"/>
        <pt x="910" y="1114" on="0"/>
        <pt x="872" y="1237" on="0"/>
        <pt x="813" y="1345" on="0"/>
        <pt x="732" y="1441" on="0"/>
        <pt x="680" y="1487" on="1"/>
        <pt x="520" y="1308" on="1"/>
        <pt x="438" y="1376" on="1"/>
        <pt x="601" y="1548" on="1"/>
        <pt x="538" y="1593" on="0"/>
        <pt x="404" y="1664" on="0"/>
        <pt x="348" y="1677" on="1"/>
        <pt x="382" y="1769" on="1"/>
        <pt x="410" y="1762" on="0"/>
        <pt x="482" y="1735" on="0"/>
        <pt x="560" y="1698" on="0"/>
        <pt x="638" y="1655" on="0"/>
        <pt x="673" y="1632" on="1"/>
        <pt x="696" y="1658" on="0"/>
        <pt x="751" y="1720" on="0"/>
        <pt x="775" y="1749" on="1"/>
        <pt x="803" y="1782" on="0"/>
        <pt x="831" y="1816" on="1"/>
        <pt x="907" y="1747" on="1"/>
        <pt x="878" y="1714" on="0"/>
        <pt x="850" y="1682" on="1"/>
        <pt x="826" y="1655" on="0"/>
        <pt x="774" y="1594" on="0"/>
        <pt x="755" y="1572" on="1"/>
        <pt x="762" y="1566" on="1"/>
        <pt x="919" y="1420" on="0"/>
        <pt x="1065" y="1076" on="0"/>
        <pt x="1065" y="868" on="1"/>
        <pt x="1065" y="749" on="0"/>
        <pt x="1032" y="524" on="0"/>
        <pt x="966" y="328" on="0"/>
        <pt x="869" y="165" on="0"/>
        <pt x="741" y="48" on="0"/>
        <pt x="583" y="-17" on="0"/>
        <pt x="489" y="-17" on="1"/>
        <pt x="387" y="-17" on="0"/>
        <pt x="237" y="65" on="0"/>
        <pt x="138" y="195" on="0"/>
        <pt x="89" y="357" on="0"/>
      </contour>
      <contour>
        <pt x="249" y="429" on="1"/>
        <pt x="249" y="363" on="0"/>
        <pt x="283" y="240" on="0"/>
        <pt x="349" y="145" on="0"/>
        <pt x="446" y="88" on="0"/>
        <pt x="510" y="88" on="1"/>
        <pt x="583" y="88" on="0"/>
        <pt x="710" y="171" on="0"/>
        <pt x="810" y="314" on="0"/>
        <pt x="879" y="506" on="0"/>
        <pt x="894" y="615" on="1"/>
        <pt x="897" y="644" on="0"/>
        <pt x="905" y="709" on="0"/>
        <pt x="911" y="770" on="0"/>
        <pt x="914" y="822" on="0"/>
        <pt x="913" y="838" on="1"/>
        <pt x="910" y="859" on="0"/>
        <pt x="876" y="930" on="0"/>
        <pt x="810" y="998" on="0"/>
        <pt x="710" y="1047" on="0"/>
        <pt x="640" y="1047" on="1"/>
        <pt x="547" y="1047" on="0"/>
        <pt x="402" y="943" on="0"/>
        <pt x="301" y="771" on="0"/>
        <pt x="249" y="548" on="0"/>
      </contour>
    </TTGlyph>
    <TTGlyph name="exclam" xMin="129" yMin="-17" xMax="571" yMax="1778">
      <contour>
        <pt x="399" y="1778" on="1"/>
        <pt x="571" y="1778" on="1"/>
        <pt x="356" y="488" on="1"/>
        <pt x="236" y="488" on="1"/>
      </contour>
      <contour>
        <pt x="132" y="85" on="1"/>
        <pt x="135" y="111" on="0"/>
        <pt x="160" y="155" on="0"/>
        <pt x="197" y="186" on="0"/>
        <pt x="243" y="203" on="0"/>
        <pt x="267" y="203" on="1"/>
        <pt x="321" y="203" on="0"/>
        <pt x="363" y="146" on="0"/>
        <pt x="357" y="101" on="1"/>
        <pt x="349" y="44" on="0"/>
        <pt x="272" y="-17" on="0"/>
        <pt x="221" y="-17" on="1"/>
        <pt x="201" y="-17" on="0"/>
        <pt x="165" y="-4" on="0"/>
        <pt x="140" y="22" on="0"/>
        <pt x="129" y="60" on="0"/>
      </contour>
    </TTGlyph>
    <TTGlyph name="exclamdbl" xMin="129" yMin="-17" xMax="1146" yMax="1778">
      <component glyphName="exclam" x="575" y="0" flags="0x4"/>
      <component glyphName="exclam" x="0" y="0" flags="0x4"/>
    </TTGlyph>
    <TTGlyph name="exclamdown" xMin="84" yMin="-434" xMax="526" yMax="1360">
      <component glyphName="exclam" x="655" y="1344" scale="-0.99994" flags="0x4"/>
    </TTGlyph>
    <TTGlyph name="f" xMin="152" yMin="0" xMax="889" yMax="1678">
      <contour>
        <pt x="304" y="1021" on="1"/>
        <pt x="152" y="1021" on="1"/>
        <pt x="174" y="1139" on="1"/>
        <pt x="320" y="1140" on="1"/>
        <pt x="338" y="1264" on="1"/>
        <pt x="350" y="1356" on="0"/>
        <pt x="414" y="1508" on="0"/>
        <pt x="515" y="1618" on="0"/>
        <pt x="652" y="1678" on="0"/>
        <pt x="738" y="1678" on="1"/>
        <pt x="776" y="1678" on="0"/>
        <pt x="852" y="1669" on="0"/>
        <pt x="889" y="1652" on="1"/>
        <pt x="851" y="1531" on="1"/>
        <pt x="832" y="1544" on="0"/>
        <pt x="771" y="1563" on="0"/>
        <pt x="719" y="1562" on="1"/>
        <pt x="672" y="1562" on="0"/>
        <pt x="594" y="1520" on="0"/>
        <pt x="535" y="1450" on="0"/>
        <pt x="497" y="1356" on="0"/>
        <pt x="490" y="1302" on="1"/>
        <pt x="469" y="1140" on="1"/>
        <pt x="712" y="1140" on="1"/>
        <pt x="703" y="1021" on="1"/>
        <pt x="453" y="1021" on="1"/>
        <pt x="315" y="0" on="1"/>
        <pt x="167" y="0" on="1"/>
      </contour>
    </TTGlyph>
    <TTGlyph name="f_f" xMin="152" yMin="0" xMax="1584" yMax="1678">
      <component glyphName="f" x="0" y="0" flags="0x4"/>
      <component glyphName="f" x="695" y="0" flags="0x4"/>
    </TTGlyph>
    <TTGlyph name="f_f_i" xMin="152" yMin="0" xMax="1911" yMax="1678">
      <component glyphName="dotlessi" x="1389" y="0" flags="0x4"/>
      <component glyphName="dotaccent" x="1645" y="0" flags="0x4"/>
      <component glyphName="f" x="0" y="0" flags="0x4"/>
      <component glyphName="f" x="695" y="0" flags="0x4"/>
    </TTGlyph>
    <TTGlyph name="f_f_i_trk" xMin="152" yMin="0" xMax="1912" yMax="1678">
      <component glyphName="f" x="0" y="0" flags="0x4"/>
      <component glyphName="f" x="695" y="0" flags="0x4"/>
      <component glyphName="dotlessi" x="1390" y="0" flags="0x4"/>
      <component glyphName="dotaccent" x="1646" y="3" flags="0x4"/>
    </TTGlyph>
    <TTGlyph name="f_f_l" xMin="152" yMin="0" xMax="1893" yMax="1678">
      <component glyphName="l" x="1389" y="0" flags="0x4"/>
      <component glyphName="f" x="0" y="0" flags="0x4"/>
      <component glyphName="f" x="695" y="0" flags="0x4"/>
    </TTGlyph>
    <TTGlyph name="f_i_trk" xMin="152" yMin="0" xMax="1217" yMax="1678">
      <component glyphName="f" x="0" y="0" flags="0x4"/>
      <component glyphName="dotlessi" x="695" y="0" flags="0x4"/>
      <component glyphName="dotaccent" x="951" y="3" flags="0x4"/>
    </TTGlyph>
    <TTGlyph name="ffi_dflt" xMin="152" yMin="0" xMax="1911" yMax="1678">
      <component glyphName="dotlessi" x="1389" y="0" flags="0x4"/>
      <component glyphName="dotaccent" x="1645" y="0" flags="0x4"/>
      <component glyphName="f" x="0" y="0" flags="0x4"/>
      <component glyphName="f" x="695" y="0" flags="0x4"/>
    </TTGlyph>
    <TTGlyph name="fi" xMin="152" yMin="0" xMax="1217" yMax="1678">
      <component glyphName="dotlessi" x="695" y="0" flags="0x4"/>
      <component glyphName="dotaccent" x="951" y="0" flags="0x4"/>
      <component glyphName="f" x="0" y="0" flags="0x4"/>
    </TTGlyph>
    <TTGlyph name="fi_trk" xMin="152" yMin="0" xMax="1217" yMax="1678">
      <component glyphName="dotlessi" x="695" y="0" flags="0x4"/>
      <component glyphName="dotaccent" x="951" y="0" flags="0x4"/>
      <component glyphName="f" x="0" y="0" flags="0x4"/>
    </TTGlyph>
    <TTGlyph name="five" xMin="39" yMin="-346" xMax="1039" yMax="1160">
      <contour>
        <pt x="57" y="-221" on="1"/>
        <pt x="82" y="-226" on="0"/>
        <pt x="124" y="-231" on="0"/>
        <pt x="149" y="-231" on="1"/>
        <pt x="265" y="-231" on="0"/>
        <pt x="488" y="-178" on="0"/>
        <pt x="663" y="-74" on="0"/>
        <pt x="770" y="80" on="0"/>
        <pt x="770" y="182" on="1"/>
        <pt x="770" y="312" on="0"/>
        <pt x="636" y="460" on="0"/>
        <pt x="498" y="460" on="1"/>
        <pt x="458" y="460" on="0"/>
        <pt x="378" y="447" on="0"/>
        <pt x="304" y="427" on="0"/>
        <pt x="239" y="403" on="0"/>
        <pt x="214" y="391" on="1"/>
        <pt x="156" y="449" on="1"/>
        <pt x="310" y="1144" on="1"/>
        <pt x="892" y="1144" on="1"/>
        <pt x="911" y="1160" on="1"/>
        <pt x="1039" y="1160" on="1"/>
        <pt x="1008" y="1016" on="1"/>
        <pt x="427" y="1016" on="1"/>
        <pt x="307" y="528" on="1"/>
        <pt x="331" y="537" on="0"/>
        <pt x="393" y="555" on="0"/>
        <pt x="461" y="569" on="0"/>
        <pt x="532" y="577" on="0"/>
        <pt x="567" y="577" on="1"/>
        <pt x="666" y="577" on="0"/>
        <pt x="809" y="523" on="0"/>
        <pt x="901" y="426" on="0"/>
        <pt x="945" y="291" on="0"/>
        <pt x="945" y="210" on="1"/>
        <pt x="945" y="127" on="0"/>
        <pt x="887" y="-19" on="0"/>
        <pt x="783" y="-143" on="0"/>
        <pt x="640" y="-241" on="0"/>
        <pt x="467" y="-310" on="0"/>
        <pt x="272" y="-346" on="0"/>
        <pt x="169" y="-346" on="1"/>
        <pt x="157" y="-346" on="0"/>
        <pt x="124" y="-345" on="0"/>
        <pt x="89" y="-341" on="0"/>
        <pt x="54" y="-334" on="0"/>
        <pt x="39" y="-329" on="1"/>
        <pt x="57" y="-221" on="1"/>
      </contour>
    </TTGlyph>
    <TTGlyph name="fl" xMin="152" yMin="0" xMax="1199" yMax="1678">
      <component glyphName="l" x="695" y="0" flags="0x4"/>
      <component glyphName="f" x="0" y="0" flags="0x4"/>
    </TTGlyph>
    <TTGlyph name="florin" xMin="196" yMin="-356" xMax="1018" yMax="1678">
      <contour>
        <pt x="441" y="1033" on="1"/>
        <pt x="196" y="1033" on="1"/>
        <pt x="207" y="1112" on="1"/>
        <pt x="457" y="1152" on="1"/>
        <pt x="467" y="1228" on="1"/>
        <pt x="481" y="1343" on="0"/>
        <pt x="561" y="1512" on="0"/>
        <pt x="671" y="1623" on="0"/>
        <pt x="802" y="1678" on="0"/>
        <pt x="867" y="1678" on="1"/>
        <pt x="934" y="1678" on="0"/>
        <pt x="1009" y="1666" on="0"/>
        <pt x="1018" y="1661" on="1"/>
        <pt x="1009" y="1532" on="1"/>
        <pt x="997" y="1538" on="0"/>
        <pt x="931" y="1559" on="0"/>
        <pt x="863" y="1559" on="1"/>
        <pt x="814" y="1559" on="0"/>
        <pt x="735" y="1533" on="0"/>
        <pt x="674" y="1468" on="0"/>
        <pt x="632" y="1357" on="0"/>
        <pt x="621" y="1271" on="1"/>
        <pt x="605" y="1152" on="1"/>
        <pt x="902" y="1152" on="1"/>
        <pt x="890" y="1033" on="1"/>
        <pt x="589" y="1033" on="1"/>
        <pt x="407" y="-356" on="1"/>
        <pt x="257" y="-356" on="1"/>
      </contour>
    </TTGlyph>
    <TTGlyph name="four" xMin="23" yMin="-375" xMax="1119" yMax="1256">
      <contour>
        <pt x="23" y="72" on="1"/>
        <pt x="190" y="334" on="0"/>
        <pt x="540" y="917" on="0"/>
        <pt x="729" y="1256" on="1"/>
        <pt x="767" y="1256" on="1"/>
        <pt x="873" y="1188" on="1"/>
        <pt x="296" y="259" on="1"/>
        <pt x="188" y="101" on="1"/>
        <pt x="712" y="114" on="1"/>
        <pt x="776" y="621" on="1"/>
        <pt x="923" y="649" on="1"/>
        <pt x="856" y="122" on="1"/>
        <pt x="1119" y="133" on="1"/>
        <pt x="1103" y="0" on="1"/>
        <pt x="840" y="0" on="1"/>
        <pt x="793" y="-375" on="1"/>
        <pt x="648" y="-375" on="1"/>
        <pt x="697" y="0" on="1"/>
        <pt x="50" y="0" on="1"/>
      </contour>
    </TTGlyph>
    <TTGlyph name="four.numr" xMin="131" yMin="476" xMax="1118" yMax="1765">
      <contour>
        <pt x="684" y="824" on="1"/>
        <pt x="159" y="824" on="1"/>
        <pt x="131" y="898" on="1"/>
        <pt x="741" y="1765" on="1"/>
        <pt x="779" y="1765" on="1"/>
        <pt x="880" y="1687" on="1"/>
        <pt x="395" y="1059" on="1"/>
        <pt x="297" y="933" on="1"/>
        <pt x="701" y="945" on="1"/>
        <pt x="740" y="1225" on="1"/>
        <pt x="895" y="1243" on="1"/>
        <pt x="855" y="950" on="1"/>
        <pt x="1118" y="958" on="1"/>
        <pt x="1103" y="824" on="1"/>
        <pt x="838" y="824" on="1"/>
        <pt x="791" y="476" on="1"/>
        <pt x="635" y="476" on="1"/>
      </contour>
    </TTGlyph>
    <TTGlyph name="fraction" xMin="158" yMin="0" xMax="962" yMax="1530">
      <contour>
        <pt x="839" y="1530" on="1"/>
        <pt x="962" y="1530" on="1"/>
        <pt x="281" y="0" on="1"/>
        <pt x="158" y="0" on="1"/>
      </contour>
    </TTGlyph>
    <TTGlyph name="franc" xMin="14" yMin="0" xMax="1168" yMax="1530">
      <contour>
        <pt x="196" y="0" on="1"/>
        <pt x="239" y="339" on="1"/>
        <pt x="14" y="339" on="1"/>
        <pt x="28" y="460" on="1"/>
        <pt x="254" y="460" on="1"/>
        <pt x="389" y="1530" on="1"/>
        <pt x="1168" y="1530" on="1"/>
        <pt x="1157" y="1410" on="1"/>
        <pt x="525" y="1417" on="1"/>
        <pt x="452" y="835" on="1"/>
        <pt x="960" y="843" on="1"/>
        <pt x="950" y="713" on="1"/>
        <pt x="438" y="725" on="1"/>
        <pt x="404" y="460" on="1"/>
        <pt x="675" y="460" on="1"/>
        <pt x="661" y="339" on="1"/>
        <pt x="389" y="339" on="1"/>
        <pt x="346" y="0" on="1"/>
      </contour>
    </TTGlyph>
    <TTGlyph name="g" xMin="79" yMin="-505" xMax="1055" yMax="1156">
      <contour>
        <pt x="153" y="-344" on="1"/>
        <pt x="195" y="-363" on="0"/>
        <pt x="324" y="-392" on="0"/>
        <pt x="399" y="-392" on="1"/>
        <pt x="538" y="-392" on="0"/>
        <pt x="704" y="-237" on="0"/>
        <pt x="730" y="-92" on="1"/>
        <pt x="778" y="207" on="1"/>
        <pt x="750" y="168" on="0"/>
        <pt x="671" y="88" on="0"/>
        <pt x="573" y="24" on="0"/>
        <pt x="460" y="-16" on="0"/>
        <pt x="397" y="-16" on="1"/>
        <pt x="316" y="-16" on="0"/>
        <pt x="196" y="47" on="0"/>
        <pt x="117" y="161" on="0"/>
        <pt x="79" y="320" on="0"/>
        <pt x="79" y="416" on="1"/>
        <pt x="79" y="494" on="0"/>
        <pt x="113" y="665" on="0"/>
        <pt x="182" y="830" on="0"/>
        <pt x="287" y="978" on="0"/>
        <pt x="430" y="1090" on="0"/>
        <pt x="609" y="1156" on="0"/>
        <pt x="719" y="1156" on="1"/>
        <pt x="745" y="1156" on="0"/>
        <pt x="802" y="1150" on="0"/>
        <pt x="860" y="1140" on="0"/>
        <pt x="915" y="1127" on="0"/>
        <pt x="939" y="1120" on="1"/>
        <pt x="1055" y="1156" on="1"/>
        <pt x="879" y="-89" on="1"/>
        <pt x="862" y="-208" on="0"/>
        <pt x="755" y="-367" on="0"/>
        <pt x="609" y="-464" on="0"/>
        <pt x="445" y="-505" on="0"/>
        <pt x="371" y="-505" on="1"/>
        <pt x="338" y="-505" on="0"/>
        <pt x="261" y="-499" on="0"/>
        <pt x="189" y="-489" on="0"/>
        <pt x="130" y="-476" on="0"/>
        <pt x="115" y="-470" on="1"/>
      </contour>
      <contour>
        <pt x="423" y="100" on="1"/>
        <pt x="483" y="100" on="0"/>
        <pt x="594" y="151" on="0"/>
        <pt x="688" y="228" on="0"/>
        <pt x="764" y="319" on="0"/>
        <pt x="788" y="358" on="1"/>
        <pt x="884" y="1010" on="1"/>
        <pt x="844" y="1027" on="0"/>
        <pt x="744" y="1046" on="0"/>
        <pt x="696" y="1046" on="1"/>
        <pt x="618" y="1046" on="0"/>
        <pt x="489" y="991" on="0"/>
        <pt x="386" y="898" on="0"/>
        <pt x="309" y="774" on="0"/>
        <pt x="258" y="638" on="0"/>
        <pt x="233" y="498" on="0"/>
        <pt x="233" y="434" on="1"/>
        <pt x="233" y="266" on="0"/>
        <pt x="331" y="100" on="0"/>
      </contour>
    </TTGlyph>
    <TTGlyph name="gbreve" xMin="79" yMin="-505" xMax="1055" yMax="1648">
      <component glyphName="g" x="0" y="0" flags="0x204"/>
      <component glyphName="breve" x="368" y="0" flags="0x4"/>
    </TTGlyph>
    <TTGlyph name="gcaron" xMin="79" yMin="-505" xMax="1094" yMax="1680">
      <component glyphName="g" x="0" y="0" flags="0x204"/>
      <component glyphName="caron" x="302" y="0" flags="0x4"/>
    </TTGlyph>
    <TTGlyph name="gcircumflex" xMin="79" yMin="-505" xMax="1084" yMax="1710">
      <component glyphName="circumflex" x="304" y="0" flags="0x4"/>
      <component glyphName="g" x="0" y="0" flags="0x4"/>
    </TTGlyph>
    <TTGlyph name="gcommaaccent" xMin="79" yMin="-505" xMax="1055" yMax="1762">
      <contour>
        <pt x="697" y="1253" on="1"/>
        <pt x="665" y="1260" on="0"/>
        <pt x="615" y="1303" on="0"/>
        <pt x="581" y="1364" on="0"/>
        <pt x="563" y="1437" on="0"/>
        <pt x="564" y="1473" on="1"/>
        <pt x="566" y="1533" on="0"/>
        <pt x="605" y="1634" on="0"/>
        <pt x="663" y="1709" on="0"/>
        <pt x="730" y="1755" on="0"/>
        <pt x="759" y="1762" on="1"/>
        <pt x="820" y="1723" on="1"/>
        <pt x="818" y="1703" on="1"/>
        <pt x="776" y="1678" on="0"/>
        <pt x="713" y="1591" on="0"/>
        <pt x="710" y="1521" on="1"/>
        <pt x="709" y="1499" on="0"/>
        <pt x="721" y="1454" on="0"/>
        <pt x="743" y="1417" on="0"/>
        <pt x="776" y="1389" on="0"/>
        <pt x="796" y="1385" on="1"/>
        <pt x="791" y="1345" on="1"/>
      </contour>
      <contour>
        <pt x="153" y="-344" on="1"/>
        <pt x="195" y="-363" on="0"/>
        <pt x="324" y="-392" on="0"/>
        <pt x="399" y="-392" on="1"/>
        <pt x="538" y="-392" on="0"/>
        <pt x="704" y="-237" on="0"/>
        <pt x="730" y="-92" on="1"/>
        <pt x="778" y="207" on="1"/>
        <pt x="750" y="168" on="0"/>
        <pt x="671" y="88" on="0"/>
        <pt x="573" y="24" on="0"/>
        <pt x="460" y="-16" on="0"/>
        <pt x="397" y="-16" on="1"/>
        <pt x="316" y="-16" on="0"/>
        <pt x="196" y="47" on="0"/>
        <pt x="117" y="161" on="0"/>
        <pt x="79" y="320" on="0"/>
        <pt x="79" y="416" on="1"/>
        <pt x="79" y="494" on="0"/>
        <pt x="113" y="665" on="0"/>
        <pt x="182" y="830" on="0"/>
        <pt x="287" y="978" on="0"/>
        <pt x="430" y="1090" on="0"/>
        <pt x="609" y="1156" on="0"/>
        <pt x="719" y="1156" on="1"/>
        <pt x="745" y="1156" on="0"/>
        <pt x="802" y="1150" on="0"/>
        <pt x="860" y="1140" on="0"/>
        <pt x="915" y="1127" on="0"/>
        <pt x="939" y="1120" on="1"/>
        <pt x="1055" y="1156" on="1"/>
        <pt x="879" y="-89" on="1"/>
        <pt x="862" y="-208" on="0"/>
        <pt x="755" y="-367" on="0"/>
        <pt x="609" y="-464" on="0"/>
        <pt x="445" y="-505" on="0"/>
        <pt x="371" y="-505" on="1"/>
        <pt x="338" y="-505" on="0"/>
        <pt x="261" y="-499" on="0"/>
        <pt x="189" y="-489" on="0"/>
        <pt x="130" y="-476" on="0"/>
        <pt x="115" y="-470" on="1"/>
      </contour>
      <contour>
        <pt x="423" y="100" on="1"/>
        <pt x="483" y="100" on="0"/>
        <pt x="594" y="151" on="0"/>
        <pt x="688" y="228" on="0"/>
        <pt x="764" y="319" on="0"/>
        <pt x="788" y="358" on="1"/>
        <pt x="884" y="1010" on="1"/>
        <pt x="844" y="1027" on="0"/>
        <pt x="744" y="1046" on="0"/>
        <pt x="696" y="1046" on="1"/>
        <pt x="618" y="1046" on="0"/>
        <pt x="489" y="991" on="0"/>
        <pt x="386" y="898" on="0"/>
        <pt x="309" y="774" on="0"/>
        <pt x="258" y="638" on="0"/>
        <pt x="233" y="498" on="0"/>
        <pt x="233" y="434" on="1"/>
        <pt x="233" y="266" on="0"/>
        <pt x="331" y="100" on="0"/>
      </contour>
    </TTGlyph>
    <TTGlyph name="gdotaccent" xMin="79" yMin="-505" xMax="1055" yMax="1640">
      <component glyphName="g" x="0" y="0" flags="0x204"/>
      <component glyphName="dotaccent" x="577" y="0" flags="0x4"/>
    </TTGlyph>
</ttFont>
